<svg width="1920" height="3976" viewBox="0 0 1920 3976" fill="none" xmlns="http://www.w3.org/2000/svg">
<path d="M304.385 2081C364.796 2081 413.769 2077.28 413.769 2072.69C413.769 2068.1 364.796 2064.38 304.385 2064.38C243.973 2064.38 195 2068.1 195 2072.69C195 2077.28 243.973 2081 304.385 2081Z" fill="#E6E6E6"/>
<path d="M278.612 1783.76C297.648 1775.66 321.358 1780.79 344.513 1784.35C344.728 1780.04 347.34 1774.79 344.604 1771.78C341.28 1768.13 341.586 1764.29 343.587 1760.43C348.701 1750.55 341.373 1740.04 333.974 1731.3C332.307 1729.34 330.199 1727.79 327.823 1726.8C325.446 1725.8 322.868 1725.38 320.298 1725.56L306.592 1726.54C303.256 1726.78 300.074 1728.03 297.469 1730.13C294.864 1732.22 292.962 1735.07 292.017 1738.27C288.744 1742.73 286.992 1747.16 288.095 1751.58C283.193 1754.93 282.369 1758.97 284.572 1763.53C286.44 1766.4 286.42 1769.2 284.487 1771.91C281.949 1775.38 280.004 1779.24 278.734 1783.34L278.612 1783.76Z" fill="#2F2E41"/>
<path d="M730.991 2029.23H343.009C339.559 2029.23 336.25 2027.86 333.81 2025.42C331.371 2022.98 330 2019.67 330 2016.22C470.643 1999.88 608.643 1999.88 744 2016.22C744 2019.67 742.629 2022.98 740.19 2025.42C737.75 2027.86 734.441 2029.23 730.991 2029.23Z" fill="#2F2E41"/>
<path d="M744 2016.99L330 2016.22L377.981 1935.48L378.211 1935.1V1757.16C378.211 1755 378.636 1752.86 379.462 1750.86C380.289 1748.87 381.5 1747.05 383.027 1745.53C384.554 1744 386.367 1742.79 388.362 1741.96C390.358 1741.13 392.496 1740.71 394.656 1740.71H677.048C679.208 1740.71 681.347 1741.13 683.342 1741.96C685.337 1742.79 687.15 1744 688.677 1745.53C690.204 1747.05 691.416 1748.87 692.242 1750.86C693.068 1752.86 693.494 1755 693.494 1757.16V1936.32L744 2016.99Z" fill="#3F3D56"/>
<path d="M394.281 1752.19C392.861 1752.19 391.499 1752.76 390.495 1753.76C389.491 1754.76 388.926 1756.13 388.924 1757.55V1919.79C388.926 1921.21 389.491 1922.57 390.495 1923.58C391.499 1924.58 392.861 1925.15 394.281 1925.15H679.719C681.139 1925.15 682.501 1924.58 683.505 1923.58C684.509 1922.57 685.074 1921.21 685.076 1919.79V1757.55C685.074 1756.13 684.509 1754.76 683.505 1753.76C682.501 1752.76 681.139 1752.19 679.719 1752.19H394.281Z" fill="white"/>
<path d="M395.477 1946.58C395.038 1946.58 394.609 1946.71 394.239 1946.94C393.87 1947.18 393.575 1947.52 393.391 1947.92L378.607 1980.06C378.446 1980.41 378.375 1980.79 378.402 1981.18C378.429 1981.56 378.552 1981.93 378.759 1982.26C378.967 1982.58 379.253 1982.85 379.591 1983.03C379.928 1983.22 380.307 1983.31 380.692 1983.31H691.602C691.993 1983.31 692.378 1983.21 692.72 1983.02C693.062 1982.83 693.349 1982.56 693.555 1982.23C693.761 1981.89 693.878 1981.51 693.895 1981.12C693.913 1980.73 693.83 1980.34 693.655 1979.99L677.585 1947.85C677.395 1947.47 677.102 1947.14 676.74 1946.92C676.377 1946.7 675.958 1946.58 675.532 1946.58H395.477Z" fill="#2F2E41"/>
<path d="M535.852 1749.51C537.754 1749.51 539.296 1747.97 539.296 1746.07C539.296 1744.16 537.754 1742.62 535.852 1742.62C533.95 1742.62 532.409 1744.16 532.409 1746.07C532.409 1747.97 533.95 1749.51 535.852 1749.51Z" fill="white"/>
<path d="M505.292 1989.44C504.788 1989.44 504.297 1989.6 503.897 1989.91C503.496 1990.22 503.208 1990.65 503.076 1991.14L499.367 2004.91C499.275 2005.25 499.263 2005.61 499.332 2005.95C499.4 2006.3 499.547 2006.62 499.761 2006.9C499.976 2007.18 500.252 2007.41 500.568 2007.57C500.884 2007.72 501.231 2007.8 501.584 2007.8H572.112C572.478 2007.8 572.839 2007.72 573.164 2007.55C573.489 2007.38 573.77 2007.14 573.982 2006.84C574.194 2006.54 574.332 2006.2 574.384 2005.83C574.436 2005.47 574.4 2005.1 574.281 2004.76L569.513 1990.98C569.356 1990.53 569.063 1990.14 568.675 1989.86C568.286 1989.59 567.821 1989.44 567.343 1989.44H505.292Z" fill="#2F2E41"/>
<path d="M693.493 1932.42V1935.48H377.981L378.219 1935.1V1932.42H693.493Z" fill="#2F2E41"/>
<path d="M684.693 1806.14C714.278 1806.14 738.261 1782.16 738.261 1752.57C738.261 1722.98 714.278 1699 684.693 1699C655.109 1699 631.126 1722.98 631.126 1752.57C631.126 1782.16 655.109 1806.14 684.693 1806.14Z" fill="#C360FC"/>
<path d="M706.885 1775.91H662.501C661.689 1775.91 660.911 1775.59 660.337 1775.02C659.763 1774.44 659.441 1773.66 659.44 1772.85V1746.07C659.441 1745.26 659.764 1744.48 660.337 1743.9C660.911 1743.33 661.689 1743.01 662.501 1743.01H706.885C707.697 1743.01 708.475 1743.33 709.049 1743.9C709.623 1744.48 709.946 1745.26 709.946 1746.07V1772.85C709.946 1773.66 709.623 1774.44 709.049 1775.02C708.475 1775.59 707.697 1775.91 706.885 1775.91ZM662.501 1746.07V1772.85H706.888L706.885 1746.07L662.501 1746.07Z" fill="white"/>
<path d="M698.468 1746.07H670.919V1733.82C670.919 1724.95 676.712 1718.52 684.693 1718.52C692.674 1718.52 698.468 1724.95 698.468 1733.82L698.468 1746.07ZM673.98 1743.01H695.407V1733.82C695.407 1726.61 691.001 1721.58 684.693 1721.58C678.385 1721.58 673.98 1726.61 673.98 1733.82L673.98 1743.01Z" fill="white"/>
<path d="M684.693 1761.76C686.384 1761.76 687.754 1760.39 687.754 1758.69C687.754 1757 686.384 1755.63 684.693 1755.63C683.003 1755.63 681.632 1757 681.632 1758.69C681.632 1760.39 683.003 1761.76 684.693 1761.76Z" fill="white"/>
<path d="M647.298 1870.12H426.702C425.619 1870.12 424.58 1869.69 423.814 1868.92C423.049 1868.15 422.618 1867.12 422.616 1866.03V1811.31C422.618 1810.22 423.049 1809.19 423.814 1808.42C424.58 1807.65 425.619 1807.22 426.702 1807.22H647.298C648.381 1807.22 649.42 1807.65 650.186 1808.42C650.951 1809.19 651.382 1810.22 651.384 1811.31V1866.03C651.382 1867.12 650.951 1868.15 650.186 1868.92C649.42 1869.69 648.381 1870.12 647.298 1870.12ZM426.702 1808.86C426.052 1808.86 425.429 1809.12 424.969 1809.57C424.51 1810.03 424.251 1810.66 424.251 1811.31V1866.03C424.251 1866.68 424.51 1867.31 424.969 1867.76C425.429 1868.22 426.052 1868.48 426.702 1868.48H647.298C647.948 1868.48 648.571 1868.22 649.031 1867.76C649.49 1867.31 649.749 1866.68 649.749 1866.03V1811.31C649.749 1810.66 649.49 1810.03 649.031 1809.57C648.571 1809.12 647.948 1808.86 647.298 1808.86L426.702 1808.86Z" fill="#E6E6E6"/>
<path d="M460.978 1853.21C470.168 1853.21 477.618 1845.76 477.618 1836.57C477.618 1827.38 470.168 1819.93 460.978 1819.93C451.787 1819.93 444.337 1827.38 444.337 1836.57C444.337 1845.76 451.787 1853.21 460.978 1853.21Z" fill="#E6E6E6"/>
<path d="M499.41 1825.48C499.045 1825.47 498.684 1825.55 498.347 1825.69C498.01 1825.82 497.704 1826.03 497.446 1826.29C497.188 1826.54 496.983 1826.85 496.843 1827.19C496.704 1827.52 496.632 1827.88 496.632 1828.25C496.632 1828.61 496.704 1828.97 496.843 1829.31C496.983 1829.65 497.188 1829.95 497.446 1830.21C497.704 1830.47 498.01 1830.67 498.347 1830.81C498.684 1830.95 499.045 1831.02 499.41 1831.02H630.157C630.893 1831.02 631.598 1830.73 632.119 1830.21C632.639 1829.69 632.931 1828.98 632.931 1828.25C632.931 1827.51 632.639 1826.81 632.119 1826.29C631.598 1825.77 630.893 1825.48 630.157 1825.48H499.41Z" fill="#E6E6E6"/>
<path d="M499.41 1842.12C498.674 1842.12 497.969 1842.41 497.449 1842.93C496.929 1843.45 496.636 1844.16 496.636 1844.89C496.636 1845.63 496.929 1846.33 497.449 1846.85C497.969 1847.37 498.674 1847.66 499.41 1847.66H555.671C556.406 1847.66 557.112 1847.37 557.632 1846.85C558.152 1846.33 558.444 1845.63 558.444 1844.89C558.444 1844.16 558.152 1843.45 557.632 1842.93C557.112 1842.41 556.406 1842.12 555.671 1842.12H499.41Z" fill="#E6E6E6"/>
<path d="M377.438 1843.24L336.659 1864.92L336.143 1846.85C349.453 1844.63 362.116 1840.76 373.825 1834.46L378.09 1823.93C378.555 1822.78 379.31 1821.77 380.282 1821C381.254 1820.23 382.408 1819.73 383.633 1819.54C384.857 1819.36 386.109 1819.49 387.266 1819.93C388.423 1820.38 389.444 1821.11 390.231 1822.07C391.381 1823.47 391.956 1825.26 391.839 1827.07C391.722 1828.87 390.922 1830.57 389.602 1831.81L377.438 1843.24Z" fill="#FFB8B8"/>
<path d="M277.799 1968.42C277.501 1967.33 277.438 1966.19 277.613 1965.07C277.789 1963.95 278.199 1962.89 278.816 1961.94L287.774 1948.19C289.893 1944.94 293.144 1942.59 296.896 1941.6C300.649 1940.61 304.636 1941.05 308.083 1942.83C304.318 1949.24 304.843 1954.86 309.383 1959.75C302.335 1963.19 295.821 1967.63 290.043 1972.94C288.988 1973.65 287.776 1974.11 286.509 1974.27C285.242 1974.42 283.956 1974.27 282.758 1973.83C281.56 1973.39 280.485 1972.67 279.623 1971.73C278.76 1970.79 278.135 1969.65 277.799 1968.42Z" fill="#2F2E41"/>
<path d="M379.296 1950.45C377.94 1952.7 376.027 1954.58 373.739 1955.88C371.451 1957.19 368.866 1957.89 366.231 1957.91L306.72 1958.36L304.139 1943.39L330.465 1935.65L308.269 1918.61L332.53 1890.22L376.595 1931.29C379.171 1933.69 380.844 1936.9 381.336 1940.39C381.827 1943.88 381.107 1947.43 379.296 1950.45Z" fill="#2F2E41"/>
<path d="M297.429 2052.83H283.492C270.978 1967.05 258.241 1881.03 295.88 1848.92L340.273 1856.15L334.594 1893.83L309.817 1922.22L297.429 2052.83Z" fill="#2F2E41"/>
<path d="M309.68 2072.26C308.589 2072.56 307.447 2072.62 306.33 2072.45C305.213 2072.27 304.146 2071.86 303.198 2071.25L288.065 2069.21C284.813 2067.09 282.464 2063.84 281.474 2060.09C280.484 2056.34 280.923 2052.35 282.706 2048.9C289.115 2052.67 294.736 2052.14 299.622 2047.6C303.073 2054.57 308.761 2054.14 314.192 2060.02C314.911 2061.07 315.368 2062.28 315.524 2063.55C315.681 2064.82 315.532 2066.1 315.09 2067.3C314.649 2068.5 313.928 2069.58 312.987 2070.44C312.045 2071.3 310.912 2071.93 309.68 2072.26Z" fill="#2F2E41"/>
<path d="M330.465 1791.62L304.655 1785.42C308.942 1776.65 309.295 1766.88 307.236 1756.51L324.787 1756C325.337 1768.89 327 1780.94 330.465 1791.62Z" fill="#FFB8B8"/>
<path d="M337.558 1871.69C318.77 1884.49 305.495 1872.13 295.364 1853.05C296.772 1841.37 294.492 1827.4 290.271 1812.22C288.393 1805.53 289.094 1798.37 292.235 1792.17C295.376 1785.96 300.729 1781.16 307.236 1778.71L329.433 1788C348.28 1803.37 351.989 1820.01 344.918 1837.56L337.558 1871.69Z" fill="#C360FC"/>
<path d="M283.492 1804.52L262.844 1815.36L299.494 1837.04L304.593 1849.62C304.933 1850.46 305.099 1851.36 305.08 1852.27C305.062 1853.18 304.858 1854.07 304.483 1854.89C304.108 1855.72 303.569 1856.46 302.899 1857.07C302.229 1857.68 301.442 1858.14 300.585 1858.44C299.612 1858.77 298.574 1858.88 297.552 1858.75C296.531 1858.62 295.554 1858.25 294.699 1857.68C293.843 1857.1 293.131 1856.34 292.62 1855.45C292.108 1854.55 291.811 1853.55 291.75 1852.52L291.234 1843.76L244.653 1828.38C243.084 1827.86 241.653 1827 240.469 1825.84C239.285 1824.69 238.378 1823.28 237.818 1821.73C237.002 1819.46 236.961 1816.99 237.7 1814.69C238.44 1812.4 239.918 1810.42 241.905 1809.06L279.362 1783.36L283.492 1804.52Z" fill="#FFB8B8"/>
<path d="M304.139 1806.59C295.528 1802.81 287.697 1806.91 277.814 1810.2L276.265 1782.84C286.079 1777.61 295.436 1776.2 304.139 1780.26L304.139 1806.59Z" fill="#C360FC"/>
<path d="M314.44 1769.55C323.541 1769.55 330.919 1762.17 330.919 1753.07C330.919 1743.97 323.541 1736.59 314.44 1736.59C305.34 1736.59 297.962 1743.97 297.962 1753.07C297.962 1762.17 305.34 1769.55 314.44 1769.55Z" fill="#FFB8B8"/>
<path d="M334.154 1750.99C317.839 1752.59 305.407 1749.92 297.462 1742.32V1736.2H332.769L334.154 1750.99Z" fill="#2F2E41"/>
<g clip-path="url(#clip0_0_1)">
<path opacity="0.4" d="M658.352 2837.78C665.617 2837.78 671.506 2831.89 671.506 2824.62C671.506 2817.34 665.617 2811.45 658.352 2811.45C651.087 2811.45 645.197 2817.34 645.197 2824.62C645.197 2831.89 651.087 2837.78 658.352 2837.78Z" fill="#C360FC"/>
<path opacity="0.4" d="M380.995 2765.34C391.352 2765.34 399.748 2756.94 399.748 2746.58C399.748 2736.21 391.352 2727.81 380.995 2727.81C370.639 2727.81 362.243 2736.21 362.243 2746.58C362.243 2756.94 370.639 2765.34 380.995 2765.34Z" fill="#C360FC"/>
<path opacity="0.4" d="M346.289 2768.71C353.554 2768.71 359.444 2762.81 359.444 2755.54C359.444 2748.27 353.554 2742.37 346.289 2742.37C339.024 2742.37 333.134 2748.27 333.134 2755.54C333.134 2762.81 339.024 2768.71 346.289 2768.71Z" fill="#C360FC"/>
<path d="M669.369 2971.85C658.975 2983.24 658.598 2999.83 658.598 2999.83C658.598 2999.83 675.072 2997.96 685.467 2986.57C695.861 2975.18 696.238 2958.59 696.238 2958.59C696.238 2958.59 679.763 2960.46 669.369 2971.85Z" fill="#3F3D56"/>
<path d="M675.241 2975.13C672.095 2990.23 658.874 3000.25 658.874 3000.25C658.874 3000.25 650.753 2985.78 653.898 2970.68C657.043 2955.58 670.264 2945.56 670.264 2945.56C670.264 2945.56 678.386 2960.03 675.241 2975.13Z" fill="#C360FC"/>
<path d="M661.741 2819.3V2999.33L601.787 3048.9H295.068V2860.18L384.564 2819.3H661.741Z" fill="#3F3D56"/>
<path opacity="0.1" d="M661.741 2819.3V2820.02L640.218 2834.44L601.787 2860.18H295.068L384.564 2819.3H661.741Z" fill="black"/>
<path opacity="0.1" d="M661.741 2819.3V2999.33L601.787 3048.9L602.222 2859.74L640.218 2834.44L661.394 2819.3H661.741Z" fill="black"/>
<path d="M580.934 2844.09H394.122L408.024 2836.26H587.016L580.934 2844.09Z" fill="#2F2E41"/>
<path d="M742.166 3058.69C742.166 3058.69 745.788 3073.85 742.495 3074.51C739.203 3075.17 723.07 3074.95 719.119 3075.61C715.169 3076.27 706.938 3075.17 706.938 3072.2C706.938 3069.24 715.498 3067.26 715.498 3067.26C715.498 3067.26 727.68 3060.67 728.009 3060.34C728.338 3060.01 742.166 3058.69 742.166 3058.69Z" fill="#2F2E41"/>
<path d="M739.203 2969.39C739.203 2969.39 738.215 2980.59 738.215 2981.58C738.215 2982.57 739.203 2998.06 738.215 2998.72C737.227 2999.37 738.874 3003.99 738.874 3005.64C738.874 3007.28 744.141 3034.63 742.824 3045.18C741.507 3055.72 744.8 3054.74 743.812 3055.72C742.824 3056.71 742.824 3056.71 742.824 3058.69C742.824 3060.67 732.289 3062.31 732.289 3062.31L720.766 2989.49L726.692 2967.74L739.203 2969.39Z" fill="#575A89"/>
<path opacity="0.1" d="M739.203 2969.39C739.203 2969.39 738.215 2980.59 738.215 2981.58C738.215 2982.57 739.203 2998.06 738.215 2998.72C737.227 2999.37 738.874 3003.99 738.874 3005.64C738.874 3007.28 744.141 3034.63 742.824 3045.18C741.507 3055.72 744.8 3054.74 743.812 3055.72C742.824 3056.71 742.824 3056.71 742.824 3058.69C742.824 3060.67 732.289 3062.31 732.289 3062.31L720.766 2989.49L726.692 2967.74L739.203 2969.39Z" fill="black"/>
<path d="M737.557 3063.3C737.557 3063.3 740.849 3075.17 737.557 3075.83C734.264 3076.48 718.132 3075.07 714.181 3075.73C710.23 3076.39 701.999 3076.48 701.999 3073.52C701.999 3070.55 710.559 3068.58 710.559 3068.58C710.559 3068.58 722.741 3061.99 723.07 3061.66C723.399 3061.33 737.557 3063.3 737.557 3063.3Z" fill="#2F2E41"/>
<path d="M742.166 2956.21C742.166 2956.21 746.117 2965.76 741.507 2970.71C736.898 2975.65 731.63 2985.53 731.63 2986.19C731.63 2986.85 740.849 3052.43 739.532 3056.71C738.215 3061 738.544 3063.63 738.874 3064.29C739.203 3064.95 735.581 3068.58 731.63 3068.58C727.68 3068.58 721.753 3065.61 721.095 3062.97C720.436 3060.34 722.083 3037.6 721.753 3033.32C721.424 3029.03 719.778 3022.77 719.119 3021.45C718.461 3020.13 714.839 3018.82 714.181 3014.86C713.522 3010.91 708.255 2960.49 709.901 2958.84C711.547 2957.19 742.166 2956.21 742.166 2956.21Z" fill="#575A89"/>
<path d="M717.144 2880.41C723.326 2880.41 728.338 2875.4 728.338 2869.21C728.338 2863.02 723.326 2858 717.144 2858C710.962 2858 705.95 2863.02 705.95 2869.21C705.95 2875.4 710.962 2880.41 717.144 2880.41Z" fill="#FFB9B9"/>
<path d="M724.058 2874.81C724.058 2874.81 721.753 2887 723.399 2888.32C725.046 2889.64 710.889 2891.62 710.889 2891.62C710.889 2891.62 709.242 2875.47 708.913 2873.82C708.584 2872.17 724.058 2874.81 724.058 2874.81Z" fill="#FFB9B9"/>
<path d="M708.913 2890.63C708.913 2890.63 712.864 2879.09 728.997 2882.39C728.997 2882.39 731.96 2883.38 730.972 2884.37C729.984 2885.36 728.997 2885.36 730.313 2886.34C731.63 2887.33 733.277 2886.34 732.289 2887.33C731.301 2888.32 741.178 2894.25 740.52 2905.46C739.861 2916.66 742.824 2932.48 740.52 2935.12C738.215 2937.75 742.166 2949.29 741.507 2951.59C740.849 2953.9 745.458 2956.86 743.483 2957.85C741.507 2958.84 705.95 2964.77 704.962 2957.85C703.975 2950.93 704.633 2955.88 703.645 2954.23C702.658 2952.58 702.328 2949.61 702.987 2945.99C703.645 2942.37 705.292 2933.47 704.633 2930.17C703.975 2926.88 704.633 2899.2 706.609 2895.9C708.584 2892.61 708.913 2890.63 708.913 2890.63Z" fill="#C360FC"/>
<path d="M715.827 2971.03C715.827 2971.03 720.766 2989.82 714.51 2989.82C708.255 2989.82 708.584 2970.38 708.584 2970.38L715.827 2971.03Z" fill="#FFB9B9"/>
<path d="M712.206 2869.21C712.206 2870.16 713.588 2870.77 715.732 2870.91H715.735C716.644 2870.96 717.555 2870.94 718.461 2870.86C719.831 2870.73 720.397 2872.02 720.631 2873.72C721.013 2876.52 720.479 2880.46 721.095 2881.07C721.944 2881.92 728.137 2881.07 730.073 2879.14C730.374 2878.87 730.575 2878.51 730.643 2878.11C730.846 2876.93 731.426 2875.85 732.296 2875.03C733.438 2873.78 735.064 2872.4 736.898 2870.2C740.191 2866.24 736.898 2865.91 735.911 2862.95C734.923 2859.98 733.277 2858.99 733.277 2857.02C733.277 2855.04 725.704 2853.39 719.449 2853.72C713.193 2854.05 714.51 2861.96 714.51 2861.96C714.51 2861.96 714.138 2862.91 713.694 2864.15C713.092 2865.69 712.604 2867.28 712.232 2868.9C712.216 2869 712.208 2869.11 712.206 2869.21Z" fill="#2F2E41"/>
<path opacity="0.1" d="M713.522 2895.57C713.522 2895.57 724.716 2894.91 725.704 2911.39C726.692 2927.87 726.363 2943.35 726.363 2943.68C726.363 2944.01 721.753 2975.32 717.473 2975.32C713.193 2975.32 709.901 2974.66 708.913 2973.01C707.925 2971.36 711.547 2947.64 711.547 2947.64C711.547 2947.64 713.193 2922.59 710.559 2914.68C707.925 2906.78 707.596 2896.56 713.522 2895.57Z" fill="black"/>
<path d="M711.876 2893.92C711.876 2893.92 723.07 2893.26 724.058 2909.74C725.046 2926.22 724.716 2941.71 724.716 2942.04C724.716 2942.37 720.107 2973.67 715.827 2973.67C711.547 2973.67 708.255 2973.01 707.267 2971.36C706.279 2969.72 709.901 2945.99 709.901 2945.99C709.901 2945.99 711.547 2920.95 708.913 2913.04C706.279 2905.13 705.95 2894.91 711.876 2893.92Z" fill="#C360FC"/>
<path d="M526.255 2732.84C526.255 2732.84 521.377 2719.01 517.853 2723.35C514.33 2727.69 523.274 2735.01 523.274 2735.01L526.255 2732.84Z" fill="#A0616A"/>
<path d="M549.292 2719.28L546.357 2720.37C546.357 2720.37 544.956 2726.6 545.498 2727.69C546.04 2728.78 546.311 2727.96 545.498 2730.13C544.685 2732.3 542.246 2738 541.974 2738.81C541.703 2739.63 526.255 2733.66 526.255 2730.67C526.255 2730.67 523.003 2734.47 521.377 2735.29C521.377 2735.29 539.264 2748.31 541.703 2749.93C544.143 2751.56 545.498 2750.75 547.666 2748.85C549.834 2746.95 559.049 2731.22 559.049 2731.22L549.292 2719.28Z" fill="#575A89"/>
<path d="M541.432 2815.58C541.432 2815.58 541.703 2818.56 542.246 2818.84C542.788 2819.11 546.853 2825.89 542.246 2827.25C537.638 2828.6 534.928 2828.06 533.844 2828.6C532.76 2829.14 513.788 2830.23 513.517 2827.25C513.246 2824.26 522.732 2823.72 522.732 2823.72C522.732 2823.72 531.405 2818.02 532.76 2815.04C534.115 2812.05 541.432 2815.58 541.432 2815.58Z" fill="#2F2E41"/>
<path d="M596.45 2821.01C596.45 2821.01 602.955 2832.13 601.328 2833.48C599.702 2834.84 583.866 2839.78 581.544 2839.99C578.563 2840.27 576.394 2837.82 578.834 2836.47C581.273 2835.11 586.422 2829.42 586.422 2827.52V2822.63L596.45 2821.01Z" fill="#2F2E41"/>
<path d="M602.684 2748.31C602.684 2748.31 608.375 2755.36 599.431 2766.75L584.525 2785.74C584.525 2785.74 593.74 2800.39 594.011 2807.99C594.282 2815.58 596.179 2813.95 596.721 2817.21C597.263 2820.46 599.702 2818.84 597.805 2821.28C595.908 2823.72 588.861 2825.89 586.693 2823.99C585.947 2823.31 585.365 2822.46 584.99 2821.53C584.614 2820.59 584.455 2819.57 584.525 2818.56C584.525 2817.48 580.731 2811.24 580.46 2809.34C580.189 2807.44 570.161 2791.98 570.161 2791.98C570.161 2791.98 566.909 2782.76 570.703 2777.6C574.497 2772.45 577.005 2765.14 577.005 2765.14C577.005 2765.14 565.825 2778.69 557.965 2781.94C557.965 2781.94 554.984 2782.49 555.526 2783.84C556.068 2785.2 555.526 2786.01 554.713 2787.37C553.9 2788.73 548.208 2804.46 546.311 2808.53C544.414 2812.6 545.227 2815.04 543.059 2816.39C540.89 2817.75 531.134 2816.67 531.134 2815.31C531.134 2813.95 532.489 2810.43 533.302 2808.53C534.115 2806.63 540.619 2784.66 540.077 2780.86C539.535 2777.06 540.348 2771.91 544.414 2769.74C548.479 2767.57 569.077 2749.93 570.161 2749.93C571.245 2749.93 602.684 2748.31 602.684 2748.31Z" fill="#2F2E41"/>
<path d="M548.208 2705.72C554.495 2705.72 559.591 2700.62 559.591 2694.32C559.591 2688.03 554.495 2682.93 548.208 2682.93C541.921 2682.93 536.825 2688.03 536.825 2694.32C536.825 2700.62 541.921 2705.72 548.208 2705.72Z" fill="#A0616A"/>
<path d="M557.423 2695.41C557.423 2695.41 560.946 2701.65 565.282 2702.46C569.619 2703.28 553.899 2715.75 553.899 2715.75C553.899 2715.75 550.105 2703.82 546.853 2703.28C543.601 2702.73 557.423 2695.41 557.423 2695.41Z" fill="#A0616A"/>
<path d="M546.311 2720.91C546.311 2724.43 556.881 2734.47 556.881 2734.47L566.909 2742.88C566.909 2742.88 567.18 2745.86 568.264 2746.14C569.348 2746.41 570.703 2746.41 569.619 2748.04C568.535 2749.66 565.824 2753.19 568.264 2753.73C568.999 2753.84 569.74 2753.91 570.483 2753.94C571.134 2753.98 571.898 2754.02 572.757 2754.05C574.763 2754.12 577.272 2754.17 579.991 2754.15C580.763 2754.14 581.549 2754.13 582.349 2754.12C592.596 2753.92 604.467 2752.74 603.497 2748.85C601.87 2742.34 602.955 2740.17 599.431 2736.64C595.908 2733.12 590.216 2720.91 590.216 2720.91C590.216 2720.91 578.834 2701.65 569.348 2701.65L567.377 2701.13C566.462 2700.89 565.494 2700.94 564.61 2701.28C563.726 2701.62 562.972 2702.23 562.453 2703.02C560.55 2705.92 557.55 2710.28 555.797 2711.69C553.086 2713.86 552.664 2712.3 552.664 2712.3C552.664 2712.3 546.311 2717.38 546.311 2720.91Z" fill="#575A89"/>
<path d="M570.432 2762.14C570.432 2762.14 562.572 2774.35 567.451 2776.52C572.329 2778.69 575.039 2763.77 575.039 2763.77L570.432 2762.14Z" fill="#A0616A"/>
<path d="M555.65 2693.04C555.213 2692.98 555.074 2692.43 555.001 2692C554.607 2689.67 552.875 2687.46 550.547 2687.09C549.657 2686.97 548.752 2687.04 547.893 2687.3C546.662 2687.64 545.506 2688.21 544.487 2688.98C543.989 2689.43 543.413 2689.8 542.786 2690.05C542.359 2690.17 540.545 2690.98 540.121 2691.12C539.19 2691.42 538.419 2692.39 537.459 2692.2C536.541 2692.02 536.193 2690.91 536.045 2689.98C535.709 2687.87 536.915 2684.73 538.113 2682.96C539.023 2681.62 540.563 2680.85 542.102 2680.35C543.905 2679.8 545.758 2679.43 547.634 2679.25C550.166 2678.95 552.788 2678.79 555.214 2679.57C557.641 2680.35 559.85 2682.27 560.303 2684.78C560.397 2685.3 560.415 2685.84 560.531 2686.36C560.813 2687.63 561.65 2688.69 562.138 2689.89C562.49 2690.77 562.653 2691.72 562.617 2692.67C562.582 2693.62 562.348 2694.55 561.93 2695.4C561.255 2696.76 560.079 2698.07 560.333 2699.57L558.241 2697.92C557.939 2697.74 557.705 2697.47 557.578 2697.15C557.451 2696.83 557.439 2696.47 557.543 2696.14L557.847 2693.52C557.953 2693.04 557.905 2692.54 557.712 2692.1C556.782 2690.47 556.378 2693.13 555.65 2693.04Z" fill="#2F2E41"/>
<path opacity="0.1" d="M575.31 2743.42L572.757 2754.05C575.332 2754.14 578.739 2754.19 582.349 2754.12C583.259 2751.39 584.129 2748.53 584.796 2745.86C587.235 2736.1 583.17 2721.18 581.002 2714.13C578.834 2707.07 573.413 2705.17 573.413 2705.17C571.191 2705.96 569.092 2707.05 567.18 2708.43C563.656 2710.87 575.31 2743.42 575.31 2743.42Z" fill="black"/>
<path opacity="0.1" d="M573.142 2742.88L570.483 2753.94C571.134 2753.98 571.898 2754.02 572.757 2754.05C574.763 2754.12 577.272 2754.17 579.991 2754.15C580.969 2751.24 581.915 2748.18 582.628 2745.32C585.067 2735.56 581.002 2720.64 578.834 2713.58C576.665 2706.53 571.923 2714.26 571.923 2714.26C571.923 2714.26 573.82 2709.65 570.296 2712.09C566.773 2714.53 573.142 2742.88 573.142 2742.88Z" fill="black"/>
<path d="M572.329 2704.63C572.329 2704.63 577.749 2706.53 579.918 2713.58C582.086 2720.64 586.151 2735.56 583.712 2745.32C581.273 2755.09 576.123 2767.3 576.123 2767.3C576.123 2767.3 570.974 2763.5 569.077 2764.31L574.226 2742.88C574.226 2742.88 562.572 2710.33 566.096 2707.89C568.008 2706.51 570.107 2705.41 572.329 2704.63Z" fill="#575A89"/>
<path d="M576.369 2840.7L501.386 2684.3L376.008 2744.52L422.119 2840.7H576.369Z" fill="#F2F2F2"/>
<path d="M476.012 2745.69L409.419 2777.68L411.403 2781.81L477.995 2749.83L476.012 2745.69Z" fill="#3F3D56"/>
<path d="M493.643 2782.47L427.05 2814.45L429.034 2818.59L495.626 2786.6L493.643 2782.47Z" fill="#3F3D56"/>
<path d="M505.754 2724.05L489.221 2731.99L497.155 2748.54L513.688 2740.6L505.754 2724.05Z" fill="#3F3D56"/>
<path d="M523.385 2760.83L506.852 2768.77L514.786 2785.32L531.319 2777.38L523.385 2760.83Z" fill="#3F3D56"/>
<path d="M506.893 2712.59L500.084 2731.98L490.905 2728.75L489.649 2732.33L502.39 2736.81L510.466 2713.85L506.893 2712.59Z" fill="#57B894"/>
<path d="M524.524 2749.37L517.715 2768.76L508.537 2765.53L507.281 2769.1L520.021 2773.59L528.098 2750.62L524.524 2749.37Z" fill="#57B894"/>
<path d="M202.236 3020.7L236.113 3013.46L228.877 2979.55L195 2986.79L202.236 3020.7Z" fill="#F2F2F2"/>
<path d="M235.171 2970.49C235.171 2970.49 222.728 2979.38 226.876 2982.94C231.023 2986.5 239.319 2972.27 239.319 2972.27L235.171 2970.49Z" fill="#FFB9B9"/>
<path d="M292.646 2984.13C292.646 2984.13 290.276 3013.78 289.683 3017.93C289.091 3022.08 288.498 3059.45 287.313 3063.6C286.128 3067.75 284.943 3077.83 284.943 3077.83H277.833C277.833 3077.83 278.425 3059.45 276.648 3052.33C274.87 3045.21 275.463 3025.64 275.463 3025.64C275.463 3025.64 271.908 2990.65 273.685 2985.91C275.463 2981.16 292.646 2984.13 292.646 2984.13Z" fill="#FFB9B9"/>
<path d="M283.166 3076.05C283.166 3076.05 286.128 3077.83 286.128 3079.02C286.128 3080.2 285.536 3083.17 286.128 3084.36C286.721 3085.54 290.868 3090.29 288.498 3091.47C286.128 3092.66 275.463 3091.47 275.463 3091.47C275.463 3091.47 276.055 3083.17 276.648 3082.58C277.24 3081.98 276.055 3076.05 276.055 3076.05H283.166Z" fill="#2F2E41"/>
<path d="M247.351 2983.4C247.351 2983.4 246.598 3013.14 246.752 3017.33C246.906 3021.52 243.577 3058.74 244.32 3062.99C245.063 3067.25 245.184 3077.4 245.184 3077.4L252.255 3078.14C252.255 3078.14 253.594 3059.8 256.108 3052.91C258.622 3046.02 260.085 3026.49 260.085 3026.49C260.085 3026.49 267.291 2992.07 266.02 2987.16C264.75 2982.26 247.351 2983.4 247.351 2983.4Z" fill="#FFB9B9"/>
<path d="M247.139 3075.81C247.139 3075.81 244.006 3077.27 243.881 3078.45C243.757 3079.63 244.035 3082.64 243.322 3083.76C242.608 3084.88 237.986 3089.16 240.218 3090.59C242.451 3092.02 253.182 3091.96 253.182 3091.96C253.182 3091.96 253.463 3083.64 252.936 3082.99C252.409 3082.34 254.21 3076.56 254.21 3076.56L247.139 3075.81Z" fill="#2F2E41"/>
<path d="M284.351 2939.65C284.351 2939.65 289.091 2940.24 290.868 2950.32C292.646 2960.41 299.164 2985.91 293.831 2987.69C288.498 2989.47 272.5 2993.02 271.908 2991.84C271.315 2990.65 270.13 2987.69 270.13 2987.69C270.13 2987.69 271.908 2993.02 269.538 2993.02C267.167 2993.02 244.059 2989.47 244.651 2987.69C245.244 2985.91 246.429 2972.86 246.429 2972.86C246.429 2972.86 249.984 2950.92 253.539 2947.36C254.568 2946.37 255.367 2945.17 255.879 2943.83C256.391 2942.5 256.604 2941.07 256.502 2939.65H284.351Z" fill="#2F2E41"/>
<path d="M293.238 2934.9C293.238 2934.9 285.536 2933.13 284.351 2935.5C283.166 2937.87 287.313 2941.43 289.091 2941.43C290.868 2941.43 293.831 2939.65 293.831 2939.65L293.238 2934.9Z" fill="#FFB9B9"/>
<path d="M277.24 2884.49C283.131 2884.49 287.906 2879.72 287.906 2873.82C287.906 2867.92 283.131 2863.14 277.24 2863.14C271.35 2863.14 266.575 2867.92 266.575 2873.82C266.575 2879.72 271.35 2884.49 277.24 2884.49Z" fill="#FFB9B9"/>
<path d="M275.463 2881.53C275.463 2881.53 273.685 2889.83 274.87 2889.83C276.055 2889.83 265.982 2895.17 265.982 2895.17L258.279 2893.98L255.909 2890.43C255.909 2890.43 268.352 2882.12 268.352 2877.38C268.352 2872.63 275.463 2881.53 275.463 2881.53Z" fill="#FFB9B9"/>
<path d="M270.13 2889.83C270.13 2889.83 271.908 2888.65 272.5 2888.65H277.24C277.833 2888.65 285.536 2890.43 285.536 2890.43L290.276 2917.11C290.276 2917.11 281.98 2930.75 287.906 2941.43C287.906 2941.43 286.128 2940.24 277.833 2940.84C269.537 2941.43 254.724 2943.21 254.132 2943.21C253.539 2943.21 253.539 2938.46 254.132 2937.28C254.724 2936.09 253.539 2936.68 253.539 2933.72C253.539 2930.75 251.762 2925.42 251.762 2925.42L243.466 2895.17C243.466 2895.17 254.132 2889.24 255.909 2889.83C257.687 2890.43 263.02 2892.2 264.205 2891.61C265.39 2891.02 270.13 2889.83 270.13 2889.83Z" fill="#C360FC"/>
<path d="M283.758 2891.02L285.536 2890.43C285.536 2890.43 289.091 2889.83 293.238 2893.39C297.386 2896.95 312.792 2907.62 312.792 2907.62C312.792 2907.62 318.717 2912.37 316.939 2917.71C315.162 2923.04 312.199 2936.09 303.311 2935.5C303.311 2935.5 297.979 2942.61 295.016 2941.43C292.053 2940.24 289.683 2935.5 291.461 2934.9C293.238 2934.31 297.979 2928.38 297.979 2928.38L292.053 2917.11H290.276L283.758 2913.55L283.758 2891.02Z" fill="#C360FC"/>
<path d="M248.207 2894.58L243.466 2895.17C243.466 2895.17 239.319 2896.95 239.911 2904.66C240.504 2912.37 236.356 2947.36 238.134 2951.51C238.134 2951.51 232.208 2971.67 233.393 2972.27C234.579 2972.86 241.689 2976.42 241.096 2974.05C240.504 2971.67 247.614 2955.07 247.614 2955.07C247.614 2955.07 255.909 2946.17 252.354 2933.72V2923.64L248.207 2894.58Z" fill="#C360FC"/>
<path d="M286.117 2884.14L278.584 2885.78L277.616 2882.07L277.988 2885.91L265.837 2888.56L265.302 2886.51L265.508 2888.63L257.725 2890.33L256.06 2874.33C254.348 2867.77 260.595 2860.77 267.154 2859.06L270.063 2858.3C274.88 2857.04 283.636 2858.19 284.893 2863.01C282.692 2871.41 278.941 2880.63 286.117 2884.14Z" fill="#2F2E41"/>
</g>
<g clip-path="url(#clip1_0_1)">
<path d="M1467.86 2254.44C1462.99 2260.72 1459.24 2267.72 1456.76 2275.15C1454.56 2281.63 1452.91 2288.27 1451.83 2295C1451.31 2294.81 1450.79 2294.6 1450.28 2294.36C1445.6 2292.23 1441.83 2288.66 1439.59 2284.24C1437.34 2279.82 1436.75 2274.81 1437.92 2270.04C1439.08 2265.26 1441.93 2261 1446 2257.95C1450.07 2254.9 1455.11 2253.24 1460.31 2253.24C1462.27 2253.23 1464.21 2253.47 1466.1 2253.93C1466.7 2254.08 1467.29 2254.24 1467.86 2254.44Z" fill="#FF6584"/>
<path d="M1254.97 2504.67C1256.55 2492.7 1264.42 2480.91 1276.54 2477.01C1271.76 2489.33 1271.77 2502.85 1276.55 2515.17C1278.41 2519.92 1281 2525.01 1279.25 2529.8C1278.16 2532.77 1275.5 2535.05 1272.52 2536.47C1269.54 2537.9 1266.23 2538.58 1262.96 2539.24L1262.32 2539.74C1257.13 2528.71 1253.39 2516.65 1254.97 2504.67Z" fill="#E6E6E6"/>
<path d="M1276.66 2477.24C1269.61 2484.69 1265.22 2494.04 1264.13 2503.97C1263.85 2506.11 1263.93 2508.27 1264.37 2510.38C1264.87 2512.42 1265.94 2514.3 1267.47 2515.82C1268.87 2517.27 1270.47 2518.59 1271.47 2520.33C1271.97 2521.23 1272.26 2522.22 1272.33 2523.23C1272.39 2524.24 1272.23 2525.25 1271.85 2526.2C1270.96 2528.58 1269.23 2530.53 1267.46 2532.37C1265.49 2534.42 1263.41 2536.52 1262.58 2539.23C1262.48 2539.56 1261.94 2539.39 1262.04 2539.06C1263.5 2534.34 1268.36 2531.66 1270.68 2527.4C1271.77 2525.42 1272.22 2523.11 1271.21 2521.02C1270.32 2519.19 1268.66 2517.82 1267.24 2516.37C1265.72 2514.9 1264.61 2513.11 1264 2511.15C1263.44 2509.07 1263.27 2506.91 1263.49 2504.78C1263.89 2499.96 1265.1 2495.23 1267.06 2490.77C1269.27 2485.66 1272.39 2480.95 1276.29 2476.84C1276.53 2476.58 1276.9 2476.98 1276.66 2477.24H1276.66Z" fill="white"/>
<path d="M1264.28 2500.76C1262.53 2500.36 1261 2499.39 1259.94 2498.02C1258.89 2496.65 1258.38 2494.98 1258.52 2493.29C1258.55 2492.95 1259.11 2492.97 1259.08 2493.32C1258.95 2494.89 1259.42 2496.45 1260.41 2497.72C1261.39 2498.99 1262.83 2499.89 1264.46 2500.25C1264.81 2500.33 1264.63 2500.84 1264.28 2500.76H1264.28Z" fill="white"/>
<path d="M1266.66 2515.18C1269.81 2513.41 1272.14 2510.58 1273.17 2507.27C1273.28 2506.94 1273.81 2507.1 1273.71 2507.43C1272.62 2510.88 1270.2 2513.82 1266.92 2515.65C1266.6 2515.83 1266.35 2515.35 1266.66 2515.18Z" fill="white"/>
<path d="M1269.8 2486.17C1270.44 2486.45 1271.14 2486.59 1271.85 2486.55C1272.56 2486.52 1273.25 2486.32 1273.85 2485.97C1274.16 2485.79 1274.42 2486.27 1274.11 2486.45C1273.44 2486.83 1272.68 2487.05 1271.89 2487.09C1271.11 2487.13 1270.33 2486.98 1269.62 2486.67C1269.55 2486.65 1269.49 2486.6 1269.46 2486.54C1269.43 2486.48 1269.42 2486.4 1269.44 2486.34C1269.46 2486.27 1269.51 2486.21 1269.58 2486.18C1269.65 2486.15 1269.72 2486.15 1269.8 2486.17H1269.8Z" fill="white"/>
<path d="M1313.49 2498.39C1313.3 2498.51 1313.11 2498.63 1312.91 2498.75C1310.36 2500.33 1307.95 2502.1 1305.7 2504.05C1305.53 2504.2 1305.35 2504.35 1305.18 2504.51C1299.82 2509.26 1295.44 2514.9 1292.26 2521.16C1291 2523.65 1289.95 2526.23 1289.1 2528.87C1287.93 2532.52 1286.98 2536.56 1284.67 2539.54C1284.43 2539.86 1284.17 2540.16 1283.9 2540.44H1263.02C1262.97 2540.42 1262.92 2540.4 1262.87 2540.38L1262.04 2540.42C1262.07 2540.28 1262.11 2540.13 1262.15 2539.99C1262.16 2539.91 1262.19 2539.83 1262.21 2539.75C1262.22 2539.7 1262.24 2539.64 1262.25 2539.59C1262.25 2539.58 1262.26 2539.56 1262.26 2539.54C1262.27 2539.5 1262.28 2539.45 1262.29 2539.41C1262.5 2538.6 1262.72 2537.8 1262.94 2537C1262.94 2536.99 1262.94 2536.99 1262.95 2536.99C1264.58 2530.85 1266.98 2524.92 1270.09 2519.31C1270.19 2519.15 1270.28 2518.98 1270.39 2518.81C1271.83 2516.33 1273.48 2513.97 1275.34 2511.74C1276.35 2510.52 1277.44 2509.36 1278.58 2508.24C1281.54 2505.37 1284.96 2502.96 1288.72 2501.09C1296.2 2497.37 1304.87 2495.94 1312.88 2498.21C1313.08 2498.27 1313.28 2498.33 1313.49 2498.39Z" fill="#E6E6E6"/>
<path d="M1313.44 2498.64C1303.04 2500.59 1293.56 2505.57 1286.34 2512.88C1284.76 2514.43 1283.44 2516.2 1282.44 2518.14C1281.54 2520.05 1281.19 2522.16 1281.44 2524.24C1281.63 2526.18 1282.07 2528.15 1281.75 2530.11C1281.57 2531.11 1281.18 2532.06 1280.58 2532.91C1279.99 2533.75 1279.21 2534.46 1278.3 2535C1276.07 2536.41 1273.44 2536.97 1270.85 2537.44C1267.97 2537.96 1264.98 2538.46 1262.57 2540.15C1262.28 2540.36 1261.96 2539.92 1262.25 2539.71C1266.43 2536.77 1272.03 2537.39 1276.6 2535.31C1278.74 2534.34 1280.57 2532.75 1281.1 2530.51C1281.56 2528.54 1281.11 2526.51 1280.9 2524.54C1280.63 2522.51 1280.88 2520.45 1281.65 2518.54C1282.54 2516.56 1283.78 2514.74 1285.32 2513.16C1288.72 2509.54 1292.7 2506.45 1297.12 2504C1302.15 2501.18 1307.65 2499.19 1313.4 2498.11C1313.75 2498.05 1313.79 2498.58 1313.44 2498.64H1313.44Z" fill="white"/>
<path d="M1288.52 2510.4C1287.38 2509.09 1286.77 2507.44 1286.81 2505.75C1286.84 2504.06 1287.51 2502.44 1288.69 2501.17C1288.93 2500.91 1289.37 2501.25 1289.13 2501.51C1288.02 2502.69 1287.4 2504.2 1287.37 2505.78C1287.34 2507.35 1287.92 2508.88 1288.98 2510.1C1289.21 2510.36 1288.75 2510.66 1288.52 2510.4Z" fill="white"/>
<path d="M1281.2 2523.26C1284.85 2523.64 1288.51 2522.7 1291.46 2520.64C1291.75 2520.44 1292.07 2520.87 1291.78 2521.08C1288.71 2523.21 1284.9 2524.18 1281.1 2523.79C1280.74 2523.75 1280.84 2523.23 1281.2 2523.26Z" fill="white"/>
<path d="M1302.25 2501.88C1302.58 2502.47 1303.05 2502.98 1303.64 2503.35C1304.23 2503.73 1304.91 2503.96 1305.61 2504.03C1305.97 2504.06 1305.87 2504.58 1305.51 2504.55C1304.73 2504.47 1303.98 2504.21 1303.33 2503.8C1302.68 2503.39 1302.15 2502.83 1301.78 2502.18C1301.74 2502.12 1301.73 2502.05 1301.74 2501.98C1301.75 2501.91 1301.79 2501.85 1301.85 2501.81C1301.92 2501.77 1301.99 2501.76 1302.07 2501.77C1302.14 2501.78 1302.2 2501.82 1302.25 2501.88Z" fill="white"/>
<path d="M1475.25 2512.05C1466.57 2503.18 1462.11 2489.89 1466.79 2478.66C1473.68 2490.06 1484.63 2498.8 1497.7 2503.32C1502.75 2505.05 1508.55 2506.48 1511.3 2510.83C1513 2513.54 1513.12 2516.93 1512.35 2519.99C1511.58 2523.05 1509.99 2525.87 1508.42 2528.65L1508.41 2529.43C1496.12 2526.03 1483.93 2520.92 1475.25 2512.05Z" fill="#E6E6E6"/>
<path d="M1467.05 2478.72C1468.52 2488.61 1473.26 2497.81 1480.6 2505.01C1482.15 2506.59 1483.96 2507.93 1485.95 2508.98C1487.93 2509.94 1490.14 2510.38 1492.36 2510.27C1494.44 2510.2 1496.55 2509.9 1498.6 2510.31C1499.65 2510.53 1500.64 2510.96 1501.5 2511.57C1502.36 2512.17 1503.07 2512.94 1503.59 2513.83C1504.95 2516 1505.4 2518.51 1505.75 2520.97C1506.14 2523.71 1506.5 2526.56 1508.16 2528.91C1508.36 2529.2 1507.88 2529.48 1507.68 2529.19C1504.79 2525.09 1505.76 2519.86 1503.82 2515.44C1502.91 2513.38 1501.34 2511.57 1498.98 2510.94C1496.93 2510.4 1494.75 2510.7 1492.65 2510.79C1490.49 2510.93 1488.32 2510.57 1486.33 2509.75C1484.29 2508.8 1482.43 2507.53 1480.84 2505.99C1477.2 2502.59 1474.15 2498.67 1471.81 2494.37C1469.1 2489.48 1467.3 2484.19 1466.48 2478.73C1466.43 2478.39 1467 2478.38 1467.05 2478.72V2478.72Z" fill="white"/>
<path d="M1478.1 2502.82C1476.65 2503.82 1474.87 2504.3 1473.08 2504.17C1471.29 2504.05 1469.6 2503.33 1468.33 2502.14C1468.07 2501.9 1468.45 2501.51 1468.71 2501.75C1469.9 2502.86 1471.47 2503.53 1473.13 2503.64C1474.8 2503.76 1476.46 2503.31 1477.8 2502.37C1478.09 2502.17 1478.39 2502.62 1478.1 2502.82Z" fill="white"/>
<path d="M1491.32 2510.43C1491.92 2507.02 1491.13 2503.53 1489.12 2500.64C1488.92 2500.35 1489.4 2500.07 1489.6 2500.36C1491.69 2503.37 1492.5 2507.01 1491.87 2510.56C1491.8 2510.9 1491.26 2510.77 1491.32 2510.43Z" fill="white"/>
<path d="M1469.84 2489.43C1470.49 2489.15 1471.05 2488.73 1471.49 2488.2C1471.92 2487.67 1472.2 2487.05 1472.31 2486.39C1472.37 2486.05 1472.92 2486.17 1472.86 2486.51C1472.73 2487.24 1472.42 2487.93 1471.94 2488.52C1471.47 2489.1 1470.85 2489.57 1470.14 2489.88C1470.07 2489.92 1470 2489.93 1469.93 2489.91C1469.85 2489.9 1469.79 2489.85 1469.75 2489.8C1469.71 2489.74 1469.7 2489.66 1469.72 2489.59C1469.74 2489.53 1469.78 2489.47 1469.84 2489.43Z" fill="white"/>
<path d="M1507.99 2465.92C1507.96 2466.14 1507.93 2466.35 1507.9 2466.56C1507.53 2469.42 1507.41 2472.3 1507.54 2475.18C1507.54 2475.4 1507.55 2475.62 1507.57 2475.85C1507.95 2482.77 1509.69 2489.57 1512.71 2495.89C1513.91 2498.41 1515.32 2500.83 1516.91 2503.15C1519.11 2506.35 1521.77 2509.65 1522.69 2513.24C1522.79 2513.61 1522.87 2513.99 1522.92 2514.37L1509.42 2529.38C1509.37 2529.4 1509.33 2529.42 1509.28 2529.44L1508.77 2530.07C1508.68 2529.95 1508.59 2529.83 1508.5 2529.72C1508.44 2529.65 1508.39 2529.58 1508.34 2529.52C1508.31 2529.47 1508.27 2529.43 1508.24 2529.39C1508.23 2529.37 1508.22 2529.36 1508.21 2529.35C1508.17 2529.31 1508.15 2529.27 1508.12 2529.23C1507.6 2528.56 1507.09 2527.89 1506.58 2527.21C1506.58 2527.21 1506.58 2527.21 1506.58 2527.2C1502.66 2522.06 1499.41 2516.5 1496.88 2510.64C1496.81 2510.47 1496.73 2510.29 1496.67 2510.1C1495.59 2507.46 1494.74 2504.74 1494.14 2501.97C1493.81 2500.46 1493.56 2498.92 1493.4 2497.38C1492.99 2493.4 1493.25 2489.38 1494.16 2485.47C1495.98 2477.68 1500.43 2470.53 1507.45 2466.25C1507.63 2466.14 1507.8 2466.03 1507.99 2465.92Z" fill="#E6E6E6"/>
<path d="M1508.16 2466.12C1503.01 2474.85 1500.92 2484.89 1502.18 2494.8C1502.41 2496.94 1502.99 2499.03 1503.91 2501C1504.88 2502.89 1506.36 2504.5 1508.21 2505.67C1509.91 2506.79 1511.78 2507.75 1513.16 2509.24C1513.86 2510.01 1514.37 2510.91 1514.67 2511.88C1514.97 2512.86 1515.05 2513.88 1514.9 2514.88C1514.59 2517.39 1513.35 2519.64 1512.06 2521.81C1510.62 2524.22 1509.08 2526.69 1508.9 2529.51C1508.88 2529.86 1508.32 2529.8 1508.34 2529.46C1508.65 2524.55 1512.77 2520.93 1514.04 2516.3C1514.64 2514.14 1514.54 2511.79 1513.06 2509.96C1511.77 2508.36 1509.83 2507.37 1508.1 2506.24C1506.28 2505.13 1504.78 2503.62 1503.72 2501.83C1502.7 2499.91 1502.03 2497.85 1501.74 2495.72C1501.01 2490.93 1501.08 2486.07 1501.95 2481.31C1502.92 2475.87 1504.86 2470.63 1507.7 2465.81C1507.88 2465.51 1508.33 2465.82 1508.16 2466.12H1508.16Z" fill="white"/>
<path d="M1501.57 2491.63C1499.78 2491.6 1498.05 2490.98 1496.7 2489.86C1495.35 2488.75 1494.47 2487.21 1494.21 2485.54C1494.16 2485.2 1494.71 2485.11 1494.76 2485.45C1495.01 2487.01 1495.83 2488.43 1497.09 2489.47C1498.35 2490.51 1499.96 2491.09 1501.63 2491.1C1501.99 2491.11 1501.93 2491.63 1501.57 2491.63Z" fill="white"/>
<path d="M1507.27 2505.2C1509.92 2502.82 1511.53 2499.59 1511.77 2496.14C1511.79 2495.79 1512.35 2495.85 1512.33 2496.19C1512.08 2499.78 1510.4 2503.14 1507.62 2505.62C1507.36 2505.85 1507 2505.44 1507.27 2505.2Z" fill="white"/>
<path d="M1503.54 2476.26C1504.24 2476.4 1504.96 2476.39 1505.64 2476.21C1506.32 2476.03 1506.95 2475.69 1507.46 2475.22C1507.72 2474.99 1508.08 2475.4 1507.82 2475.64C1507.25 2476.15 1506.56 2476.52 1505.8 2476.72C1505.05 2476.92 1504.26 2476.94 1503.49 2476.79C1503.42 2476.78 1503.35 2476.74 1503.3 2476.69C1503.25 2476.63 1503.23 2476.56 1503.24 2476.49C1503.24 2476.42 1503.28 2476.36 1503.34 2476.32C1503.4 2476.27 1503.47 2476.25 1503.54 2476.26Z" fill="white"/>
<path d="M1390.64 2493.47C1398.32 2493.47 1404.55 2487.6 1404.55 2480.36C1404.55 2473.13 1398.32 2467.26 1390.64 2467.26C1382.96 2467.26 1376.73 2473.13 1376.73 2480.36C1376.73 2487.6 1382.96 2493.47 1390.64 2493.47Z" fill="#F2F2F2"/>
<path d="M1380.3 2367.16C1383.16 2367.16 1385.48 2364.98 1385.48 2362.28C1385.48 2359.59 1383.16 2357.41 1380.3 2357.41C1377.44 2357.41 1375.13 2359.59 1375.13 2362.28C1375.13 2364.98 1377.44 2367.16 1380.3 2367.16Z" fill="#C360FC"/>
<path d="M1309.14 2421.57C1312 2421.57 1314.32 2419.39 1314.32 2416.69C1314.32 2414 1312 2411.82 1309.14 2411.82C1306.28 2411.82 1303.97 2414 1303.97 2416.69C1303.97 2419.39 1306.28 2421.57 1309.14 2421.57Z" fill="#F0F0F0"/>
<path d="M1615.37 2205H1233.14C1232.57 2205 1232.03 2205.21 1231.63 2205.59C1231.23 2205.97 1231 2206.48 1231 2207.02V2218.88C1231 2219.41 1231.22 2219.92 1231.63 2220.3C1232.03 2220.68 1232.57 2220.9 1233.14 2220.9H1615.37C1615.93 2220.9 1616.48 2220.68 1616.88 2220.3C1617.28 2219.92 1617.5 2219.41 1617.5 2218.88V2207.02C1617.5 2206.48 1617.28 2205.97 1616.88 2205.59C1616.48 2205.21 1615.93 2205 1615.37 2205Z" fill="#C360FC"/>
<path d="M1243.43 2215.23C1245.11 2215.23 1246.47 2213.95 1246.47 2212.37C1246.47 2210.79 1245.11 2209.51 1243.43 2209.51C1241.75 2209.51 1240.39 2210.79 1240.39 2212.37C1240.39 2213.95 1241.75 2215.23 1243.43 2215.23Z" fill="white"/>
<path d="M1254.96 2215.23C1256.64 2215.23 1258 2213.95 1258 2212.37C1258 2210.79 1256.64 2209.51 1254.96 2209.51C1253.29 2209.51 1251.92 2210.79 1251.92 2212.37C1251.92 2213.95 1253.29 2215.23 1254.96 2215.23Z" fill="white"/>
<path d="M1266.5 2215.23C1268.18 2215.23 1269.54 2213.95 1269.54 2212.37C1269.54 2210.79 1268.18 2209.51 1266.5 2209.51C1264.82 2209.51 1263.46 2210.79 1263.46 2212.37C1263.46 2213.95 1264.82 2215.23 1266.5 2215.23Z" fill="white"/>
<path d="M1604.06 2208.54H1590.77C1590.51 2208.54 1590.26 2208.64 1590.08 2208.81C1589.9 2208.99 1589.79 2209.22 1589.79 2209.47C1589.79 2209.71 1589.9 2209.95 1590.08 2210.12C1590.26 2210.3 1590.51 2210.39 1590.77 2210.39H1604.06C1604.32 2210.39 1604.57 2210.3 1604.76 2210.12C1604.94 2209.95 1605.05 2209.71 1605.05 2209.47C1605.05 2209.22 1604.94 2208.99 1604.76 2208.81C1604.57 2208.64 1604.32 2208.54 1604.06 2208.54Z" fill="white"/>
<path d="M1604.06 2212.02H1590.77C1590.51 2212.02 1590.26 2212.12 1590.08 2212.29C1589.9 2212.47 1589.79 2212.7 1589.79 2212.95C1589.79 2213.19 1589.9 2213.43 1590.08 2213.6C1590.26 2213.77 1590.51 2213.87 1590.77 2213.87H1604.06C1604.32 2213.87 1604.57 2213.77 1604.76 2213.6C1604.94 2213.43 1605.05 2213.19 1605.05 2212.95C1605.05 2212.7 1604.94 2212.47 1604.76 2212.29C1604.57 2212.12 1604.32 2212.02 1604.06 2212.02Z" fill="white"/>
<path d="M1604.06 2215.5H1590.77C1590.51 2215.5 1590.26 2215.59 1590.08 2215.77C1589.89 2215.94 1589.79 2216.18 1589.79 2216.43C1589.79 2216.67 1589.89 2216.91 1590.08 2217.08C1590.26 2217.26 1590.51 2217.36 1590.77 2217.36H1604.06C1604.33 2217.36 1604.58 2217.26 1604.76 2217.08C1604.95 2216.91 1605.05 2216.67 1605.05 2216.43C1605.05 2216.18 1604.95 2215.94 1604.76 2215.77C1604.58 2215.59 1604.33 2215.5 1604.06 2215.5Z" fill="white"/>
<path d="M1245.29 2308.42C1244.19 2308.42 1243.3 2309.77 1243.3 2311.44C1243.3 2313.09 1244.19 2314.44 1245.29 2314.44H1395.2C1396.3 2314.44 1397.2 2313.09 1397.19 2311.42C1397.19 2309.77 1396.3 2308.42 1395.2 2308.42H1245.29Z" fill="#E6E6E6"/>
<path d="M1245.29 2325.86C1244.19 2325.87 1243.3 2327.22 1243.3 2328.88C1243.3 2330.54 1244.19 2331.88 1245.29 2331.88H1395.2C1396.3 2331.88 1397.2 2330.53 1397.19 2328.87C1397.19 2327.21 1396.3 2325.87 1395.2 2325.86H1245.29Z" fill="#E6E6E6"/>
<path d="M1245.29 2343.1C1244.19 2343.1 1243.3 2344.45 1243.3 2346.11C1243.3 2347.77 1244.19 2349.11 1245.29 2349.12H1341.51C1342.62 2349.11 1343.51 2347.76 1343.51 2346.1C1343.51 2344.44 1342.62 2343.1 1341.51 2343.1H1245.29Z" fill="#E6E6E6"/>
<path d="M1234.51 2535.7C1234.56 2535.59 1234.62 2535.49 1234.67 2535.38C1234.76 2534.48 1234.51 2535.7 1234.51 2535.7Z" fill="#F2F2F2"/>
<path d="M1261.74 2522.13C1259.84 2522.13 1257.95 2522.26 1256.07 2522.52L1255.8 2522.55C1249.79 2523.46 1244.34 2526.4 1240.47 2530.83C1236.59 2535.26 1234.57 2540.86 1234.78 2546.6L1234.85 2548.75C1234.9 2550.12 1234.95 2551.58 1234.99 2553.21C1235 2553.59 1235.16 2553.95 1235.45 2554.21C1235.73 2554.48 1236.12 2554.63 1236.52 2554.63H1540.39C1561.82 2554.41 1583.16 2554.15 1603.84 2553.83C1607.73 2553.84 1611.61 2553.51 1615.44 2552.85C1621.19 2551.74 1625.17 2549.54 1627.63 2546.13H1627.63C1630.69 2541.89 1630.79 2536.56 1630.6 2530.54C1630.23 2518.38 1629.85 2505.6 1629.48 2492.86C1629.15 2481.64 1628.82 2470.44 1628.5 2459.72C1628.29 2453.36 1627.84 2447.74 1624.37 2443.45C1620.61 2438.81 1613.74 2436.46 1603.97 2436.46C1603.85 2436.46 1603.73 2436.46 1603.61 2436.46C1572.98 2436.64 1542.63 2453.82 1528.09 2479.22C1526.41 2482.14 1524.85 2485.27 1523.34 2488.3C1521.2 2492.85 1518.76 2497.27 1516.06 2501.54C1514.65 2503.71 1513.04 2505.75 1511.25 2507.66C1511.13 2507.79 1510.99 2507.93 1510.85 2508.07C1510.52 2508.42 1510.18 2508.75 1509.85 2509.05C1508.01 2510.8 1505.95 2512.33 1503.71 2513.6L1503.49 2513.72C1503.33 2513.81 1503.16 2513.91 1502.98 2514C1501.76 2514.63 1500.5 2515.19 1499.19 2515.65C1493.65 2517.64 1487.34 2518.12 1480.46 2517.07C1473.92 2516.01 1467.62 2513.91 1461.83 2510.87C1455.45 2507.59 1449.48 2503.49 1443.71 2499.52C1441.17 2497.78 1438.55 2495.98 1435.93 2494.27C1435.44 2493.95 1434.96 2493.64 1434.46 2493.32C1431.26 2491.29 1428.36 2489.61 1425.6 2488.19C1419.08 2484.75 1411.89 2482.58 1404.47 2481.8C1396.85 2481.12 1390.14 2482.41 1384.52 2485.61C1382.91 2486.53 1381.4 2487.59 1380.01 2488.78C1373.35 2494.42 1369.25 2502.74 1365.28 2510.78C1360.35 2520.79 1355.25 2531.14 1345.17 2536.5C1333.55 2542.7 1316.58 2540.13 1304.57 2535.65C1300.8 2534.24 1297.03 2532.62 1293.38 2531.06C1291.91 2530.42 1290.43 2529.79 1288.96 2529.17C1286.06 2527.95 1283.69 2527.02 1281.5 2526.23L1280.8 2525.97C1280.42 2525.84 1280.03 2525.7 1279.64 2525.57C1277.21 2524.73 1274.73 2524.01 1272.21 2523.42L1271.65 2523.29C1270.51 2523.04 1269.45 2522.84 1268.41 2522.67L1268 2522.6C1265.93 2522.29 1263.84 2522.13 1261.74 2522.13Z" fill="#E6E6E6"/>
<path d="M1432.02 2522.48C1426.97 2504.57 1438.2 2487.1 1451.32 2475.01C1458.31 2468.57 1466.1 2462.96 1473.7 2457.18C1480.98 2451.69 1487.93 2445.8 1494.48 2439.54C1507.14 2427.33 1518.19 2413.38 1525.5 2397.7C1532.46 2382.78 1535.75 2366.53 1534.12 2350.26C1532.57 2334.83 1526.7 2319.64 1515.9 2307.8C1514.55 2306.33 1513.14 2304.91 1511.65 2303.56C1510.85 2302.83 1509.63 2303.98 1510.43 2304.71C1522.49 2315.74 1529.52 2330.7 1531.89 2346.25C1534.34 2362.3 1531.82 2378.65 1525.45 2393.65C1518.67 2409.63 1507.88 2423.89 1495.37 2436.33C1489.07 2442.56 1482.37 2448.41 1475.3 2453.86C1467.75 2459.72 1459.91 2465.25 1452.73 2471.51C1439.48 2483.04 1427.58 2498.91 1429.22 2516.77C1429.41 2518.84 1429.79 2520.9 1430.36 2522.92C1430.43 2523.12 1430.57 2523.29 1430.77 2523.39C1430.97 2523.49 1431.2 2523.51 1431.41 2523.46C1431.63 2523.4 1431.81 2523.27 1431.93 2523.09C1432.04 2522.9 1432.08 2522.69 1432.02 2522.48Z" fill="#E6E6E6"/>
<path d="M1484.98 2420.47C1485.09 2420.66 1485.11 2420.87 1485.05 2421.08C1484.99 2421.28 1484.85 2421.45 1484.66 2421.56C1484.47 2421.67 1484.24 2421.7 1484.02 2421.65C1483.8 2421.6 1483.62 2421.47 1483.49 2421.3C1481.51 2418.1 1479.65 2414.84 1477.89 2411.53C1476.7 2409.28 1475.57 2407.01 1474.5 2404.71C1462.54 2379.16 1457.41 2351.23 1459.58 2323.38C1460.17 2315.76 1461.34 2308.19 1463.07 2300.73C1463.43 2299.22 1463.81 2297.71 1464.23 2296.21C1464.87 2296.11 1465.49 2295.98 1466.1 2295.83C1462.36 2308.6 1460.86 2322.06 1460.81 2335.24C1460.76 2350.14 1462.79 2364.98 1466.87 2379.37C1470.92 2393.78 1477.01 2407.6 1484.98 2420.47Z" fill="#E6E6E6"/>
<path d="M1598.27 2376.41C1591.8 2389.52 1580.94 2400.28 1568.75 2408.85C1554.94 2418.57 1539.29 2425.58 1523.79 2432.54C1522.8 2432.99 1521.92 2431.59 1522.93 2431.14C1526.62 2429.48 1530.32 2427.81 1534 2426.12C1548.69 2419.32 1563.26 2411.85 1575.57 2401.55C1586.95 2392.03 1596.22 2380.17 1600.45 2366.25C1604.87 2351.77 1604.03 2336.11 1599.28 2321.8C1596.34 2313.11 1592.11 2304.85 1586.73 2297.27C1584.94 2294.73 1583.06 2292.26 1581.07 2289.86C1579.62 2288.11 1578.13 2286.4 1576.59 2284.73C1571.54 2279.28 1566.06 2274.21 1560.19 2269.56C1554.08 2264.59 1547.31 2260.38 1540.07 2257.04C1532.62 2253.63 1524.48 2251.78 1516.2 2251.6C1508.37 2251.5 1500.67 2253.42 1493.92 2257.15C1489.31 2259.74 1485.16 2263.01 1481.64 2266.83C1481.41 2266.28 1481.16 2265.74 1480.87 2265.22C1486.95 2258.89 1494.53 2253.91 1503.35 2251.55C1519.64 2247.19 1536.84 2252.31 1550.6 2260.77C1557.3 2264.99 1563.57 2269.8 1569.31 2275.15C1571.45 2277.1 1573.53 2279.12 1575.54 2281.19C1577.95 2283.68 1580.26 2286.25 1582.46 2288.92C1582.46 2288.92 1582.48 2288.92 1582.48 2288.93C1583.22 2289.82 1583.95 2290.73 1584.66 2291.64C1593.96 2303.56 1600.9 2317.23 1603.67 2331.85C1606.5 2346.8 1605.1 2362.56 1598.27 2376.41Z" fill="#E6E6E6"/>
<path d="M1587.34 2360.71C1580.88 2373.81 1570.02 2384.57 1557.82 2393.15C1544.61 2402.43 1529.73 2409.25 1514.91 2415.92C1514.23 2416.22 1513.55 2416.52 1512.87 2416.83C1512.76 2416.88 1512.65 2416.91 1512.52 2416.92C1512.4 2416.92 1512.28 2416.9 1512.17 2416.86C1512.01 2416.82 1511.87 2416.73 1511.76 2416.61C1511.66 2416.5 1511.59 2416.35 1511.57 2416.2C1511.56 2416.04 1511.59 2415.89 1511.66 2415.75C1511.74 2415.62 1511.86 2415.5 1512 2415.43C1512.57 2415.17 1513.15 2414.91 1513.72 2414.66C1514.71 2414.21 1515.69 2413.77 1516.68 2413.32C1518.81 2412.36 1520.95 2411.39 1523.08 2410.41C1537.77 2403.62 1552.34 2396.14 1564.64 2385.84C1576.03 2376.32 1585.3 2364.46 1589.53 2350.54C1593.94 2336.06 1593.1 2320.41 1588.36 2306.1C1586.48 2300.48 1584.04 2295.04 1581.07 2289.86C1579.38 2286.89 1577.52 2283.99 1575.54 2281.19C1572.53 2276.94 1569.23 2272.87 1565.66 2269.02C1560.62 2263.57 1555.14 2258.5 1549.27 2253.85C1543.15 2248.88 1536.39 2244.68 1529.14 2241.34C1521.69 2237.92 1513.56 2236.07 1505.28 2235.89C1497.45 2235.79 1489.75 2237.71 1482.99 2241.44C1477.08 2244.78 1471.94 2249.2 1467.86 2254.44C1462.99 2260.72 1459.24 2267.72 1456.76 2275.15C1454.56 2281.63 1452.91 2288.27 1451.83 2295C1450.54 2303.12 1449.89 2311.32 1449.89 2319.52C1449.83 2334.43 1451.87 2349.27 1455.94 2363.67C1460 2378.07 1466.09 2391.89 1474.05 2404.77C1474.08 2404.8 1474.09 2404.84 1474.11 2404.87C1474.18 2405.06 1474.18 2405.27 1474.1 2405.45C1474.02 2405.64 1473.87 2405.79 1473.68 2405.88C1473.49 2405.97 1473.27 2405.99 1473.06 2405.93C1472.86 2405.88 1472.68 2405.75 1472.57 2405.58C1470.59 2402.39 1468.72 2399.14 1466.97 2395.82C1452.61 2368.51 1446.28 2338.07 1448.65 2307.67C1449 2303.22 1449.55 2298.78 1450.28 2294.36C1450.8 2291.23 1451.42 2288.12 1452.15 2285.02C1453.84 2277.41 1456.52 2270.03 1460.14 2263.05C1461.85 2259.86 1463.84 2256.81 1466.1 2253.93C1472.69 2245.53 1481.63 2238.73 1492.43 2235.85C1508.72 2231.48 1525.92 2236.6 1539.68 2245.06C1546.38 2249.28 1552.65 2254.1 1558.39 2259.43C1563.98 2264.52 1569.11 2270.04 1573.73 2275.93C1576.96 2280.06 1579.88 2284.4 1582.46 2288.92C1582.46 2288.92 1582.48 2288.92 1582.48 2288.93C1584.03 2291.65 1585.45 2294.43 1586.73 2297.27C1589.47 2303.33 1591.49 2309.66 1592.74 2316.14C1595.58 2331.09 1594.18 2346.85 1587.34 2360.71Z" fill="#E6E6E6"/>
<path d="M1534.14 2366.36C1541.75 2366.32 1549.11 2363.79 1554.96 2359.2C1560.91 2354.49 1564.83 2347.88 1565.98 2340.63C1566.65 2336.53 1566.43 2332.35 1565.34 2328.33C1565.27 2328.13 1565.12 2327.96 1564.93 2327.86C1564.73 2327.76 1564.5 2327.73 1564.29 2327.79C1564.07 2327.85 1563.89 2327.98 1563.77 2328.16C1563.66 2328.34 1563.62 2328.56 1563.68 2328.76C1565.52 2335.58 1564.69 2342.8 1561.33 2349.09C1558.76 2353.8 1554.86 2357.74 1550.06 2360.5C1545.27 2363.26 1539.76 2364.73 1534.14 2364.74C1533.92 2364.74 1533.71 2364.83 1533.55 2364.98C1533.4 2365.14 1533.31 2365.34 1533.31 2365.55C1533.31 2365.76 1533.4 2365.96 1533.55 2366.11C1533.71 2366.27 1533.92 2366.35 1534.14 2366.36Z" fill="#E6E6E6"/>
<path d="M1469.37 2458.72L1463.82 2449.52C1463.7 2449.34 1463.51 2449.21 1463.29 2449.16C1463.08 2449.11 1462.85 2449.14 1462.65 2449.25C1462.46 2449.36 1462.32 2449.53 1462.26 2449.73C1462.2 2449.94 1462.22 2450.15 1462.33 2450.34L1467.88 2459.55C1468 2459.72 1468.19 2459.85 1468.41 2459.9C1468.63 2459.95 1468.85 2459.92 1469.05 2459.81C1469.24 2459.71 1469.38 2459.53 1469.44 2459.33C1469.5 2459.13 1469.48 2458.91 1469.37 2458.72Z" fill="#E6E6E6"/>
<path d="M1436.96 2270.9C1435.3 2269.8 1433.48 2268.64 1431.45 2268.69C1426.52 2268.8 1423.87 2275.6 1418.96 2275.36C1415.82 2275.21 1413.74 2272.21 1410.82 2271.12C1407.02 2269.7 1402.19 2272.47 1401.77 2276.3L1402.26 2275.88C1417.03 2279.27 1432.36 2279.94 1447.4 2277.85C1443.92 2275.53 1440.44 2273.22 1436.96 2270.9Z" fill="#E6E6E6"/>
<path d="M1416.62 2547.33C1419.37 2547.33 1421.59 2545.23 1421.59 2542.65C1421.59 2540.06 1419.37 2537.97 1416.62 2537.97C1413.88 2537.97 1411.66 2540.06 1411.66 2542.65C1411.66 2545.23 1413.88 2547.33 1416.62 2547.33Z" fill="white"/>
<path d="M1431.03 2547.33C1433.77 2547.33 1436 2545.23 1436 2542.65C1436 2540.06 1433.77 2537.97 1431.03 2537.97C1428.29 2537.97 1426.06 2540.06 1426.06 2542.65C1426.06 2545.23 1428.29 2547.33 1431.03 2547.33Z" fill="white"/>
<path d="M1445.44 2547.33C1448.18 2547.33 1450.41 2545.23 1450.41 2542.65C1450.41 2540.06 1448.18 2537.97 1445.44 2537.97C1442.69 2537.97 1440.47 2540.06 1440.47 2542.65C1440.47 2545.23 1442.69 2547.33 1445.44 2547.33Z" fill="white"/>
<path d="M1431.08 2546.39C1433.27 2546.39 1435.05 2544.72 1435.05 2542.65C1435.05 2540.58 1433.27 2538.9 1431.08 2538.9C1428.88 2538.9 1427.1 2540.58 1427.1 2542.65C1427.1 2544.72 1428.88 2546.39 1431.08 2546.39Z" fill="#3F3D56"/>
<path d="M1664.38 2544.29H1658.94L1656.35 2524.5H1664.38V2544.29Z" fill="#FFB6B6"/>
<path d="M1667.26 2553.18H1663.35L1662.66 2549.71L1660.87 2553.18H1650.51C1650.02 2553.18 1649.53 2553.03 1649.13 2552.75C1648.73 2552.48 1648.44 2552.09 1648.29 2551.64C1648.14 2551.19 1648.15 2550.71 1648.31 2550.27C1648.47 2549.83 1648.78 2549.45 1649.19 2549.18L1657.46 2543.8V2540.29L1666.16 2540.78L1667.26 2553.18Z" fill="#2F2E41"/>
<path d="M1633.08 2539.9L1627.96 2541.63L1618.44 2523.83L1626 2521.27L1633.08 2539.9Z" fill="#FFB6B6"/>
<path d="M1639.67 2544.93L1636.3 2546.79L1633.84 2544.12L1634.15 2547.96L1625.21 2552.88C1624.78 2553.12 1624.28 2553.22 1623.79 2553.17C1623.29 2553.12 1622.83 2552.92 1622.46 2552.61C1622.1 2552.29 1621.85 2551.87 1621.75 2551.41C1621.65 2550.95 1621.71 2550.48 1621.92 2550.06L1626.19 2541.48L1624.31 2538.45L1632.09 2534.74L1639.67 2544.93Z" fill="#2F2E41"/>
<path d="M1665.41 2532.2H1665.35L1664.19 2496.64C1664.94 2495.28 1665.32 2493.76 1665.3 2492.23C1665.28 2490.7 1664.85 2489.19 1664.06 2487.85L1663.9 2487.57L1664.33 2485.69C1664.88 2483.28 1664.62 2480.77 1663.6 2478.5L1662.52 2445.33C1666.38 2421.77 1648.29 2403.33 1648.29 2403.33H1619.36L1614.54 2425.55L1599.1 2481.15C1598.41 2482.13 1597.99 2483.25 1597.86 2484.42C1597.73 2485.58 1597.89 2486.76 1598.34 2487.86L1620.27 2528.72L1620.1 2528.8C1619.78 2528.97 1619.54 2529.25 1619.43 2529.58C1619.32 2529.91 1619.35 2530.27 1619.52 2530.58C1619.8 2531.36 1620.53 2531.83 1621.14 2531.64L1629.68 2527.56C1630 2527.39 1630.24 2527.12 1630.35 2526.79C1630.46 2526.46 1630.43 2526.1 1630.27 2525.79C1629.98 2525.01 1629.25 2524.53 1628.65 2524.73L1627.66 2525.2L1621.04 2494.48L1620.81 2488.21L1621.29 2481.1L1635.52 2450.66L1643.95 2489.99L1656.39 2532.6C1656.15 2532.8 1655.99 2533.06 1655.91 2533.36C1655.84 2533.65 1655.86 2533.96 1655.98 2534.24C1656.09 2534.52 1656.3 2534.77 1656.56 2534.94C1656.83 2535.11 1657.14 2535.2 1657.46 2535.2H1665.41C1665.84 2535.2 1666.24 2535.04 1666.54 2534.76C1666.84 2534.48 1667 2534.1 1667 2533.7C1667 2533.3 1666.84 2532.92 1666.54 2532.64C1666.24 2532.36 1665.84 2532.2 1665.41 2532.2Z" fill="#2F2E41"/>
<path d="M1651.53 2387.59L1650.76 2395.72C1650.76 2395.72 1650.42 2402.46 1649.36 2403.95C1648.31 2405.43 1619.67 2405.62 1619.67 2405.62C1619.67 2405.62 1617.78 2396.01 1616.14 2387.59H1651.53Z" fill="#FFB6B6"/>
<path d="M1637.18 2336.99C1645.31 2336.99 1651.9 2330.78 1651.9 2323.12C1651.9 2315.46 1645.31 2309.25 1637.18 2309.25C1629.05 2309.25 1622.46 2315.46 1622.46 2323.12C1622.46 2330.78 1629.05 2336.99 1637.18 2336.99Z" fill="#FFB6B6"/>
<path d="M1644.74 2339.64L1632.92 2340.95C1632.42 2341.01 1631.96 2341.21 1631.58 2341.52C1631.21 2341.84 1630.96 2342.26 1630.85 2342.72L1628.97 2350.82L1617.26 2363.81C1617.26 2363.81 1613.05 2371.24 1614.63 2379.66C1616.21 2388.08 1616.9 2394.34 1616.9 2394.34C1616.9 2394.34 1648.32 2405.43 1649.37 2403.95C1650.42 2402.46 1650.76 2395.71 1650.76 2395.71L1654.97 2351.64C1654.97 2351.64 1650.23 2344.21 1647.61 2344.21C1645.91 2344.15 1646.13 2340.56 1644.74 2339.64Z" fill="#C360FC"/>
<path opacity="0.2" d="M1639.52 2368.12L1634.26 2404.77L1628.75 2405.04L1639.52 2368.12Z" fill="black"/>
<path d="M1616.58 2397.05C1618.24 2397.05 1619.58 2395.53 1619.58 2393.66C1619.58 2391.78 1618.24 2390.26 1616.58 2390.26C1614.92 2390.26 1613.58 2391.78 1613.58 2393.66C1613.58 2395.53 1614.92 2397.05 1616.58 2397.05Z" fill="#C360FC"/>
<path d="M1637.13 2438.94C1637.76 2438.36 1638.24 2437.65 1638.54 2436.87C1638.85 2436.09 1638.96 2435.25 1638.89 2434.43C1638.81 2433.6 1638.55 2432.8 1638.1 2432.08C1637.66 2431.36 1637.06 2430.74 1636.34 2430.26L1646.19 2385.36L1635.56 2388.52L1627.64 2431.95C1626.87 2433.15 1626.59 2434.57 1626.86 2435.95C1627.13 2437.32 1627.92 2438.56 1629.09 2439.42C1630.26 2440.28 1631.73 2440.71 1633.21 2440.62C1634.69 2440.53 1636.09 2439.94 1637.13 2438.94Z" fill="#FFB6B6"/>
<path d="M1644.96 2345.41C1644.96 2345.41 1652.04 2342.53 1656.34 2349.8C1660.64 2357.06 1654.44 2382.33 1653.57 2386.43C1652.7 2390.53 1640.76 2410.07 1640.76 2410.07L1628.83 2407.82L1644.96 2345.41Z" fill="#C360FC"/>
<path d="M1630.49 2309.87C1635.59 2306.56 1640.09 2306.05 1643.78 2306.99C1644.26 2306.29 1644.93 2305.73 1645.72 2305.37C1648.6 2298.53 1657.36 2294.43 1664.88 2296.42C1672.45 2298.43 1677.67 2306.33 1676.25 2313.62C1675.37 2318.13 1672.35 2322.04 1671.14 2326.49C1668.79 2335.1 1674.52 2344.96 1683.48 2347.74C1674.99 2349.34 1665.65 2344.46 1662.61 2336.82C1661.13 2333.11 1661.04 2329.07 1660.85 2325.11C1660.66 2321.15 1660.32 2317.08 1658.42 2313.54C1657.15 2311.12 1655.03 2309.18 1652.42 2308.06C1652.65 2308.74 1652.71 2309.46 1652.59 2310.17C1652.47 2310.87 1652.17 2311.54 1651.72 2312.12C1653.71 2314.47 1654.79 2317.01 1654.79 2318.53C1658.93 2325.65 1653.01 2331.76 1645.46 2335.66C1642.44 2337.22 1638.96 2337.79 1635.56 2337.28L1635.25 2336.01L1634.82 2337.16L1633.39 2341C1631.74 2341.75 1630.11 2342.57 1628.48 2343.47C1629.1 2340.74 1629.6 2338.02 1629.94 2335.37C1630.42 2331.75 1628.76 2326.36 1627.57 2323.08C1626.83 2321.06 1626.45 2318.94 1626.44 2316.81V2316.71L1625.28 2320.23L1621.05 2318.53C1621.84 2314.27 1621.05 2309.45 1630.49 2309.87Z" fill="#2F2E41"/>
<path d="M1718 2554.11C1718 2554.34 1717.9 2554.57 1717.72 2554.74C1717.54 2554.91 1717.3 2555 1717.05 2555H1537.88C1537.63 2555 1537.39 2554.91 1537.21 2554.74C1537.03 2554.57 1536.93 2554.34 1536.93 2554.11C1536.93 2553.87 1537.03 2553.65 1537.21 2553.48C1537.39 2553.31 1537.63 2553.22 1537.88 2553.22H1717.05C1717.18 2553.22 1717.3 2553.24 1717.42 2553.28C1717.53 2553.33 1717.64 2553.39 1717.72 2553.48C1717.81 2553.56 1717.88 2553.66 1717.93 2553.77C1717.98 2553.88 1718 2553.99 1718 2554.11Z" fill="#CCCCCC"/>
</g>
<path d="M849 1822C993 1822 1158.5 1965 1206.5 2063.5" stroke="#C360FC" stroke-width="6" stroke-linecap="round"/>
<line x1="1206.92" y1="2063.08" x2="1205.08" y2="1996.08" stroke="#C360FC" stroke-width="6" stroke-linecap="round"/>
<line x1="1204.92" y1="2063.15" x2="1153.15" y2="2034.08" stroke="#C360FC" stroke-width="6" stroke-linecap="round"/>
<path d="M1217.09 2609.2C1155.37 2739.31 955.24 2827.55 845.673 2828.71" stroke="#C360FC" stroke-width="6" stroke-linecap="round"/>
<line x1="845.87" y1="2829.26" x2="907.193" y2="2856.32" stroke="#C360FC" stroke-width="6" stroke-linecap="round"/>
<line x1="846.671" y1="2827.42" x2="895.116" y2="2793.11" stroke="#C360FC" stroke-width="6" stroke-linecap="round"/>
<path d="M1389.8 1522.5C1447.05 1435.94 1598.61 1400.91 1941 1336L1921.92 2026.86C1893.93 2035.96 1827.6 2030.67 1786.16 1936.7C1734.37 1819.24 1525.56 1828 1568.08 1690.44C1610.61 1552.89 1332.55 1609.05 1389.8 1522.5Z" fill="url(#paint0_linear_0_1)"/>
<path d="M1435.5 1525.5C1488 1441.5 1627 1407.5 1941 1344.5L1923.5 2015C1897.83 2023.83 1837 2018.7 1799 1927.5C1751.5 1813.5 1560 1822 1599 1688.5C1638 1555 1383 1609.5 1435.5 1525.5Z" fill="url(#paint1_linear_0_1)"/>
<path d="M1474.53 2955.05C1530.75 3017.51 1687.75 3051.09 2043 3117.29L2052.05 2647.07C2023.17 2639.08 1953.6 2638.38 1906.33 2699.5C1847.25 2775.89 1629.29 2756.44 1667.98 2852.57C1706.67 2948.69 1418.31 2892.6 1474.53 2955.05Z" fill="url(#paint2_linear_0_1)"/>
<path d="M1522.44 2955.97C1573.8 3016.39 1717.71 3048.45 2043.36 3111.52L2053.21 2655.22C2026.75 2647.57 1962.93 2647.12 1919.37 2706.57C1864.92 2780.89 1665.06 2762.74 1700.23 2855.89C1735.4 2949.03 1471.07 2895.55 1522.44 2955.97Z" fill="url(#paint3_linear_0_1)"/>
<path d="M-95.7106 2144.57C-211.177 2193.27 -194.33 2312.59 -171.472 2366.16C-68.7635 2524.08 97.4155 2613.74 197.439 2529.39C297.462 2445.03 301.587 2381.21 302.02 2330.84C302.452 2280.47 155.685 2337.61 163.415 2236.8C171.145 2135.99 48.6227 2083.69 -95.7106 2144.57Z" fill="url(#paint4_linear_0_1)"/>
<path d="M-82.1368 2165.87C-185.19 2206.12 -167.718 2315.03 -146.101 2364.46C-50.5576 2511.36 100.833 2598.46 189.291 2525.31C277.749 2452.15 280.234 2394.34 279.653 2348.63C279.073 2302.91 147.993 2349.75 153.013 2258.49C158.033 2167.23 46.6795 2115.54 -82.1368 2165.87Z" fill="url(#paint5_linear_0_1)"/>
<path d="M283.304 1488.65C234.376 1551.06 160.415 1542.45 -5.71205 1526.31C-11.2117 1420.87 -18.9112 1217.85 -5.71205 1249.27C10.7869 1288.54 132.538 1356.86 185.448 1367.08C238.359 1377.3 332.232 1426.25 283.304 1488.65Z" fill="url(#paint6_linear_0_1)"/>
<path d="M254.5 1482C211.5 1540 146.5 1532 0.499992 1517C-4.33334 1419 -11.1 1230.3 0.499992 1259.5C15 1296 122 1359.5 168.5 1369C215 1378.5 297.5 1424 254.5 1482Z" fill="url(#paint7_linear_0_1)"/>
<path d="M488.065 2257.51C452.864 2239.29 441.526 2258.41 434.006 2261.6C417.269 2278.87 386.269 2318.63 396.161 2339.49C408.527 2365.56 487.08 2363.9 517.051 2353.39C547.022 2342.88 523.266 2275.73 488.065 2257.51Z" fill="url(#paint8_linear_0_1)"/>
<path d="M487.337 2249.09C449.818 2229.38 438.058 2249.46 430.136 2252.74C412.634 2270.8 380.319 2312.47 391.068 2334.66C404.504 2362.4 487.679 2361.62 519.285 2350.88C550.891 2340.14 524.856 2268.81 487.337 2249.09Z" fill="url(#paint9_linear_0_1)"/>
<path d="M1797.43 954.316C1916.72 949.443 1917.92 880.366 1932.86 860.195C1950.95 787.832 1972.91 632.817 1915.94 591.668C1844.73 540.232 1641.58 665.439 1578.76 739.874C1515.95 814.309 1678.15 959.189 1797.43 954.316Z" fill="url(#paint10_linear_0_1)"/>
<path d="M1811.88 975.934C1939.46 971.533 1940.33 899.206 1956.18 878.172C1975.1 802.503 1997.65 640.308 1936.47 596.883C1859.98 542.603 1643.4 672.517 1576.66 750.092C1509.91 827.668 1684.3 980.334 1811.88 975.934Z" fill="url(#paint11_linear_0_1)"/>
<path d="M2152.57 171.038C2194.77 68.4153 1837.28 14.2532 1653.25 0H-8V957.196C189.51 1072.25 613.868 1279.9 731.218 1190.05C877.906 1077.75 1361.32 1091.14 1402.51 986.561C1443.7 881.98 1342.54 863.949 1199.46 735.155C1056.39 606.361 1672.04 588.33 1702.39 395.655C1732.74 202.979 2099.82 299.317 2152.57 171.038Z" fill="url(#paint12_linear_0_1)"/>
<path d="M2048.74 165.958C2088.82 66.3831 1749.33 13.8298 1574.58 0H-3V928.764C184.562 1040.4 587.545 1241.88 698.984 1154.71C838.283 1045.73 1297.35 1058.73 1336.46 957.257C1375.58 855.783 1279.51 838.287 1143.64 713.319C1007.77 588.351 1592.42 570.855 1621.24 383.902C1650.06 196.95 1998.65 290.426 2048.74 165.958Z" fill="url(#paint13_linear_0_1)"/>
<path d="M1061.81 228.39C1091.68 193.428 1049.89 146.234 954.328 158.472C917.527 160.319 933.935 260.334 978.541 288.571C1023.15 316.807 1031.94 263.353 1061.81 228.39Z" fill="white" fill-opacity="0.47"/>
<path d="M1305.21 128.356C1305.11 107.251 1277.78 102.505 1249.62 134.506C1237.96 145.808 1271.99 176.727 1294.84 173.896C1317.69 171.065 1305.32 149.46 1305.21 128.356Z" fill="white" fill-opacity="0.47"/>
<g clip-path="url(#clip2_0_1)">
<path d="M1065.21 841.782C1056.12 868.422 1044.42 895.004 1029.44 920.305C1029.11 920.875 1028.77 921.433 1028.43 922.001L991.338 910.265C991.552 909.728 991.785 909.127 992.036 908.471C1007 869.774 1097.27 634.007 1093.21 587.522C1093.65 591.327 1107.77 717.25 1065.21 841.782Z" fill="#E6E6E6"/>
<path d="M1036.6 922.569C1036.09 923.085 1035.58 923.596 1035.05 924.096L1007.23 915.292C1007.6 914.837 1008.04 914.3 1008.55 913.694C1016.79 903.628 1041.29 873.491 1065.21 841.782C1090.93 807.706 1115.98 771.819 1119.49 757.073C1118.78 760.426 1096.83 862.502 1036.6 922.569Z" fill="#E6E6E6"/>
<path d="M1050.51 530.006C1050.5 530.006 1050.49 530.009 1050.48 530.01V470.353C1050.48 463.894 1047.91 457.7 1043.34 453.133C1038.78 448.566 1032.58 446 1026.13 446H839.373C832.914 446 826.721 448.566 822.154 453.133C817.588 457.7 815.022 463.894 815.022 470.353V500.936C814.507 500.947 814.016 501.159 813.655 501.528C813.294 501.896 813.092 502.391 813.091 502.907V518.055C813.092 518.571 813.294 519.066 813.655 519.434C814.016 519.803 814.507 520.015 815.022 520.026V535.895H814.923C814.664 535.895 814.407 535.946 814.167 536.045C813.928 536.145 813.71 536.29 813.526 536.474C813.343 536.657 813.198 536.875 813.098 537.115C812.999 537.354 812.948 537.611 812.948 537.871V567.163C812.948 567.423 812.999 567.68 813.098 567.919C813.198 568.159 813.343 568.377 813.526 568.56C813.71 568.744 813.928 568.889 814.167 568.988C814.407 569.088 814.664 569.139 814.923 569.139H815.022V580.773H814.991C814.732 580.773 814.475 580.824 814.235 580.923C813.996 581.022 813.778 581.168 813.595 581.351C813.411 581.535 813.266 581.753 813.166 581.992C813.067 582.232 813.016 582.489 813.016 582.748V612.328C813.016 612.587 813.067 612.844 813.166 613.084C813.266 613.323 813.411 613.541 813.595 613.724C813.778 613.908 813.996 614.053 814.235 614.153C814.475 614.252 814.732 614.303 814.991 614.303H815.022V900.223C815.022 906.681 817.588 912.876 822.154 917.443C826.721 922.01 832.914 924.576 839.373 924.576H1026.13C1032.58 924.576 1038.78 922.01 1043.34 917.443C1047.91 912.876 1050.48 906.681 1050.48 900.223V588.016C1050.49 588.016 1050.5 588.019 1050.51 588.019C1050.97 588.019 1051.43 587.928 1051.85 587.751C1052.28 587.575 1052.67 587.316 1052.99 586.989C1053.32 586.662 1053.58 586.275 1053.76 585.848C1053.93 585.421 1054.02 584.964 1054.02 584.502V533.524C1054.02 532.591 1053.65 531.696 1052.99 531.037C1052.33 530.377 1051.44 530.006 1050.51 530.006Z" fill="#3F3D56"/>
<path d="M1035.94 477.17V893.399C1035.94 898.358 1033.96 903.114 1030.46 906.62C1026.95 910.126 1022.19 912.095 1017.24 912.095H848.263C843.304 912.095 838.548 910.126 835.041 906.62C831.534 903.114 829.563 898.358 829.561 893.399V477.17C829.561 472.209 831.532 467.452 835.039 463.944C838.546 460.437 843.303 458.466 848.263 458.466H873.548V461.749C873.55 465.832 875.173 469.749 878.06 472.636C880.948 475.524 884.863 477.147 888.947 477.149H974.914C978.992 477.14 982.9 475.513 985.781 472.626C988.661 469.739 990.279 465.827 990.279 461.749V458.501H1017.24C1022.19 458.501 1026.94 460.466 1030.45 463.967C1033.95 467.467 1035.93 472.215 1035.94 477.17V477.17Z" fill="white"/>
<path d="M761.934 679.554C760.934 679.167 759.862 679.004 758.793 679.076C757.724 679.148 756.684 679.454 755.746 679.972C754.808 680.489 753.994 681.206 753.363 682.073C752.732 682.939 752.299 683.933 752.093 684.984L691.879 717.728L702.466 729.645L758.386 693.754C760.176 693.982 761.987 693.546 763.476 692.528C764.965 691.51 766.029 689.98 766.467 688.23C766.904 686.48 766.684 684.63 765.849 683.031C765.013 681.431 763.62 680.194 761.934 679.554H761.934Z" fill="#FFB8B8"/>
<path d="M746.577 915.146L754.08 910.293L738.931 879.039L727.857 886.202L746.577 915.146Z" fill="#FFB8B8"/>
<path d="M773.057 907.9L749.475 923.154L743.582 914.042L758.393 904.461C760.719 902.957 763.548 902.438 766.256 903.019C768.965 903.6 771.332 905.233 772.836 907.559L773.057 907.9L773.057 907.9Z" fill="#2F2E41"/>
<path d="M662.389 916.275H671.325L675.578 881.805H662.389V916.275Z" fill="#FFB8B8"/>
<path d="M688.559 924.574H660.474V913.722H678.114C679.485 913.722 680.844 913.992 682.111 914.517C683.378 915.042 684.53 915.811 685.5 916.781C686.47 917.751 687.239 918.903 687.764 920.17C688.289 921.438 688.559 922.796 688.559 924.168V924.574V924.574Z" fill="#2F2E41"/>
<path d="M867.406 513.547H848.985C848.532 513.547 848.099 513.367 847.779 513.047C847.459 512.727 847.279 512.293 847.279 511.841C847.279 511.388 847.459 510.955 847.779 510.635C848.099 510.315 848.532 510.135 848.985 510.135H867.406C867.859 510.135 868.293 510.315 868.612 510.635C868.932 510.955 869.112 511.388 869.112 511.841C869.112 512.293 868.932 512.727 868.612 513.047C868.293 513.367 867.859 513.547 867.406 513.547V513.547Z" fill="#3F3D56"/>
<path d="M867.406 518.323H848.985C848.532 518.323 848.099 518.143 847.779 517.823C847.459 517.504 847.279 517.07 847.279 516.617C847.279 516.165 847.459 515.731 847.779 515.411C848.099 515.091 848.532 514.911 848.985 514.911H867.406C867.859 514.911 868.293 515.091 868.612 515.411C868.932 515.731 869.112 516.165 869.112 516.617C869.112 517.07 868.932 517.504 868.612 517.823C868.293 518.143 867.859 518.323 867.406 518.323V518.323Z" fill="#3F3D56"/>
<path d="M867.406 523.1H848.985C848.532 523.1 848.099 522.92 847.779 522.6C847.459 522.28 847.279 521.846 847.279 521.394C847.279 520.941 847.459 520.507 847.779 520.187C848.099 519.868 848.532 519.688 848.985 519.688H867.406C867.859 519.688 868.293 519.868 868.612 520.187C868.932 520.507 869.112 520.941 869.112 521.394C869.112 521.846 868.932 522.28 868.612 522.6C868.293 522.92 867.859 523.1 867.406 523.1V523.1Z" fill="#3F3D56"/>
<path d="M1010.2 518.357H1009.58L1009.34 518.159C1010.13 517.224 1010.56 516.043 1010.56 514.823C1010.55 513.819 1010.25 512.839 1009.69 512.007C1009.12 511.175 1008.33 510.529 1007.4 510.149C1006.47 509.77 1005.45 509.675 1004.46 509.876C1003.48 510.078 1002.58 510.566 1001.87 511.28C1001.17 511.993 1000.69 512.901 1000.5 513.886C1000.31 514.872 1000.41 515.892 1000.8 516.818C1001.19 517.743 1001.84 518.533 1002.68 519.086C1003.52 519.64 1004.5 519.932 1005.51 519.927C1006.72 519.918 1007.9 519.489 1008.84 518.712L1009.07 518.91V519.538L1012.99 523.461L1014.16 522.287L1010.2 518.357ZM1005.51 518.357C1004.81 518.36 1004.12 518.155 1003.54 517.769C1002.96 517.383 1002.5 516.833 1002.23 516.188C1001.96 515.543 1001.89 514.833 1002.02 514.147C1002.16 513.46 1002.49 512.829 1002.98 512.333C1003.48 511.837 1004.11 511.498 1004.79 511.359C1005.48 511.22 1006.19 511.287 1006.83 511.552C1007.48 511.817 1008.03 512.268 1008.42 512.848C1008.82 513.427 1009.03 514.11 1009.03 514.809L1009.03 514.823C1009.03 515.284 1008.94 515.742 1008.77 516.169C1008.59 516.596 1008.34 516.985 1008.01 517.313C1007.69 517.642 1007.3 517.903 1006.88 518.082C1006.45 518.261 1006 518.354 1005.53 518.357C1005.53 518.357 1005.52 518.357 1005.51 518.357H1005.51Z" fill="#3F3D56"/>
<path d="M904.935 576.322H871.841C869.851 576.322 867.942 575.532 866.534 574.124C865.127 572.716 864.336 570.807 864.336 568.817C864.336 566.826 865.127 564.917 866.534 563.509C867.942 562.102 869.851 561.311 871.841 561.311H904.935C906.926 561.311 908.835 562.102 910.242 563.509C911.65 564.917 912.44 566.826 912.44 568.817C912.44 570.807 911.65 572.716 910.242 574.124C908.835 575.532 906.926 576.322 904.935 576.322V576.322Z" fill="#C360FC"/>
<path d="M1006.25 592.699H868.43C867.344 592.699 866.303 592.267 865.535 591.499C864.767 590.732 864.336 589.69 864.336 588.605C864.336 587.519 864.767 586.477 865.535 585.71C866.303 584.942 867.344 584.51 868.43 584.51H1006.25C1007.34 584.51 1008.38 584.942 1009.14 585.71C1009.91 586.477 1010.34 587.519 1010.34 588.605C1010.34 589.69 1009.91 590.732 1009.14 591.499C1008.38 592.267 1007.34 592.699 1006.25 592.699Z" fill="#E6E6E6"/>
<path d="M919.055 609.075H868.43C867.344 609.075 866.303 608.643 865.535 607.876C864.767 607.108 864.336 606.067 864.336 604.981C864.336 603.895 864.767 602.854 865.535 602.086C866.303 601.318 867.344 600.887 868.43 600.887H919.055C920.141 600.887 921.182 601.318 921.95 602.086C922.717 602.854 923.149 603.895 923.149 604.981C923.149 606.067 922.717 607.108 921.95 607.876C921.182 608.643 920.141 609.075 919.055 609.075Z" fill="#E6E6E6"/>
<path d="M904.935 757.826H871.841C869.851 757.826 867.942 757.035 866.534 755.627C865.127 754.22 864.336 752.311 864.336 750.32C864.336 748.329 865.127 746.42 866.534 745.013C867.942 743.605 869.851 742.814 871.841 742.814H904.935C906.926 742.814 908.835 743.605 910.242 745.013C911.65 746.42 912.44 748.329 912.44 750.32C912.44 752.311 911.65 754.22 910.242 755.627C908.835 757.035 906.926 757.826 904.935 757.826V757.826Z" fill="#C360FC"/>
<path d="M1006.25 774.202H868.43C867.344 774.202 866.303 773.771 865.535 773.003C864.767 772.235 864.336 771.194 864.336 770.108C864.336 769.022 864.767 767.981 865.535 767.213C866.303 766.445 867.344 766.014 868.43 766.014H1006.25C1007.34 766.014 1008.38 766.445 1009.14 767.213C1009.91 767.981 1010.34 769.022 1010.34 770.108C1010.34 771.194 1009.91 772.235 1009.14 773.003C1008.38 773.771 1007.34 774.202 1006.25 774.202V774.202Z" fill="#E6E6E6"/>
<path d="M919.055 790.578H868.43C867.344 790.578 866.303 790.147 865.535 789.379C864.767 788.611 864.336 787.57 864.336 786.484C864.336 785.398 864.767 784.357 865.535 783.589C866.303 782.821 867.344 782.39 868.43 782.39H919.055C920.141 782.39 921.182 782.821 921.95 783.589C922.717 784.357 923.149 785.398 923.149 786.484C923.149 787.57 922.717 788.611 921.95 789.379C921.182 790.147 920.141 790.578 919.055 790.578V790.578Z" fill="#E6E6E6"/>
<path d="M904.935 841.754H871.841C869.851 841.754 867.942 840.963 866.534 839.556C865.127 838.148 864.336 836.239 864.336 834.248C864.336 832.258 865.127 830.348 866.534 828.941C867.942 827.533 869.851 826.742 871.841 826.742H904.935C906.926 826.742 908.835 827.533 910.242 828.941C911.65 830.348 912.44 832.258 912.44 834.248C912.44 836.239 911.65 838.148 910.242 839.556C908.835 840.963 906.926 841.754 904.935 841.754V841.754Z" fill="#C360FC"/>
<path d="M1006.25 858.13H868.43C867.344 858.13 866.303 857.699 865.535 856.931C864.767 856.163 864.336 855.122 864.336 854.036C864.336 852.95 864.767 851.909 865.535 851.141C866.303 850.374 867.344 849.942 868.43 849.942H1006.25C1007.34 849.942 1008.38 850.374 1009.14 851.141C1009.91 851.909 1010.34 852.95 1010.34 854.036C1010.34 855.122 1009.91 856.163 1009.14 856.931C1008.38 857.699 1007.34 858.13 1006.25 858.13V858.13Z" fill="#E6E6E6"/>
<path d="M919.055 874.507H868.43C867.344 874.507 866.303 874.075 865.535 873.307C864.767 872.54 864.336 871.498 864.336 870.413C864.336 869.327 864.767 868.285 865.535 867.518C866.303 866.75 867.344 866.318 868.43 866.318H919.055C920.141 866.318 921.182 866.75 921.95 867.518C922.717 868.285 923.149 869.327 923.149 870.413C923.149 871.498 922.717 872.54 921.95 873.307C921.182 874.075 920.141 874.507 919.055 874.507V874.507Z" fill="#E6E6E6"/>
<path d="M1025.69 715.179H762.335C760.798 715.178 759.324 714.566 758.237 713.479C757.149 712.391 756.538 710.917 756.536 709.379V637.733C756.538 636.196 757.149 634.721 758.237 633.634C759.324 632.547 760.798 631.935 762.335 631.933H1025.69C1027.23 631.935 1028.71 632.547 1029.79 633.634C1030.88 634.721 1031.49 636.196 1031.49 637.733V709.379C1031.49 710.917 1030.88 712.391 1029.79 713.478C1028.71 714.566 1027.23 715.177 1025.69 715.179V715.179Z" fill="#C360FC"/>
<path d="M667.657 800.418C670.174 818.084 656.843 896.348 658.323 896.342L677.468 896.239C678.15 894.929 686.938 852.699 689.694 845.923C693.542 836.52 697.425 827.002 698.939 816.958C700.365 807.528 699.662 797.92 698.735 788.429C698.778 788.147 698.753 787.858 698.663 787.587C698.572 787.316 698.419 787.07 698.215 786.871C698.011 786.671 697.762 786.522 697.49 786.437C697.217 786.352 696.928 786.333 696.647 786.382L670.959 785.058C665.664 784.785 664.409 783.625 665.214 788.825C665.774 792.707 667.097 796.487 667.657 800.418Z" fill="#2F2E41"/>
<path d="M672.706 757.464C667.486 764.97 662.014 773.608 663.747 782.595C665.064 789.418 670.263 794.707 675.169 799.654C694.777 819.346 733.442 906.236 733.442 906.236C752.101 894.295 732.997 906.577 751.932 893.953C750.253 893.824 712.121 756.734 708.962 756.55C696.183 755.704 685.157 754.455 672.706 757.464Z" fill="#2F2E41"/>
<path d="M693.35 686.023C690.699 683.659 672.068 676.367 672.068 676.367C671.726 676.322 671.378 676.332 671.039 676.398C669.979 676.666 669.495 677.983 669.722 679.049C669.948 680.114 668.09 697.625 667.611 705.588C666.772 719.486 674.956 750.966 674.884 751.929C674.603 755.362 673.1 758.58 670.648 760.998C671.285 761.79 711.766 763.376 714.519 764.313C715.075 763.608 711.385 713.674 711.215 710.854C710.932 706.571 696.85 689.266 693.35 686.023Z" fill="#E6E6E6"/>
<path d="M664.478 794.371C665.437 793.894 666.28 793.212 666.948 792.373C667.615 791.535 668.09 790.56 668.34 789.518C668.59 788.476 668.608 787.392 668.394 786.342C668.18 785.292 667.738 784.302 667.099 783.441L684.179 688.909L668.241 688.699L656.38 782.179C655.005 783.347 654.107 784.979 653.855 786.766C653.604 788.553 654.016 790.369 655.014 791.872C656.012 793.375 657.527 794.46 659.271 794.92C661.016 795.381 662.868 795.185 664.478 794.371H664.478Z" fill="#FFB8B8"/>
<path d="M664.341 695.924C663.676 695.972 663.014 695.799 662.458 695.432C661.509 694.62 669.246 682.195 670.775 682.011C675.749 681.437 680.866 681.246 685.689 682.591C690.513 683.935 695.05 686.992 697.206 691.516C698.107 693.399 691.577 702.877 688.61 701.485C685.055 699.82 669.021 696.04 664.341 695.924Z" fill="#E6E6E6"/>
<path d="M681.896 675.349C691.783 675.349 699.798 667.333 699.798 657.445C699.798 647.557 691.783 639.541 681.896 639.541C672.009 639.541 663.994 647.557 663.994 657.445C663.994 667.333 672.009 675.349 681.896 675.349Z" fill="#FFB8B8"/>
<path d="M664.312 687.047C666.8 687.308 669.313 686.94 671.622 685.978C673.931 685.016 675.962 683.49 677.529 681.54C679.096 679.59 680.149 677.278 680.592 674.816C681.034 672.354 680.853 669.82 680.063 667.447C679.351 665.304 678.16 663.341 677.507 661.18C676.855 659.019 676.837 656.463 678.284 654.731C681.116 651.341 686.573 653.473 690.937 652.799C695.588 652.081 699.156 647.619 699.528 642.927C699.901 638.235 697.455 633.593 693.815 630.61C690.175 627.627 685.481 626.158 680.798 625.698C674.783 625.107 668.717 626.074 663.185 628.507C657.653 630.94 652.84 634.757 649.21 639.59C645.58 644.422 643.256 650.108 642.46 656.1C641.664 662.091 642.425 668.187 644.668 673.799C646.624 678.696 649.82 683.256 654.36 685.937C658.9 688.619 664.895 689.134 669.42 686.427" fill="#2F2E41"/>
<path d="M855.997 664.686H810.247C807.342 664.686 804.978 661.319 804.978 657.18C804.978 653.041 807.342 649.674 810.247 649.674H855.997C858.902 649.674 861.266 653.041 861.266 657.18C861.266 661.319 858.902 664.686 855.997 664.686Z" fill="white"/>
<path d="M978.959 681.062H809.071C807.986 681.062 806.945 680.631 806.177 679.863C805.409 679.095 804.978 678.054 804.978 676.968C804.978 675.882 805.409 674.841 806.177 674.073C806.945 673.305 807.986 672.874 809.071 672.874H978.959C980.045 672.874 981.086 673.305 981.853 674.073C982.621 674.841 983.053 675.882 983.053 676.968C983.053 678.054 982.621 679.095 981.853 679.863C981.086 680.631 980.045 681.062 978.959 681.062V681.062Z" fill="#E6E6E6"/>
<path d="M891.764 697.438H809.071C807.986 697.438 806.945 697.007 806.177 696.239C805.409 695.471 804.978 694.43 804.978 693.344C804.978 692.258 805.409 691.217 806.177 690.449C806.945 689.682 807.986 689.25 809.071 689.25H891.764C892.849 689.25 893.891 689.682 894.658 690.449C895.426 691.217 895.857 692.258 895.857 693.344C895.857 694.43 895.426 695.471 894.658 696.239C893.891 697.007 892.849 697.438 891.764 697.438V697.438Z" fill="#E6E6E6"/>
<path d="M1141 923.635H602V925H1141V923.635Z" fill="#3F3D56"/>
</g>
<path d="M116.033 3679.09C-34.5692 3663.75 -74.7104 3640.09 -311.074 3954.97L-390.753 4036.59L2135.46 4049.17C2146.45 3856.18 2155.93 3463.79 2105.93 3438.21C2043.44 3406.23 1863.49 3412.84 1665.9 3500C1468.31 3587.15 1323.43 3312.17 1131.95 3303.6C940.459 3295.03 813.882 3654.71 705.808 3693.52C597.733 3732.34 677.837 3479.71 553.744 3430.67C429.651 3381.64 266.635 3694.44 116.033 3679.09Z" fill="url(#paint14_linear_0_1)"/>
<path d="M141.355 3701.84C-2.83207 3689.3 -41.3518 3670.84 -266.12 3913.11L-342 3975.82L2075.51 3996.94C2085.16 3847.84 2092.46 3544.65 2044.5 3524.66C1984.56 3499.67 1812.38 3503.96 1623.69 3570.42C1435 3636.88 1295.12 3423.73 1111.84 3416.24C928.556 3408.75 809.051 3686.14 705.804 3715.65C602.557 3745.16 678.073 3550.29 559.102 3511.84C440.131 3473.39 285.543 3714.37 141.355 3701.84Z" fill="url(#paint15_linear_0_1)"/>
<defs>
<linearGradient id="paint0_linear_0_1" x1="1460.68" y1="1437.49" x2="1838.36" y2="2049.55" gradientUnits="userSpaceOnUse">
<stop stop-color="#9F58F9" stop-opacity="0.44"/>
<stop offset="1" stop-color="#DB00FF" stop-opacity="0.11"/>
</linearGradient>
<linearGradient id="paint1_linear_0_1" x1="1500.5" y1="1443" x2="1876" y2="2018" gradientUnits="userSpaceOnUse">
<stop stop-color="#9F58F9"/>
<stop offset="1" stop-color="#DB00FF" stop-opacity="0.25"/>
</linearGradient>
<linearGradient id="paint2_linear_0_1" x1="1545.07" y1="3017.34" x2="1773.7" y2="2535.24" gradientUnits="userSpaceOnUse">
<stop stop-color="#9F58F9" stop-opacity="0.44"/>
<stop offset="1" stop-color="#DB00FF" stop-opacity="0.11"/>
</linearGradient>
<linearGradient id="paint3_linear_0_1" x1="1586.94" y1="3016.18" x2="1816.23" y2="2556.59" gradientUnits="userSpaceOnUse">
<stop stop-color="#9F58F9"/>
<stop offset="1" stop-color="#DB00FF" stop-opacity="0.25"/>
</linearGradient>
<linearGradient id="paint4_linear_0_1" x1="47.8021" y1="2112.2" x2="121.026" y2="2518.45" gradientUnits="userSpaceOnUse">
<stop stop-color="#9B51F9" stop-opacity="0.33"/>
<stop offset="1" stop-color="#DB00FF" stop-opacity="0.18"/>
</linearGradient>
<linearGradient id="paint5_linear_0_1" x1="46.4896" y1="2141.4" x2="100.442" y2="2515.61" gradientUnits="userSpaceOnUse">
<stop stop-color="#9B51F9"/>
<stop offset="1" stop-color="#DB00FF" stop-opacity="0.25"/>
</linearGradient>
<linearGradient id="paint6_linear_0_1" x1="142" y1="1246" x2="142" y2="1538" gradientUnits="userSpaceOnUse">
<stop stop-color="#9B51F9" stop-opacity="0.27"/>
<stop offset="1" stop-color="#DB00FF" stop-opacity="0.11"/>
</linearGradient>
<linearGradient id="paint7_linear_0_1" x1="130.316" y1="1256.47" x2="130.316" y2="1527.86" gradientUnits="userSpaceOnUse">
<stop stop-color="#9B51F9"/>
<stop offset="1" stop-color="#DB00FF" stop-opacity="0.25"/>
</linearGradient>
<linearGradient id="paint8_linear_0_1" x1="450.221" y1="2246.34" x2="501.413" y2="2372.57" gradientUnits="userSpaceOnUse">
<stop offset="0.148014" stop-color="#9B51F9"/>
<stop offset="1" stop-color="#DB00FF" stop-opacity="0.25"/>
</linearGradient>
<linearGradient id="paint9_linear_0_1" x1="447.111" y1="2236.81" x2="500.518" y2="2371.94" gradientUnits="userSpaceOnUse">
<stop offset="0.148014" stop-color="#9B51F9" stop-opacity="0.3"/>
<stop offset="1" stop-color="#DB00FF" stop-opacity="0.14"/>
</linearGradient>
<linearGradient id="paint10_linear_0_1" x1="1913.13" y1="926.323" x2="1583.46" y2="674.089" gradientUnits="userSpaceOnUse">
<stop offset="0.148014" stop-color="#9B51F9"/>
<stop offset="1" stop-color="#DB00FF" stop-opacity="0.25"/>
</linearGradient>
<linearGradient id="paint11_linear_0_1" x1="1935.48" y1="947.302" x2="1586.1" y2="675.056" gradientUnits="userSpaceOnUse">
<stop offset="0.148014" stop-color="#9B51F9" stop-opacity="0.3"/>
<stop offset="1" stop-color="#DB00FF" stop-opacity="0.14"/>
</linearGradient>
<linearGradient id="paint12_linear_0_1" x1="-8.00002" y1="13.3946" x2="634.506" y2="1413.66" gradientUnits="userSpaceOnUse">
<stop stop-color="#9B51F9" stop-opacity="0.43"/>
<stop offset="1" stop-color="#DB00FF" stop-opacity="0.08"/>
</linearGradient>
<linearGradient id="paint13_linear_0_1" x1="-3.00002" y1="12.9967" x2="629.152" y2="1361.35" gradientUnits="userSpaceOnUse">
<stop stop-color="#9B51F9" stop-opacity="0.93"/>
<stop offset="1" stop-color="#DB00FF" stop-opacity="0.25"/>
</linearGradient>
<linearGradient id="paint14_linear_0_1" x1="794.722" y1="3234.45" x2="2114.38" y2="4058.57" gradientUnits="userSpaceOnUse">
<stop stop-color="#9B51F9" stop-opacity="0.23"/>
<stop offset="1" stop-color="#DB00FF" stop-opacity="0.07"/>
</linearGradient>
<linearGradient id="paint15_linear_0_1" x1="788.82" y1="3361.29" x2="1894.49" y2="4212.97" gradientUnits="userSpaceOnUse">
<stop stop-color="#9B51F9"/>
<stop offset="1" stop-color="#DB00FF" stop-opacity="0.11"/>
</linearGradient>
<clipPath id="clip0_0_1">
<rect width="549" height="413" fill="white" transform="translate(195 2679)"/>
</clipPath>
<clipPath id="clip1_0_1">
<rect width="487" height="350" fill="white" transform="translate(1231 2205)"/>
</clipPath>
<clipPath id="clip2_0_1">
<rect width="539" height="479" fill="white" transform="translate(602 446)"/>
</clipPath>
</defs>
</svg>
