<svg width="1920" height="3118" viewBox="0 0 1920 3118" fill="none" xmlns="http://www.w3.org/2000/svg">
<path d="M1389.8 1522.5C1447.05 1435.94 1598.61 1400.91 1941 1336L1921.92 2026.86C1893.93 2035.96 1827.6 2030.67 1786.16 1936.7C1734.37 1819.24 1525.56 1828 1568.08 1690.44C1610.61 1552.89 1332.55 1609.05 1389.8 1522.5Z" fill="url(#paint0_linear_0_1)"/>
<path d="M1435.5 1525.5C1488 1441.5 1627 1407.5 1941 1344.5L1923.5 2015C1897.83 2023.83 1837 2018.7 1799 1927.5C1751.5 1813.5 1560 1822 1599 1688.5C1638 1555 1383 1609.5 1435.5 1525.5Z" fill="url(#paint1_linear_0_1)"/>
<path d="M1474.53 2955.05C1530.75 3017.51 1687.75 3051.09 2043 3117.29L2052.05 2647.07C2023.17 2639.08 1953.6 2638.38 1906.33 2699.5C1847.25 2775.89 1629.29 2756.44 1667.98 2852.57C1706.67 2948.69 1418.31 2892.6 1474.53 2955.05Z" fill="url(#paint2_linear_0_1)"/>
<path d="M1522.44 2955.97C1573.8 3016.39 1717.71 3048.45 2043.36 3111.52L2053.21 2655.22C2026.75 2647.57 1962.93 2647.12 1919.37 2706.57C1864.92 2780.89 1665.06 2762.74 1700.23 2855.89C1735.4 2949.03 1471.07 2895.55 1522.44 2955.97Z" fill="url(#paint3_linear_0_1)"/>
<path d="M-95.7106 2144.57C-211.177 2193.27 -194.33 2312.59 -171.472 2366.16C-68.7635 2524.08 97.4155 2613.74 197.439 2529.39C297.462 2445.03 301.587 2381.21 302.02 2330.84C302.452 2280.47 155.685 2337.61 163.415 2236.8C171.145 2135.99 48.6227 2083.69 -95.7106 2144.57Z" fill="url(#paint4_linear_0_1)"/>
<path d="M-82.1368 2165.87C-185.19 2206.12 -167.718 2315.03 -146.101 2364.46C-50.5576 2511.36 100.833 2598.46 189.291 2525.31C277.749 2452.15 280.234 2394.34 279.653 2348.63C279.073 2302.91 147.993 2349.75 153.013 2258.49C158.033 2167.23 46.6795 2115.54 -82.1368 2165.87Z" fill="url(#paint5_linear_0_1)"/>
<path d="M283.304 1488.65C234.376 1551.06 160.415 1542.45 -5.71205 1526.31C-11.2117 1420.87 -18.9112 1217.85 -5.71205 1249.27C10.7869 1288.54 132.538 1356.86 185.448 1367.08C238.359 1377.3 332.232 1426.25 283.304 1488.65Z" fill="url(#paint6_linear_0_1)"/>
<path d="M254.5 1482C211.5 1540 146.5 1532 0.499992 1517C-4.33334 1419 -11.1 1230.3 0.499992 1259.5C15 1296 122 1359.5 168.5 1369C215 1378.5 297.5 1424 254.5 1482Z" fill="url(#paint7_linear_0_1)"/>
<path d="M488.065 2257.51C452.864 2239.29 441.526 2258.41 434.006 2261.6C417.269 2278.87 386.269 2318.63 396.161 2339.49C408.527 2365.56 487.08 2363.9 517.051 2353.39C547.022 2342.88 523.266 2275.73 488.065 2257.51Z" fill="url(#paint8_linear_0_1)"/>
<path d="M487.337 2249.09C449.818 2229.38 438.058 2249.46 430.136 2252.74C412.634 2270.8 380.319 2312.47 391.068 2334.66C404.504 2362.4 487.679 2361.62 519.285 2350.88C550.891 2340.14 524.856 2268.81 487.337 2249.09Z" fill="url(#paint9_linear_0_1)"/>
<path d="M1797.43 954.316C1916.72 949.443 1917.92 880.366 1932.86 860.195C1950.95 787.832 1972.91 632.817 1915.94 591.668C1844.73 540.232 1641.58 665.439 1578.76 739.874C1515.95 814.309 1678.15 959.189 1797.43 954.316Z" fill="url(#paint10_linear_0_1)"/>
<path d="M1811.88 975.934C1939.46 971.533 1940.33 899.206 1956.18 878.172C1975.1 802.503 1997.65 640.308 1936.47 596.883C1859.98 542.603 1643.4 672.517 1576.66 750.092C1509.91 827.668 1684.3 980.334 1811.88 975.934Z" fill="url(#paint11_linear_0_1)"/>
<path d="M2152.57 171.038C2194.77 68.4153 1837.28 14.2532 1653.25 0H-8V957.196C189.51 1072.25 613.868 1279.9 731.218 1190.05C877.906 1077.75 1361.32 1091.14 1402.51 986.561C1443.7 881.98 1342.54 863.949 1199.46 735.155C1056.39 606.361 1672.04 588.33 1702.39 395.655C1732.74 202.979 2099.82 299.317 2152.57 171.038Z" fill="url(#paint12_linear_0_1)"/>
<path d="M2048.74 165.958C2088.82 66.3831 1749.33 13.8298 1574.58 0H-3V928.764C184.562 1040.4 587.545 1241.88 698.984 1154.71C838.283 1045.73 1297.35 1058.73 1336.46 957.257C1375.58 855.783 1279.51 838.287 1143.64 713.319C1007.77 588.351 1592.42 570.855 1621.24 383.902C1650.06 196.95 1998.65 290.426 2048.74 165.958Z" fill="url(#paint13_linear_0_1)"/>
<path d="M1061.81 228.39C1091.68 193.428 1049.89 146.234 954.328 158.472C917.527 160.319 933.935 260.334 978.541 288.571C1023.15 316.807 1031.94 263.353 1061.81 228.39Z" fill="white" fill-opacity="0.47"/>
<path d="M1305.21 128.356C1305.11 107.251 1277.78 102.505 1249.62 134.506C1237.96 145.808 1271.99 176.727 1294.84 173.896C1317.69 171.065 1305.32 149.46 1305.21 128.356Z" fill="white" fill-opacity="0.47"/>
<defs>
<linearGradient id="paint0_linear_0_1" x1="1460.68" y1="1437.49" x2="1838.36" y2="2049.55" gradientUnits="userSpaceOnUse">
<stop stop-color="#9F58F9" stop-opacity="0.44"/>
<stop offset="1" stop-color="#DB00FF" stop-opacity="0.11"/>
</linearGradient>
<linearGradient id="paint1_linear_0_1" x1="1500.5" y1="1443" x2="1876" y2="2018" gradientUnits="userSpaceOnUse">
<stop stop-color="#9F58F9"/>
<stop offset="1" stop-color="#DB00FF" stop-opacity="0.25"/>
</linearGradient>
<linearGradient id="paint2_linear_0_1" x1="1545.07" y1="3017.34" x2="1773.7" y2="2535.24" gradientUnits="userSpaceOnUse">
<stop stop-color="#9F58F9" stop-opacity="0.44"/>
<stop offset="1" stop-color="#DB00FF" stop-opacity="0.11"/>
</linearGradient>
<linearGradient id="paint3_linear_0_1" x1="1586.94" y1="3016.18" x2="1816.23" y2="2556.59" gradientUnits="userSpaceOnUse">
<stop stop-color="#9F58F9"/>
<stop offset="1" stop-color="#DB00FF" stop-opacity="0.25"/>
</linearGradient>
<linearGradient id="paint4_linear_0_1" x1="47.8021" y1="2112.2" x2="121.026" y2="2518.45" gradientUnits="userSpaceOnUse">
<stop stop-color="#9B51F9" stop-opacity="0.33"/>
<stop offset="1" stop-color="#DB00FF" stop-opacity="0.18"/>
</linearGradient>
<linearGradient id="paint5_linear_0_1" x1="46.4896" y1="2141.4" x2="100.442" y2="2515.61" gradientUnits="userSpaceOnUse">
<stop stop-color="#9B51F9"/>
<stop offset="1" stop-color="#DB00FF" stop-opacity="0.25"/>
</linearGradient>
<linearGradient id="paint6_linear_0_1" x1="142" y1="1246" x2="142" y2="1538" gradientUnits="userSpaceOnUse">
<stop stop-color="#9B51F9" stop-opacity="0.27"/>
<stop offset="1" stop-color="#DB00FF" stop-opacity="0.11"/>
</linearGradient>
<linearGradient id="paint7_linear_0_1" x1="130.316" y1="1256.47" x2="130.316" y2="1527.86" gradientUnits="userSpaceOnUse">
<stop stop-color="#9B51F9"/>
<stop offset="1" stop-color="#DB00FF" stop-opacity="0.25"/>
</linearGradient>
<linearGradient id="paint8_linear_0_1" x1="450.221" y1="2246.34" x2="501.413" y2="2372.57" gradientUnits="userSpaceOnUse">
<stop offset="0.148014" stop-color="#9B51F9"/>
<stop offset="1" stop-color="#DB00FF" stop-opacity="0.25"/>
</linearGradient>
<linearGradient id="paint9_linear_0_1" x1="447.111" y1="2236.81" x2="500.518" y2="2371.94" gradientUnits="userSpaceOnUse">
<stop offset="0.148014" stop-color="#9B51F9" stop-opacity="0.3"/>
<stop offset="1" stop-color="#DB00FF" stop-opacity="0.14"/>
</linearGradient>
<linearGradient id="paint10_linear_0_1" x1="1913.13" y1="926.323" x2="1583.46" y2="674.089" gradientUnits="userSpaceOnUse">
<stop offset="0.148014" stop-color="#9B51F9"/>
<stop offset="1" stop-color="#DB00FF" stop-opacity="0.25"/>
</linearGradient>
<linearGradient id="paint11_linear_0_1" x1="1935.48" y1="947.302" x2="1586.1" y2="675.056" gradientUnits="userSpaceOnUse">
<stop offset="0.148014" stop-color="#9B51F9" stop-opacity="0.3"/>
<stop offset="1" stop-color="#DB00FF" stop-opacity="0.14"/>
</linearGradient>
<linearGradient id="paint12_linear_0_1" x1="-8.00002" y1="13.3946" x2="634.506" y2="1413.66" gradientUnits="userSpaceOnUse">
<stop stop-color="#9B51F9" stop-opacity="0.43"/>
<stop offset="1" stop-color="#DB00FF" stop-opacity="0.08"/>
</linearGradient>
<linearGradient id="paint13_linear_0_1" x1="-3.00002" y1="12.9967" x2="629.152" y2="1361.35" gradientUnits="userSpaceOnUse">
<stop stop-color="#9B51F9" stop-opacity="0.93"/>
<stop offset="1" stop-color="#DB00FF" stop-opacity="0.25"/>
</linearGradient>
</defs>
</svg>
