<!-- Generated by IcoMoon.io -->
<svg version="1.1" xmlns="http://www.w3.org/2000/svg" width="1024" height="1024" viewBox="0 0 1024 1024">
<title></title>
<g id="icomoon-ignore">
</g>
<path fill="#FFFFFF" d="M458.667 682.667c0-123.712 100.288-224 224-224s224 100.288 224 224c0 123.712-100.288 224-224 224s-224-100.288-224-224zM682.667 394.667c-159.057 0-288 128.943-288 288s128.943 288 288 288c159.057 0 288-128.943 288-288s-128.943-288-288-288zM682.667 523.14c17.673 0 32 14.327 32 32v127.526l69.5 69.5c12.497 12.497 12.497 32.759 0 45.257s-32.759 12.497-45.257 0l-78.869-78.874c-6.003-6.003-9.374-14.14-9.374-22.626v-140.783c0-17.673 14.327-32 32-32z"></path>
<path fill="#FFFFFF" d="M746.667 74.667c0-17.673-14.327-32-32-32s-32 14.327-32 32v21.333h-320v-21.333c0-17.673-14.327-32-32-32s-32 14.327-32 32v21.333h-85.333c-64.801 0-117.333 52.532-117.333 117.333v597.333c0 64.802 52.532 117.333 117.333 117.333h170.667c17.673 0 32-14.327 32-32s-14.327-32-32-32h-170.667c-29.455 0-53.333-23.876-53.333-53.333v-480h704v53.333c0 17.673 14.327 32 32 32s32-14.327 32-32v-170.667c0-64.801-52.531-117.333-117.333-117.333h-64v-21.333zM298.667 160v21.333c0 17.673 14.327 32 32 32s32-14.327 32-32v-21.333h320v21.333c0 17.673 14.327 32 32 32s32-14.327 32-32v-21.333h64c29.457 0 53.333 23.878 53.333 53.333v53.333h-704v-53.333c0-29.455 23.878-53.333 53.333-53.333h85.333z"></path>
</svg>
