<!-- Generated by IcoMoon.io -->
<svg version="1.1" xmlns="http://www.w3.org/2000/svg" width="1024" height="1024" viewBox="0 0 1024 1024">
<title></title>
<g id="icomoon-ignore">
</g>
<path fill="#9DF856" d="M160 512c0-194.404 157.596-352 352-352 194.402 0 352 157.596 352 352 0 194.402-157.598 352-352 352-194.404 0-352-157.598-352-352zM512 96c-229.751 0-416 186.249-416 416s186.249 416 416 416c229.751 0 416-186.249 416-416s-186.249-416-416-416zM707.221 405.441c11.482-13.436 9.899-33.635-3.537-45.116s-33.634-9.898-45.116 3.538l-194.266 227.327-99.697-107.874c-11.995-12.979-32.241-13.777-45.22-1.783-12.979 11.998-13.777 32.243-1.782 45.222l124.132 134.315c6.204 6.711 14.985 10.453 24.124 10.274 9.139-0.175 17.766-4.254 23.706-11.204l217.655-254.698z"></path>
</svg>
