<svg width="1920" height="673" viewBox="0 0 1920 673" fill="none" xmlns="http://www.w3.org/2000/svg">
<path d="M116.033 376.091C-34.5692 360.745 -74.7104 337.089 -311.074 651.975L-390.753 733.594L2135.46 746.175C2146.45 553.178 2155.93 160.79 2105.93 135.209C2043.44 103.232 1863.49 109.841 1665.9 196.997C1468.31 284.152 1323.43 9.17142 1131.95 0.598921C940.459 -7.97358 813.882 351.707 705.808 390.522C597.733 429.338 677.837 176.706 553.744 127.675C429.651 78.6433 266.635 391.437 116.033 376.091Z" fill="url(#paint0_linear_0_1)"/>
<path d="M141.355 398.835C-2.83207 386.297 -41.3518 367.835 -266.12 610.108L-342 672.822L2075.51 693.935C2085.16 544.84 2092.46 241.652 2044.5 221.658C1984.56 196.665 1812.38 200.962 1623.69 267.423C1435 333.884 1295.12 120.73 1111.84 113.242C928.556 105.754 809.051 383.138 705.804 412.647C602.557 442.156 678.073 247.287 559.102 208.837C440.131 170.387 285.543 411.373 141.355 398.835Z" fill="url(#paint1_linear_0_1)"/>
<defs>
<linearGradient id="paint0_linear_0_1" x1="794.722" y1="-68.5476" x2="2114.38" y2="755.568" gradientUnits="userSpaceOnUse">
<stop stop-color="#9B51F9" stop-opacity="0.23"/>
<stop offset="1" stop-color="#DB00FF" stop-opacity="0.07"/>
</linearGradient>
<linearGradient id="paint1_linear_0_1" x1="788.82" y1="58.2866" x2="1894.49" y2="909.97" gradientUnits="userSpaceOnUse">
<stop stop-color="#9B51F9"/>
<stop offset="1" stop-color="#DB00FF" stop-opacity="0.11"/>
</linearGradient>
</defs>
</svg>
