<svg width="539" height="479" viewBox="0 0 539 479" fill="none" xmlns="http://www.w3.org/2000/svg">
<g clip-path="url(#clip0_7_34)">
<path d="M463.215 395.782C454.12 422.422 442.424 449.004 427.441 474.305C427.108 474.875 426.772 475.433 426.433 476.001L389.338 464.265C389.552 463.728 389.785 463.127 390.036 462.471C404.998 423.774 495.266 188.007 491.214 141.522C491.65 145.327 505.772 271.25 463.215 395.782Z" fill="#E6E6E6"/>
<path d="M434.597 476.569C434.093 477.085 433.576 477.596 433.055 478.096L405.227 469.292C405.604 468.837 406.042 468.3 406.546 467.694C414.787 457.628 439.289 427.491 463.215 395.782C488.927 361.706 513.978 325.819 517.489 311.073C516.784 314.426 494.826 416.502 434.597 476.569Z" fill="#E6E6E6"/>
<path d="M448.507 84.0062C448.497 84.0062 448.487 84.0092 448.476 84.0096V24.3528C448.476 17.894 445.911 11.6998 441.344 7.13277C436.778 2.56573 430.584 0 424.126 0H237.373C230.914 0 224.721 2.56573 220.154 7.13277C215.588 11.6998 213.022 17.894 213.022 24.3528V54.936C212.507 54.947 212.016 55.1594 211.655 55.5278C211.294 55.8963 211.092 56.3913 211.091 56.9071V72.0552C211.092 72.571 211.294 73.066 211.655 73.4344C212.016 73.8027 212.507 74.0151 213.022 74.026V89.8951H212.923C212.664 89.8951 212.407 89.9462 212.167 90.0455C211.928 90.1447 211.71 90.2902 211.526 90.4737C211.343 90.6571 211.198 90.8749 211.098 91.1145C210.999 91.3542 210.948 91.6111 210.948 91.8705V121.163C210.948 121.423 210.999 121.68 211.098 121.919C211.198 122.159 211.343 122.377 211.526 122.56C211.71 122.744 211.928 122.889 212.167 122.988C212.407 123.088 212.664 123.139 212.923 123.139H213.022V134.773H212.991C212.732 134.773 212.475 134.824 212.235 134.923C211.996 135.022 211.778 135.168 211.595 135.351C211.411 135.535 211.266 135.753 211.166 135.992C211.067 136.232 211.016 136.489 211.016 136.748V166.328C211.016 166.587 211.067 166.844 211.166 167.084C211.266 167.323 211.411 167.541 211.595 167.724C211.778 167.908 211.996 168.053 212.235 168.153C212.475 168.252 212.732 168.303 212.991 168.303H213.022V454.223C213.022 460.681 215.588 466.876 220.154 471.443C224.721 476.01 230.914 478.576 237.373 478.576H424.126C430.584 478.576 436.778 476.01 441.344 471.443C445.911 466.876 448.476 460.681 448.476 454.223V142.016C448.487 142.016 448.497 142.019 448.507 142.019C448.969 142.019 449.426 141.928 449.853 141.751C450.28 141.575 450.668 141.316 450.994 140.989C451.321 140.662 451.58 140.275 451.757 139.848C451.933 139.421 452.024 138.964 452.024 138.502V87.5239C452.024 86.591 451.654 85.6963 450.994 85.0366C450.335 84.3769 449.44 84.0063 448.507 84.0062Z" fill="#3F3D56"/>
<path d="M433.937 31.1695V447.399C433.935 452.358 431.964 457.114 428.457 460.62C424.95 464.126 420.195 466.095 415.236 466.095H246.263C241.304 466.095 236.548 464.126 233.041 460.62C229.534 457.114 227.563 452.358 227.561 447.399V31.1695C227.561 26.2092 229.532 21.452 233.039 17.9445C236.546 14.437 241.303 12.4665 246.263 12.4665H271.548V15.7486C271.55 19.8325 273.173 23.7486 276.06 26.6364C278.948 29.5241 282.863 31.1473 286.947 31.1491H372.914C376.992 31.14 380.9 29.5135 383.781 26.6263C386.661 23.7391 388.279 19.8271 388.279 15.7486V12.5006H415.236C420.19 12.5006 424.941 14.4664 428.448 17.9665C431.954 21.4667 433.928 26.2151 433.937 31.1695Z" fill="white"/>
<path d="M159.934 233.554C158.934 233.167 157.862 233.004 156.793 233.076C155.724 233.148 154.684 233.454 153.746 233.972C152.808 234.489 151.994 235.206 151.363 236.073C150.732 236.939 150.299 237.933 150.093 238.984L89.8794 271.728L100.466 283.645L156.386 247.754C158.176 247.982 159.987 247.546 161.476 246.528C162.965 245.51 164.029 243.98 164.467 242.23C164.904 240.48 164.684 238.63 163.849 237.031C163.013 235.431 161.62 234.194 159.934 233.554H159.934Z" fill="#FFB8B8"/>
<path d="M144.577 469.146L152.08 464.293L136.931 433.039L125.857 440.202L144.577 469.146Z" fill="#FFB8B8"/>
<path d="M171.057 461.9L147.475 477.154L141.582 468.042L156.393 458.461C158.719 456.957 161.548 456.438 164.256 457.019C166.965 457.6 169.332 459.233 170.836 461.559L171.057 461.9L171.057 461.9Z" fill="#2F2E41"/>
<path d="M60.3891 470.275H69.3249L73.5776 435.805H60.3891V470.275Z" fill="#FFB8B8"/>
<path d="M86.5589 478.574H58.4744V467.722H76.1138C77.4855 467.722 78.8437 467.992 80.111 468.517C81.3782 469.042 82.5297 469.811 83.4996 470.781C84.4695 471.751 85.2389 472.903 85.7638 474.17C86.2887 475.438 86.5589 476.796 86.5589 478.168V478.574Z" fill="#2F2E41"/>
<path d="M265.406 67.5467H246.985C246.532 67.5467 246.099 67.367 245.779 67.0471C245.459 66.7272 245.279 66.2933 245.279 65.8408C245.279 65.3884 245.459 64.9545 245.779 64.6346C246.099 64.3147 246.532 64.135 246.985 64.135H265.406C265.859 64.135 266.293 64.3147 266.612 64.6346C266.932 64.9545 267.112 65.3884 267.112 65.8408C267.112 66.2933 266.932 66.7272 266.612 67.0471C266.293 67.367 265.859 67.5467 265.406 67.5467Z" fill="#3F3D56"/>
<path d="M265.406 72.3231H246.985C246.532 72.3231 246.099 72.1434 245.779 71.8235C245.459 71.5036 245.279 71.0697 245.279 70.6173C245.279 70.1648 245.459 69.7309 245.779 69.411C246.099 69.0911 246.532 68.9114 246.985 68.9114H265.406C265.859 68.9114 266.293 69.0911 266.612 69.411C266.932 69.7309 267.112 70.1648 267.112 70.6173C267.112 71.0697 266.932 71.5036 266.612 71.8235C266.293 72.1434 265.859 72.3231 265.406 72.3231Z" fill="#3F3D56"/>
<path d="M265.406 77.0995H246.985C246.532 77.0995 246.099 76.9198 245.779 76.5999C245.459 76.28 245.279 75.8461 245.279 75.3937C245.279 74.9412 245.459 74.5073 245.779 74.1874C246.099 73.8675 246.532 73.6878 246.985 73.6878H265.406C265.859 73.6878 266.293 73.8675 266.612 74.1874C266.932 74.5073 267.112 74.9412 267.112 75.3937C267.112 75.8461 266.932 76.28 266.612 76.5999C266.293 76.9198 265.859 77.0995 265.406 77.0995Z" fill="#3F3D56"/>
<path d="M408.201 72.3572H407.581L407.342 72.1593C408.126 71.2244 408.556 70.043 408.556 68.8227C408.551 67.8186 408.248 66.8387 407.686 66.0069C407.123 65.1751 406.327 64.5287 405.397 64.1494C404.468 63.7702 403.447 63.6752 402.463 63.8763C401.48 64.0775 400.578 64.5659 399.872 65.2797C399.165 65.9934 398.687 66.9006 398.496 67.8864C398.306 68.8722 398.412 69.8924 398.801 70.8179C399.19 71.7435 399.845 72.5328 400.683 73.0862C401.52 73.6395 402.503 73.932 403.507 73.9266C404.724 73.918 405.9 73.4889 406.837 72.712L407.069 72.9099V73.5376L410.985 77.4611L412.159 76.2875L408.201 72.3572ZM403.507 72.3572C402.808 72.3599 402.124 72.1552 401.542 71.7691C400.959 71.383 400.504 70.8327 400.234 70.1879C399.964 69.5431 399.891 68.8327 400.025 68.1465C400.158 67.4604 400.493 66.8293 400.985 66.3331C401.477 65.8368 402.106 65.4978 402.791 65.3587C403.476 65.2197 404.187 65.287 404.834 65.552C405.48 65.817 406.034 66.2679 406.425 66.8476C406.815 67.4274 407.025 68.11 407.028 68.809L407.028 68.8227C407.031 69.2841 406.942 69.7416 406.768 70.169C406.594 70.5963 406.338 70.9852 406.013 71.3134C405.689 71.6416 405.303 71.9027 404.878 72.0818C404.453 72.2609 403.996 72.3545 403.535 72.3571C403.526 72.3572 403.517 72.3572 403.507 72.3572H403.507Z" fill="#3F3D56"/>
<path d="M302.935 130.322H269.841C267.851 130.322 265.942 129.532 264.534 128.124C263.127 126.716 262.336 124.807 262.336 122.817C262.336 120.826 263.127 118.917 264.534 117.509C265.942 116.102 267.851 115.311 269.841 115.311H302.935C304.926 115.311 306.835 116.102 308.242 117.509C309.65 118.917 310.44 120.826 310.44 122.817C310.44 124.807 309.65 126.716 308.242 128.124C306.835 129.532 304.926 130.322 302.935 130.322Z" fill="#C360FC"/>
<path d="M404.25 146.699H266.43C265.344 146.699 264.303 146.267 263.535 145.499C262.767 144.732 262.336 143.69 262.336 142.605C262.336 141.519 262.767 140.477 263.535 139.71C264.303 138.942 265.344 138.51 266.43 138.51H404.25C405.336 138.51 406.377 138.942 407.145 139.71C407.912 140.477 408.344 141.519 408.344 142.605C408.344 143.69 407.912 144.732 407.145 145.499C406.377 146.267 405.336 146.699 404.25 146.699Z" fill="#E6E6E6"/>
<path d="M317.055 163.075H266.43C265.344 163.075 264.303 162.643 263.535 161.876C262.767 161.108 262.336 160.067 262.336 158.981C262.336 157.895 262.767 156.854 263.535 156.086C264.303 155.318 265.344 154.887 266.43 154.887H317.055C318.141 154.887 319.182 155.318 319.95 156.086C320.717 156.854 321.149 157.895 321.149 158.981C321.149 160.067 320.717 161.108 319.95 161.876C319.182 162.643 318.141 163.075 317.055 163.075Z" fill="#E6E6E6"/>
<path d="M302.935 311.826H269.841C267.851 311.826 265.942 311.035 264.534 309.627C263.127 308.22 262.336 306.311 262.336 304.32C262.336 302.329 263.127 300.42 264.534 299.013C265.942 297.605 267.851 296.814 269.841 296.814H302.935C304.926 296.814 306.835 297.605 308.242 299.013C309.65 300.42 310.44 302.329 310.44 304.32C310.44 306.311 309.65 308.22 308.242 309.627C306.835 311.035 304.926 311.826 302.935 311.826Z" fill="#C360FC"/>
<path d="M404.25 328.202H266.43C265.344 328.202 264.303 327.771 263.535 327.003C262.767 326.235 262.336 325.194 262.336 324.108C262.336 323.022 262.767 321.981 263.535 321.213C264.303 320.445 265.344 320.014 266.43 320.014H404.25C405.336 320.014 406.377 320.445 407.145 321.213C407.912 321.981 408.344 323.022 408.344 324.108C408.344 325.194 407.912 326.235 407.145 327.003C406.377 327.771 405.336 328.202 404.25 328.202Z" fill="#E6E6E6"/>
<path d="M317.055 344.578H266.43C265.344 344.578 264.303 344.147 263.535 343.379C262.767 342.611 262.336 341.57 262.336 340.484C262.336 339.398 262.767 338.357 263.535 337.589C264.303 336.821 265.344 336.39 266.43 336.39H317.055C318.141 336.39 319.182 336.821 319.95 337.589C320.717 338.357 321.149 339.398 321.149 340.484C321.149 341.57 320.717 342.611 319.95 343.379C319.182 344.147 318.141 344.578 317.055 344.578Z" fill="#E6E6E6"/>
<path d="M302.935 395.754H269.841C267.851 395.754 265.942 394.963 264.534 393.556C263.127 392.148 262.336 390.239 262.336 388.248C262.336 386.258 263.127 384.348 264.534 382.941C265.942 381.533 267.851 380.742 269.841 380.742H302.935C304.926 380.742 306.835 381.533 308.242 382.941C309.65 384.348 310.44 386.258 310.44 388.248C310.44 390.239 309.65 392.148 308.242 393.556C306.835 394.963 304.926 395.754 302.935 395.754Z" fill="#C360FC"/>
<path d="M404.25 412.13H266.43C265.344 412.13 264.303 411.699 263.535 410.931C262.767 410.163 262.336 409.122 262.336 408.036C262.336 406.95 262.767 405.909 263.535 405.141C264.303 404.374 265.344 403.942 266.43 403.942H404.25C405.336 403.942 406.377 404.374 407.145 405.141C407.912 405.909 408.344 406.95 408.344 408.036C408.344 409.122 407.912 410.163 407.145 410.931C406.377 411.699 405.336 412.13 404.25 412.13Z" fill="#E6E6E6"/>
<path d="M317.055 428.507H266.43C265.344 428.507 264.303 428.075 263.535 427.307C262.767 426.54 262.336 425.498 262.336 424.413C262.336 423.327 262.767 422.285 263.535 421.518C264.303 420.75 265.344 420.318 266.43 420.318H317.055C318.141 420.318 319.182 420.75 319.95 421.518C320.717 422.285 321.149 423.327 321.149 424.413C321.149 425.498 320.717 426.54 319.95 427.307C319.182 428.075 318.141 428.507 317.055 428.507Z" fill="#E6E6E6"/>
<path d="M423.695 269.179H160.335C158.798 269.178 157.324 268.566 156.237 267.479C155.149 266.391 154.538 264.917 154.536 263.379V191.733C154.538 190.196 155.149 188.721 156.237 187.634C157.324 186.547 158.798 185.935 160.335 185.933H423.695C425.232 185.935 426.706 186.547 427.794 187.634C428.881 188.721 429.493 190.196 429.494 191.733V263.379C429.492 264.917 428.881 266.391 427.794 267.479C426.706 268.566 425.232 269.177 423.695 269.179Z" fill="#C360FC"/>
<path d="M65.6568 354.418C68.1744 372.084 54.8426 450.348 56.3232 450.342L75.4679 450.239C76.1502 448.929 84.9379 406.699 87.6943 399.923C91.5424 390.52 95.4246 381.002 96.9392 370.958C98.3652 361.528 97.6624 351.92 96.7345 342.429C96.7777 342.147 96.753 341.858 96.6627 341.587C96.5723 341.316 96.4189 341.07 96.2149 340.871C96.011 340.671 95.7625 340.522 95.4898 340.437C95.2171 340.352 94.9282 340.333 94.6468 340.382L68.959 339.058C63.6645 338.785 62.4091 337.625 63.2142 342.825C63.7736 346.707 65.0973 350.487 65.6568 354.418Z" fill="#2F2E41"/>
<path d="M70.7056 311.464C65.4862 318.97 60.0143 327.608 61.7473 336.595C63.0641 343.418 68.263 348.707 73.1686 353.654C92.7773 373.346 131.442 460.236 131.442 460.236C150.101 448.295 130.997 460.577 149.932 447.953C148.253 447.824 110.121 310.734 106.962 310.55C94.1828 309.704 83.1572 308.455 70.7056 311.464Z" fill="#2F2E41"/>
<path d="M91.3504 240.023C88.6993 237.659 70.0685 230.367 70.0685 230.367C69.726 230.322 69.3783 230.332 69.0391 230.398C67.9789 230.666 67.4951 231.983 67.7216 233.049C67.948 234.114 66.09 251.625 65.6114 259.588C64.7725 273.486 72.9558 304.966 72.8838 305.929C72.6034 309.362 71.1004 312.58 68.648 314.998C69.2854 315.79 109.766 317.376 112.519 318.313C113.075 317.608 109.385 267.674 109.215 264.854C108.932 260.571 94.8501 243.266 91.3504 240.023Z" fill="#E6E6E6"/>
<path d="M62.4781 348.371C63.4374 347.894 64.2804 347.212 64.9476 346.373C65.6149 345.535 66.0902 344.56 66.3401 343.518C66.59 342.476 66.6084 341.392 66.394 340.342C66.1796 339.292 65.7376 338.302 65.0991 337.441L82.1786 242.909L66.2405 242.699L54.3798 336.179C53.0052 337.347 52.107 338.979 51.8553 340.766C51.6035 342.553 52.0159 344.369 53.0141 345.872C54.0123 347.375 55.5271 348.46 57.2714 348.92C59.0156 349.381 60.8683 349.185 62.4782 348.371H62.4781Z" fill="#FFB8B8"/>
<path d="M62.3409 249.924C61.6762 249.972 61.0142 249.799 60.4578 249.432C59.5094 248.62 67.2465 236.195 68.7748 236.011C73.7486 235.437 78.8657 235.246 83.6894 236.591C88.5131 237.935 93.0502 240.992 95.2062 245.516C96.1069 247.399 89.5774 256.877 86.6095 255.485C83.0549 253.82 67.0213 250.04 62.3409 249.924Z" fill="#E6E6E6"/>
<path d="M79.8962 229.349C89.7833 229.349 97.7983 221.333 97.7983 211.445C97.7983 201.557 89.7833 193.541 79.8962 193.541C70.0091 193.541 61.994 201.557 61.994 211.445C61.994 221.333 70.0091 229.349 79.8962 229.349Z" fill="#FFB8B8"/>
<path d="M62.3124 241.047C64.8002 241.308 67.3135 240.94 69.6224 239.978C71.9313 239.016 73.9621 237.49 75.529 235.54C77.096 233.59 78.1489 231.278 78.5916 228.816C79.0344 226.354 78.8527 223.82 78.0632 221.447C77.3508 219.304 76.1599 217.341 75.5075 215.18C74.8551 213.019 74.8373 210.463 76.2843 208.731C79.1156 205.341 84.5726 207.473 88.9374 206.799C93.5882 206.081 97.1563 201.619 97.5285 196.927C97.9006 192.235 95.4554 187.593 91.8155 184.61C88.1755 181.627 83.4809 180.158 78.7975 179.698C72.7828 179.107 66.7173 180.074 61.185 182.507C55.6526 184.94 50.8398 188.757 47.21 193.59C43.5801 198.422 41.2555 204.108 40.46 210.1C39.6644 216.091 40.4248 222.187 42.6677 227.799C44.6244 232.696 47.8205 237.256 52.3601 239.937C56.8997 242.619 62.8953 243.134 67.4198 240.427" fill="#2F2E41"/>
<path d="M253.997 218.686H208.247C205.342 218.686 202.978 215.319 202.978 211.18C202.978 207.041 205.342 203.674 208.247 203.674H253.997C256.902 203.674 259.266 207.041 259.266 211.18C259.266 215.319 256.902 218.686 253.997 218.686Z" fill="white"/>
<path d="M376.959 235.062H207.071C205.986 235.062 204.945 234.631 204.177 233.863C203.409 233.095 202.978 232.054 202.978 230.968C202.978 229.882 203.409 228.841 204.177 228.073C204.945 227.305 205.986 226.874 207.071 226.874H376.959C378.045 226.874 379.086 227.305 379.853 228.073C380.621 228.841 381.053 229.882 381.053 230.968C381.053 232.054 380.621 233.095 379.853 233.863C379.086 234.631 378.045 235.062 376.959 235.062Z" fill="#E6E6E6"/>
<path d="M289.764 251.438H207.071C205.986 251.438 204.945 251.007 204.177 250.239C203.409 249.471 202.978 248.43 202.978 247.344C202.978 246.258 203.409 245.217 204.177 244.449C204.945 243.682 205.986 243.25 207.071 243.25H289.764C290.849 243.25 291.891 243.682 292.658 244.449C293.426 245.217 293.857 246.258 293.857 247.344C293.857 248.43 293.426 249.471 292.658 250.239C291.891 251.007 290.849 251.438 289.764 251.438Z" fill="#E6E6E6"/>
<path d="M539 477.635H0V479H539V477.635Z" fill="#3F3D56"/>
</g>
<defs>
<clipPath id="clip0_7_34">
<rect width="539" height="479" fill="white"/>
</clipPath>
</defs>
</svg>
