<svg width="549" height="382" viewBox="0 0 549 382" fill="none" xmlns="http://www.w3.org/2000/svg">
<path d="M109.385 382C169.796 382 218.769 378.28 218.769 373.692C218.769 369.103 169.796 365.383 109.385 365.383C48.9732 365.383 0 369.103 0 373.692C0 378.28 48.9732 382 109.385 382Z" fill="#E6E6E6"/>
<path d="M83.6116 84.7591C102.648 76.6617 126.358 81.7921 149.513 85.3529C149.728 81.0408 152.34 75.7928 149.604 72.7845C146.28 69.1296 146.586 65.2894 148.587 61.427C153.701 51.5505 146.373 41.0412 138.974 32.3029C137.307 30.3378 135.199 28.7937 132.823 27.7962C130.446 26.7987 127.868 26.3758 125.298 26.5619L111.592 27.541C108.256 27.7793 105.074 29.0305 102.469 31.1273C99.8641 33.2241 97.9619 36.0664 97.0165 39.274C93.7438 43.7253 91.9922 48.1643 93.095 52.5802C88.193 55.9305 87.3695 59.9745 89.5722 64.5335C91.4401 67.404 91.4202 70.1982 89.4873 72.915C86.9487 76.3788 85.0044 80.241 83.7341 84.3433L83.6116 84.7591Z" fill="#2F2E41"/>
<path d="M535.991 330.233H148.009C144.559 330.233 141.25 328.862 138.81 326.422C136.371 323.982 135 320.673 135 317.223C275.643 300.876 413.643 300.876 549 317.223C549 320.673 547.629 323.982 545.19 326.422C542.75 328.862 539.441 330.233 535.991 330.233Z" fill="#2F2E41"/>
<path d="M549 317.988L135 317.223L182.981 236.482L183.211 236.099V58.1562C183.211 55.9963 183.636 53.8576 184.462 51.8621C185.289 49.8667 186.5 48.0535 188.027 46.5263C189.554 44.999 191.367 43.7876 193.362 42.9611C195.358 42.1347 197.496 41.7094 199.656 41.7096H482.048C484.208 41.7094 486.347 42.1347 488.342 42.9611C490.337 43.7876 492.15 44.999 493.677 46.5263C495.204 48.0535 496.416 49.8667 497.242 51.8621C498.068 53.8576 498.494 55.9963 498.494 58.1562V237.324L549 317.988Z" fill="#3F3D56"/>
<path d="M199.281 53.1893C197.861 53.1909 196.499 53.7559 195.495 54.7602C194.491 55.7645 193.926 57.1262 193.924 58.5465V220.793C193.926 222.213 194.491 223.575 195.495 224.579C196.499 225.584 197.861 226.149 199.281 226.15H484.719C486.139 226.149 487.501 225.584 488.505 224.579C489.509 223.575 490.074 222.213 490.076 220.793V58.5465C490.074 57.1262 489.509 55.7646 488.505 54.7603C487.501 53.7559 486.139 53.191 484.719 53.1893H199.281Z" fill="white"/>
<path d="M200.477 247.579C200.038 247.58 199.609 247.706 199.239 247.943C198.87 248.179 198.575 248.517 198.391 248.915L183.607 281.058C183.446 281.408 183.375 281.793 183.402 282.177C183.429 282.561 183.552 282.932 183.759 283.257C183.967 283.581 184.253 283.848 184.591 284.032C184.928 284.217 185.307 284.314 185.692 284.314H496.602C496.993 284.314 497.378 284.214 497.72 284.023C498.062 283.833 498.349 283.558 498.555 283.225C498.761 282.892 498.878 282.512 498.895 282.121C498.913 281.73 498.83 281.341 498.655 280.991L482.585 248.848C482.395 248.466 482.102 248.145 481.74 247.92C481.377 247.696 480.958 247.578 480.532 247.579H200.477Z" fill="#2F2E41"/>
<path d="M340.852 50.5107C342.754 50.5107 344.296 48.9689 344.296 47.0668C344.296 45.1648 342.754 43.6229 340.852 43.6229C338.95 43.6229 337.409 45.1648 337.409 47.0668C337.409 48.9689 338.95 50.5107 340.852 50.5107Z" fill="white"/>
<path d="M310.292 290.437C309.788 290.437 309.297 290.604 308.897 290.911C308.496 291.218 308.208 291.648 308.076 292.135L304.367 305.911C304.275 306.251 304.263 306.608 304.332 306.954C304.4 307.3 304.547 307.625 304.761 307.905C304.976 308.184 305.252 308.411 305.568 308.567C305.884 308.723 306.231 308.804 306.584 308.804H377.112C377.478 308.804 377.839 308.717 378.164 308.549C378.489 308.381 378.77 308.138 378.982 307.84C379.194 307.542 379.332 307.197 379.384 306.835C379.436 306.472 379.4 306.103 379.281 305.757L374.513 291.981C374.356 291.53 374.063 291.139 373.675 290.862C373.286 290.586 372.821 290.437 372.343 290.437H310.292Z" fill="#2F2E41"/>
<path d="M498.493 233.421V236.482H182.981L183.219 236.1V233.421H498.493Z" fill="#2F2E41"/>
<path d="M489.693 107.144C519.278 107.144 543.261 83.1589 543.261 53.572C543.261 23.985 519.278 0 489.693 0C460.109 0 436.126 23.985 436.126 53.572C436.126 83.1589 460.109 107.144 489.693 107.144Z" fill="#C360FC"/>
<path d="M511.885 76.914H467.501C466.689 76.9132 465.911 76.5904 465.337 76.0165C464.763 75.4426 464.441 74.6644 464.44 73.8527V47.0667C464.441 46.2551 464.764 45.477 465.337 44.9031C465.911 44.3292 466.689 44.0064 467.501 44.0055H511.885C512.697 44.0064 513.475 44.3292 514.049 44.9031C514.623 45.477 514.946 46.2551 514.946 47.0667V73.8527C514.946 74.6644 514.623 75.4426 514.049 76.0165C513.475 76.5904 512.697 76.9132 511.885 76.914ZM467.501 47.0668V73.8527H511.888L511.885 47.0667L467.501 47.0668Z" fill="white"/>
<path d="M503.468 47.0668H475.919V34.8218C475.919 25.9527 481.712 19.5155 489.693 19.5155C497.674 19.5155 503.468 25.9527 503.468 34.8218L503.468 47.0668ZM478.98 44.0056H500.407V34.8218C500.407 27.6122 496.001 22.5768 489.693 22.5768C483.385 22.5768 478.98 27.6122 478.98 34.8218L478.98 44.0056Z" fill="white"/>
<path d="M489.693 62.7557C491.384 62.7557 492.754 61.3851 492.754 59.6944C492.754 58.0037 491.384 56.6332 489.693 56.6332C488.003 56.6332 486.632 58.0037 486.632 59.6944C486.632 61.3851 488.003 62.7557 489.693 62.7557Z" fill="white"/>
<path d="M452.298 171.118H231.702C230.619 171.117 229.58 170.686 228.814 169.92C228.049 169.154 227.618 168.116 227.616 167.032V112.307C227.618 111.224 228.049 110.186 228.814 109.42C229.58 108.654 230.619 108.223 231.702 108.222H452.298C453.381 108.223 454.42 108.654 455.186 109.42C455.951 110.186 456.382 111.224 456.384 112.307V167.032C456.382 168.116 455.951 169.154 455.186 169.92C454.42 170.686 453.381 171.117 452.298 171.118ZM231.702 109.856C231.052 109.857 230.429 110.115 229.969 110.575C229.51 111.034 229.251 111.657 229.251 112.307V167.032C229.251 167.682 229.51 168.305 229.969 168.765C230.429 169.225 231.052 169.483 231.702 169.484H452.298C452.948 169.483 453.571 169.225 454.031 168.765C454.49 168.305 454.749 167.682 454.749 167.032V112.307C454.749 111.657 454.49 111.034 454.031 110.575C453.571 110.115 452.948 109.857 452.298 109.856L231.702 109.856Z" fill="#E6E6E6"/>
<path d="M265.978 154.212C275.168 154.212 282.618 146.761 282.618 137.57C282.618 128.379 275.168 120.928 265.978 120.928C256.787 120.928 249.337 128.379 249.337 137.57C249.337 146.761 256.787 154.212 265.978 154.212Z" fill="#E6E6E6"/>
<path d="M304.41 126.475C304.045 126.475 303.684 126.546 303.347 126.685C303.01 126.824 302.704 127.028 302.446 127.286C302.188 127.544 301.983 127.85 301.843 128.186C301.704 128.523 301.632 128.884 301.632 129.249C301.632 129.614 301.704 129.975 301.843 130.311C301.983 130.648 302.188 130.954 302.446 131.212C302.704 131.469 303.01 131.674 303.347 131.813C303.684 131.952 304.045 132.023 304.41 132.023H435.157C435.893 132.023 436.598 131.73 437.119 131.21C437.639 130.69 437.931 129.985 437.931 129.249C437.931 128.513 437.639 127.808 437.119 127.288C436.598 126.767 435.893 126.475 435.157 126.475H304.41Z" fill="#E6E6E6"/>
<path d="M304.41 143.117C303.674 143.117 302.969 143.41 302.449 143.93C301.929 144.45 301.636 145.155 301.636 145.891C301.636 146.627 301.929 147.332 302.449 147.852C302.969 148.372 303.674 148.665 304.41 148.665H360.671C361.406 148.665 362.112 148.372 362.632 147.852C363.152 147.332 363.444 146.627 363.444 145.891C363.444 145.155 363.152 144.45 362.632 143.93C362.112 143.41 361.406 143.117 360.671 143.117H304.41Z" fill="#E6E6E6"/>
<path d="M182.438 144.239L141.659 165.921L141.143 147.853C154.453 145.631 167.116 141.762 178.825 135.463L183.09 124.925C183.555 123.777 184.31 122.77 185.282 122.001C186.254 121.233 187.408 120.731 188.633 120.544C189.857 120.357 191.109 120.492 192.266 120.935C193.423 121.378 194.444 122.114 195.231 123.071C196.381 124.472 196.956 126.257 196.839 128.066C196.722 129.875 195.922 131.571 194.602 132.812L182.438 144.239Z" fill="#FFB8B8"/>
<path d="M82.7987 269.422C82.5012 268.331 82.4381 267.189 82.6134 266.072C82.7887 264.955 83.1986 263.887 83.816 262.94L92.7739 249.191C94.8927 245.939 98.1438 243.59 101.896 242.6C105.649 241.61 109.636 242.049 113.083 243.832C109.318 250.241 109.843 255.863 114.383 260.749C107.335 264.19 100.821 268.632 95.0426 273.935C93.9878 274.655 92.7763 275.111 91.5092 275.267C90.2421 275.424 88.9561 275.275 87.7582 274.833C86.5603 274.392 85.4852 273.67 84.6226 272.729C83.7599 271.788 83.1346 270.654 82.7987 269.422Z" fill="#2F2E41"/>
<path d="M184.296 251.445C182.94 253.705 181.027 255.578 178.739 256.885C176.451 258.192 173.866 258.889 171.231 258.909L111.72 259.359L109.139 244.389L135.465 236.645L113.269 219.609L137.53 191.217L181.595 232.291C184.171 234.691 185.844 237.903 186.336 241.39C186.827 244.877 186.107 248.426 184.296 251.445Z" fill="#2F2E41"/>
<path d="M102.429 353.83H88.4916C75.9781 268.048 63.2405 182.025 100.88 149.918L145.273 157.145L139.594 194.83L114.817 223.223L102.429 353.83Z" fill="#2F2E41"/>
<path d="M114.68 373.263C113.589 373.56 112.447 373.623 111.33 373.448C110.213 373.273 109.146 372.863 108.198 372.246L93.0651 370.211C89.8134 368.093 87.4645 364.841 86.4742 361.089C85.484 357.336 85.923 353.349 87.706 349.901C94.1145 353.666 99.7363 353.141 104.622 348.6C108.073 355.57 113.761 355.145 119.192 361.017C119.911 362.072 120.368 363.284 120.524 364.551C120.681 365.818 120.532 367.104 120.09 368.302C119.649 369.5 118.928 370.576 117.987 371.438C117.045 372.301 115.912 372.927 114.68 373.263Z" fill="#2F2E41"/>
<path d="M135.465 92.616L109.655 86.4212C113.942 77.6462 114.295 67.8823 112.236 57.5121L129.787 56.9958C130.337 69.8914 132 81.9392 135.465 92.616Z" fill="#FFB8B8"/>
<path d="M142.558 172.689C123.77 185.493 110.495 173.127 100.364 154.048C101.772 142.373 99.4924 128.402 95.2709 113.221C93.3935 106.526 94.0944 99.3694 97.2353 93.1652C100.376 86.9611 105.729 82.1601 112.236 79.7101L134.433 89.0023C153.28 104.366 156.989 121.008 149.918 138.561L142.558 172.689Z" fill="#C360FC"/>
<path d="M88.4916 105.522L67.844 116.363L104.494 138.044L109.593 150.624C109.933 151.464 110.099 152.364 110.08 153.27C110.062 154.176 109.858 155.068 109.483 155.893C109.108 156.718 108.569 157.458 107.899 158.067C107.229 158.677 106.442 159.144 105.585 159.439C104.612 159.775 103.574 159.88 102.552 159.748C101.531 159.615 100.554 159.248 99.6985 158.675C98.8428 158.102 98.1313 157.339 97.6198 156.445C97.1083 155.551 96.8107 154.551 96.7502 153.523L96.2345 144.756L49.6534 129.382C48.084 128.865 46.653 127.996 45.4688 126.843C44.2846 125.69 43.3783 124.283 42.8185 122.728C42.0025 120.461 41.961 117.988 42.7004 115.695C43.4398 113.402 44.9184 111.419 46.9049 110.056L84.3621 84.3562L88.4916 105.522Z" fill="#FFB8B8"/>
<path d="M109.139 107.587C100.528 103.813 92.6974 107.912 82.8136 111.2L81.265 83.8399C91.0793 78.6086 100.436 77.1982 109.139 81.2588L109.139 107.587Z" fill="#C360FC"/>
<path d="M119.44 70.5484C128.541 70.5484 135.919 63.1702 135.919 54.0686C135.919 44.9671 128.541 37.5889 119.44 37.5889C110.34 37.5889 102.962 44.9671 102.962 54.0686C102.962 63.1702 110.34 70.5484 119.44 70.5484Z" fill="#FFB8B8"/>
<path d="M139.154 51.9893C122.839 53.5874 110.407 50.9189 102.462 43.3208V37.2019H137.769L139.154 51.9893Z" fill="#2F2E41"/>
</svg>
