<svg width="487" height="350" viewBox="0 0 487 350" fill="none" xmlns="http://www.w3.org/2000/svg">
<path d="M236.859 49.4359C231.987 55.7229 228.239 62.7184 225.765 70.1453C223.556 76.6278 221.907 83.2679 220.834 90.0006C220.309 89.8058 219.792 89.596 219.283 89.3637C214.605 87.2251 210.835 83.6551 208.589 79.2369C206.343 74.8186 205.754 69.8135 206.919 65.0392C208.083 60.2649 210.931 56.0037 214.999 52.9518C219.066 49.9 224.112 48.2379 229.312 48.2371C231.265 48.2341 233.211 48.4683 235.102 48.9339C235.698 49.0763 236.287 49.2411 236.859 49.4359Z" fill="#FF6584"/>
<path d="M23.968 299.673C25.5484 287.701 33.4241 275.905 45.5437 272.009C40.7641 284.332 40.7652 297.85 45.5467 310.172C47.409 314.918 50.0049 320.014 48.2531 324.797C47.1632 327.773 44.4969 330.05 41.5164 331.474C38.5358 332.897 35.2279 333.576 31.9614 334.241L31.3186 334.742C26.1331 323.711 22.3876 311.646 23.968 299.673Z" fill="#E6E6E6"/>
<path d="M45.664 272.235C38.6061 279.686 34.2194 289.042 33.127 298.974C32.8516 301.109 32.9349 303.271 33.3741 305.38C33.8723 307.423 34.942 309.302 36.472 310.823C37.8683 312.268 39.4742 313.594 40.4733 315.334C40.9706 316.232 41.2609 317.219 41.3251 318.23C41.3893 319.24 41.226 320.253 40.8459 321.2C39.9638 323.583 38.2253 325.526 36.4551 327.37C34.4896 329.418 32.4137 331.515 31.5782 334.23C31.477 334.559 30.9412 334.391 31.0423 334.063C32.4959 329.34 37.3623 326.658 39.683 322.404C40.7659 320.419 41.2205 318.115 40.2053 316.019C39.3175 314.187 37.6627 312.818 36.2355 311.367C34.7199 309.903 33.6076 308.113 32.9959 306.151C32.4442 304.069 32.2726 301.914 32.4884 299.777C32.8929 294.961 34.0987 290.234 36.0617 285.77C38.2721 280.664 41.3935 275.951 45.2906 271.837C45.5319 271.582 45.9038 271.982 45.6641 272.235H45.664Z" fill="white"/>
<path d="M33.279 295.757C31.5349 295.358 29.9982 294.388 28.9432 293.02C27.8882 291.652 27.3836 289.976 27.5196 288.29C27.5483 287.949 28.1122 287.975 28.0834 288.316C27.9538 289.886 28.4239 291.448 29.4091 292.719C30.3943 293.991 31.8296 294.889 33.4559 295.252C33.8093 295.331 33.6303 295.835 33.279 295.757H33.279Z" fill="white"/>
<path d="M35.6616 310.178C38.8115 308.406 41.1368 305.581 42.1739 302.266C42.2763 301.937 42.8121 302.104 42.7098 302.432C41.6238 305.881 39.1976 308.816 35.9154 310.653C35.6024 310.828 35.3503 310.352 35.6616 310.178V310.178Z" fill="white"/>
<path d="M38.7957 281.167C39.4364 281.454 40.1426 281.587 40.8511 281.553C41.5595 281.519 42.2479 281.32 42.8544 280.973C43.1649 280.795 43.4167 281.271 43.1083 281.448C42.4362 281.828 41.6757 282.047 40.8931 282.086C40.1105 282.125 39.3296 281.983 38.6187 281.672C38.5491 281.648 38.4918 281.6 38.4585 281.538C38.4251 281.476 38.4183 281.404 38.4392 281.337C38.463 281.27 38.5138 281.215 38.5806 281.183C38.6473 281.151 38.7246 281.146 38.7957 281.167H38.7957Z" fill="white"/>
<path d="M82.4861 293.393C82.2956 293.51 82.1051 293.626 81.9144 293.747C79.362 295.329 76.9501 297.103 74.7027 299.052C74.5264 299.2 74.3501 299.352 74.1786 299.505C68.8171 304.255 64.4384 309.902 61.2649 316.159C60.0046 318.649 58.9472 321.227 58.1019 323.868C56.9348 327.517 55.9774 331.56 53.6671 334.544C53.4298 334.858 53.1721 335.158 52.8954 335.442H32.0171C31.9696 335.42 31.9219 335.402 31.8742 335.379L31.0406 335.415C31.0741 335.276 31.112 335.132 31.1455 334.993C31.1646 334.912 31.1883 334.832 31.2074 334.751C31.2216 334.697 31.236 334.643 31.2456 334.594C31.2502 334.576 31.2551 334.558 31.2598 334.544C31.2693 334.495 31.2837 334.45 31.2933 334.405C31.5028 333.602 31.7187 332.799 31.941 331.995C31.941 331.991 31.941 331.991 31.9457 331.986C33.5773 325.85 35.9758 319.918 39.0909 314.314C39.1862 314.148 39.2814 313.978 39.3863 313.812C40.8288 311.331 42.484 308.966 44.3356 306.739C45.3536 305.523 46.4363 304.356 47.5795 303.243C50.5394 300.373 53.96 297.959 57.7161 296.09C65.2044 292.365 73.8737 290.938 81.8765 293.213C82.0811 293.272 82.2814 293.33 82.4861 293.393Z" fill="#E6E6E6"/>
<path d="M82.4392 293.642C72.0426 295.588 62.5609 300.57 55.3409 307.881C53.757 309.429 52.4419 311.202 51.4441 313.136C50.5368 315.049 50.1899 317.156 50.4393 319.239C50.6306 321.185 51.0654 323.154 50.7512 325.11C50.5745 326.109 50.1758 327.062 49.581 327.905C48.9863 328.749 48.209 329.464 47.3001 330.005C45.0726 331.408 42.443 331.973 39.851 332.441C36.9732 332.961 33.9752 333.458 31.5734 335.152C31.2824 335.357 30.9614 334.92 31.252 334.715C35.4308 331.768 41.0308 332.387 45.6022 330.307C47.7354 329.336 49.571 327.754 50.0994 325.505C50.5615 323.539 50.115 321.507 49.9033 319.538C49.6283 317.51 49.8846 315.45 50.6497 313.537C51.5398 311.561 52.7802 309.743 54.3177 308.16C57.7189 304.543 61.7025 301.453 66.1226 299.003C71.1508 296.179 76.6546 294.187 82.3959 293.112C82.7512 293.046 82.7922 293.576 82.4392 293.642H82.4392Z" fill="white"/>
<path d="M57.5186 305.398C56.381 304.09 55.7739 302.444 55.8057 300.753C55.8374 299.063 56.506 297.438 57.692 296.169C57.9329 295.913 58.3665 296.254 58.1253 296.51C57.0185 297.69 56.3959 299.203 56.3697 300.778C56.3436 302.352 56.9156 303.883 57.9826 305.095C58.2141 305.359 57.7488 305.66 57.5186 305.398V305.398Z" fill="white"/>
<path d="M50.2044 318.264C53.8519 318.636 57.5141 317.699 60.4609 315.64C60.7526 315.436 61.0737 315.873 60.7822 316.077C57.7115 318.215 53.8983 319.182 50.1036 318.787C49.742 318.75 49.8447 318.227 50.2044 318.264V318.264Z" fill="white"/>
<path d="M71.247 296.878C71.5752 297.471 72.0545 297.977 72.6418 298.352C73.2291 298.727 73.906 298.958 74.6117 299.026C74.9737 299.059 74.8705 299.582 74.5108 299.549C73.7315 299.471 72.9843 299.214 72.3345 298.802C71.6846 298.389 71.152 297.833 70.783 297.181C70.7428 297.123 70.7277 297.052 70.741 296.983C70.7542 296.914 70.7948 296.853 70.8543 296.811C70.916 296.772 70.9918 296.756 71.0653 296.769C71.1388 296.781 71.2041 296.821 71.247 296.878Z" fill="white"/>
<path d="M244.25 307.05C235.575 298.176 231.111 284.89 235.788 273.659C242.68 285.06 253.63 293.796 266.701 298.323C271.748 300.052 277.554 301.479 280.295 305.83C282.002 308.537 282.122 311.925 281.349 314.988C280.576 318.051 278.988 320.868 277.415 323.646L277.405 324.432C265.119 321.03 252.926 315.924 244.25 307.05Z" fill="#E6E6E6"/>
<path d="M236.049 273.719C237.522 283.608 242.265 292.809 249.604 300.014C251.154 301.591 252.959 302.929 254.952 303.977C256.928 304.939 259.142 305.384 261.363 305.268C263.436 305.198 265.548 304.9 267.603 305.307C268.651 305.529 269.638 305.959 270.499 306.566C271.359 307.173 272.073 307.945 272.595 308.83C273.955 311.005 274.405 313.51 274.754 315.974C275.143 318.711 275.5 321.559 277.158 323.914C277.359 324.199 276.878 324.476 276.677 324.191C273.791 320.094 274.764 314.862 272.818 310.444C271.91 308.383 270.338 306.567 267.984 305.942C265.927 305.396 263.748 305.701 261.65 305.789C259.485 305.932 257.316 305.575 255.332 304.747C253.289 303.798 251.432 302.528 249.842 300.992C246.202 297.588 243.152 293.666 240.806 289.37C238.098 284.481 236.299 279.191 235.485 273.73C235.435 273.392 235.999 273.383 236.049 273.719V273.719Z" fill="white"/>
<path d="M247.096 297.825C245.645 298.821 243.866 299.299 242.077 299.173C240.287 299.047 238.603 298.326 237.325 297.139C237.068 296.898 237.453 296.509 237.711 296.751C238.899 297.859 240.468 298.53 242.134 298.644C243.801 298.758 245.456 298.306 246.801 297.371C247.094 297.168 247.386 297.623 247.096 297.825Z" fill="white"/>
<path d="M260.317 305.433C260.917 302.024 260.132 298.526 258.117 295.638C257.917 295.352 258.399 295.074 258.598 295.36C260.689 298.369 261.499 302.011 260.865 305.558C260.805 305.896 260.256 305.769 260.317 305.433Z" fill="white"/>
<path d="M238.845 284.43C239.491 284.155 240.055 283.732 240.485 283.201C240.916 282.67 241.199 282.047 241.311 281.387C241.367 281.048 241.915 281.175 241.86 281.511C241.733 282.24 241.419 282.928 240.944 283.516C240.47 284.104 239.851 284.573 239.139 284.883C239.075 284.918 238.999 284.928 238.927 284.912C238.855 284.895 238.792 284.854 238.751 284.795C238.713 284.735 238.701 284.663 238.718 284.594C238.736 284.526 238.781 284.467 238.845 284.43V284.43Z" fill="white"/>
<path d="M276.985 260.923C276.956 261.136 276.928 261.348 276.903 261.563C276.534 264.42 276.412 267.301 276.538 270.176C276.544 270.399 276.554 270.624 276.566 270.846C276.949 277.77 278.692 284.568 281.709 290.893C282.911 293.409 284.316 295.835 285.909 298.15C288.11 301.347 290.766 304.648 291.69 308.238C291.791 308.612 291.867 308.991 291.918 309.373L278.424 324.382C278.375 324.401 278.33 324.424 278.281 324.444L277.771 325.066C277.68 324.952 277.588 324.832 277.497 324.718C277.444 324.652 277.394 324.583 277.341 324.517C277.306 324.472 277.272 324.427 277.238 324.388C277.227 324.373 277.215 324.358 277.207 324.346C277.174 324.307 277.146 324.268 277.116 324.232C276.601 323.562 276.09 322.888 275.583 322.209C275.579 322.206 275.579 322.206 275.579 322.2C271.663 317.061 268.409 311.502 265.883 305.641C265.81 305.465 265.734 305.287 265.667 305.104C264.59 302.464 263.744 299.745 263.137 296.975C262.81 295.457 262.565 293.925 262.402 292.383C261.991 288.4 262.246 284.381 263.16 280.473C264.983 272.683 269.43 265.528 276.446 261.246C276.625 261.136 276.802 261.03 276.985 260.923Z" fill="#E6E6E6"/>
<path d="M277.157 261.118C272.013 269.85 269.92 279.886 271.175 289.801C271.405 291.94 271.992 294.032 272.913 295.999C273.876 297.888 275.359 299.499 277.207 300.666C278.906 301.786 280.783 302.747 282.164 304.237C282.859 305.009 283.373 305.911 283.671 306.884C283.97 307.857 284.047 308.878 283.898 309.881C283.594 312.389 282.352 314.645 281.057 316.811C279.618 319.215 278.083 321.692 277.902 324.513C277.88 324.855 277.318 324.803 277.34 324.462C277.655 319.553 281.775 315.927 283.045 311.297C283.637 309.136 283.542 306.794 282.062 304.96C280.768 303.357 278.834 302.365 277.103 301.245C275.283 300.132 273.779 298.616 272.724 296.829C271.7 294.913 271.029 292.846 270.74 290.717C270.009 285.935 270.081 281.074 270.953 276.312C271.916 270.873 273.859 265.629 276.7 260.807C276.875 260.508 277.332 260.822 277.157 261.118H277.157Z" fill="white"/>
<path d="M270.572 286.631C268.777 286.604 267.051 285.976 265.703 284.861C264.354 283.745 263.47 282.214 263.209 280.542C263.157 280.203 263.713 280.112 263.765 280.451C264.005 282.009 264.829 283.435 266.087 284.471C267.345 285.507 268.955 286.086 270.626 286.102C270.989 286.106 270.933 286.635 270.572 286.631Z" fill="white"/>
<path d="M276.265 300.205C278.924 297.823 280.532 294.585 280.769 291.136C280.792 290.794 281.354 290.846 281.331 291.187C281.077 294.776 279.396 298.143 276.624 300.616C276.36 300.851 276.002 300.439 276.265 300.205V300.205Z" fill="white"/>
<path d="M272.544 271.256C273.236 271.403 273.956 271.385 274.639 271.205C275.322 271.026 275.947 270.689 276.458 270.225C276.719 269.986 277.076 270.398 276.817 270.635C276.25 271.145 275.559 271.517 274.805 271.717C274.05 271.917 273.256 271.941 272.49 271.785C272.416 271.776 272.349 271.741 272.302 271.687C272.255 271.633 272.231 271.564 272.236 271.495C272.244 271.425 272.28 271.36 272.338 271.316C272.396 271.271 272.47 271.249 272.544 271.256V271.256Z" fill="white"/>
<path d="M159.641 288.47C167.324 288.47 173.552 282.602 173.552 275.364C173.552 268.126 167.324 262.259 159.641 262.259C151.958 262.259 145.73 268.126 145.73 275.364C145.73 282.602 151.958 288.47 159.641 288.47Z" fill="#F2F2F2"/>
<path d="M149.302 162.158C152.16 162.158 154.477 159.975 154.477 157.283C154.477 154.59 152.16 152.408 149.302 152.408C146.444 152.408 144.128 154.59 144.128 157.283C144.128 159.975 146.444 162.158 149.302 162.158Z" fill="#C360FC"/>
<path d="M78.1403 216.568C80.9982 216.568 83.315 214.386 83.315 211.693C83.315 209.001 80.9982 206.818 78.1403 206.818C75.2824 206.818 72.9656 209.001 72.9656 211.693C72.9656 214.386 75.2824 216.568 78.1403 216.568Z" fill="#F0F0F0"/>
<path d="M384.365 0H2.13937C1.57244 0.0014436 1.02918 0.214262 0.628308 0.59193C0.227435 0.969598 0.00155028 1.48141 3.05891e-05 2.0155V13.8762C-0.000115972 14.4115 0.224996 14.925 0.626002 15.3042C1.02701 15.6834 1.5712 15.8974 2.13937 15.8992H384.365C384.933 15.8974 385.478 15.6834 385.879 15.3042C386.28 14.925 386.505 14.4115 386.505 13.8762V2.0155C386.503 1.4814 386.277 0.969586 385.876 0.591919C385.475 0.214251 384.932 0.00144158 384.365 0V0Z" fill="#C360FC"/>
<path d="M12.4266 10.2326C14.1053 10.2326 15.4662 8.9505 15.4662 7.36898C15.4662 5.78745 14.1053 4.50537 12.4266 4.50537C10.7479 4.50537 9.38699 5.78745 9.38699 7.36898C9.38699 8.9505 10.7479 10.2326 12.4266 10.2326Z" fill="white"/>
<path d="M23.964 10.2326C25.6427 10.2326 27.0036 8.9505 27.0036 7.36898C27.0036 5.78745 25.6427 4.50537 23.964 4.50537C22.2853 4.50537 20.9244 5.78745 20.9244 7.36898C20.9244 8.9505 22.2853 10.2326 23.964 10.2326Z" fill="white"/>
<path d="M35.5019 10.2326C37.1806 10.2326 38.5415 8.9505 38.5415 7.36898C38.5415 5.78745 37.1806 4.50537 35.5019 4.50537C33.8232 4.50537 32.4623 5.78745 32.4623 7.36898C32.4623 8.9505 33.8232 10.2326 35.5019 10.2326Z" fill="white"/>
<path d="M373.064 3.54395H359.774C359.514 3.54395 359.264 3.64144 359.08 3.81497C358.896 3.9885 358.792 4.22386 358.792 4.46928C358.792 4.71469 358.896 4.95005 359.08 5.12358C359.264 5.29712 359.514 5.39461 359.774 5.39461H373.064C373.324 5.39461 373.574 5.29712 373.758 5.12358C373.943 4.95005 374.046 4.71469 374.046 4.46928C374.046 4.22386 373.943 3.9885 373.758 3.81497C373.574 3.64144 373.324 3.54395 373.064 3.54395V3.54395Z" fill="white"/>
<path d="M373.064 7.02051H359.774C359.514 7.02051 359.264 7.118 359.08 7.29153C358.896 7.46507 358.792 7.70043 358.792 7.94584C358.792 8.19125 358.896 8.42662 359.08 8.60016C359.264 8.77369 359.514 8.87117 359.774 8.87117H373.064C373.324 8.87117 373.574 8.77369 373.758 8.60016C373.943 8.42662 374.046 8.19125 374.046 7.94584C374.046 7.70043 373.943 7.46507 373.758 7.29153C373.574 7.118 373.324 7.02051 373.064 7.02051V7.02051Z" fill="white"/>
<path d="M373.064 10.4971H359.774C359.513 10.4971 359.262 10.5949 359.077 10.7692C358.892 10.9434 358.788 11.1797 358.788 11.4261C358.788 11.6725 358.892 11.9089 359.077 12.0831C359.262 12.2573 359.513 12.3552 359.774 12.3552H373.064C373.325 12.3552 373.576 12.2573 373.761 12.0831C373.946 11.9089 374.05 11.6725 374.05 11.4261C374.05 11.1797 373.946 10.9434 373.761 10.7692C373.576 10.5949 373.325 10.4971 373.064 10.4971V10.4971Z" fill="white"/>
<path d="M14.2948 103.419C13.191 103.422 12.2979 104.772 12.3001 106.435C12.3022 108.093 13.1941 109.436 14.2948 109.44H164.198C165.302 109.436 166.195 108.086 166.193 106.423C166.191 104.765 165.299 103.422 164.198 103.419H14.2948Z" fill="#E6E6E6"/>
<path d="M14.2948 120.863C13.191 120.866 12.2979 122.217 12.3001 123.879C12.3022 125.537 13.1941 126.881 14.2948 126.884H164.198C165.302 126.881 166.195 125.53 166.193 123.867C166.191 122.21 165.299 120.866 164.198 120.863H14.2948Z" fill="#E6E6E6"/>
<path d="M14.2948 138.096C13.191 138.1 12.2979 139.45 12.3001 141.113C12.3022 142.771 13.1941 144.114 14.2948 144.117H110.514C111.618 144.114 112.511 142.763 112.509 141.101C112.507 139.443 111.615 138.1 110.514 138.096H14.2948Z" fill="#E6E6E6"/>
<path d="M3.5097 330.699C3.56008 330.59 3.61758 330.487 3.66981 330.38C3.76213 329.482 3.5097 330.699 3.5097 330.699Z" fill="#F2F2F2"/>
<path d="M30.7431 317.13C28.8447 317.129 26.9488 317.258 25.0703 317.516L24.7993 317.553C18.788 318.461 13.3352 321.404 9.46508 325.832C5.59491 330.259 3.57367 335.865 3.78102 341.597L3.85286 343.753C3.90024 345.116 3.95068 346.582 3.99227 348.208C3.99724 348.586 4.16053 348.947 4.44662 349.213C4.73271 349.478 5.11846 349.626 5.51998 349.625H309.391C330.816 349.413 352.162 349.146 372.835 348.831C376.728 348.843 380.614 348.515 384.442 347.85C390.187 346.741 394.175 344.542 396.634 341.128H396.635C399.692 336.894 399.789 331.563 399.604 325.54C399.227 313.378 398.854 300.601 398.481 287.863C398.151 276.636 397.824 265.44 397.496 254.721C397.293 248.359 396.843 242.744 393.37 238.453C389.606 233.812 382.742 231.459 372.968 231.459C372.85 231.459 372.733 231.459 372.613 231.46C341.981 231.638 311.63 248.821 297.088 274.218C295.414 277.143 293.853 280.274 292.344 283.302C290.196 287.846 287.763 292.265 285.058 296.537C283.648 298.706 282.037 300.755 280.245 302.658C280.127 302.791 279.992 302.933 279.849 303.069C279.522 303.416 279.18 303.751 278.847 304.05C277.011 305.803 274.949 307.332 272.709 308.603L272.494 308.72C272.332 308.815 272.157 308.909 271.981 308.996C270.763 309.635 269.496 310.187 268.19 310.648C262.647 312.642 256.344 313.119 249.457 312.067C242.922 311.006 236.625 308.913 230.83 305.875C224.453 302.587 218.483 298.487 212.71 294.523C210.175 292.78 207.552 290.98 204.932 289.273C204.44 288.952 203.956 288.638 203.464 288.324C200.265 286.29 197.364 284.61 194.597 283.189C188.077 279.752 180.892 277.581 173.467 276.804C165.849 276.123 159.135 277.407 153.518 280.609C151.911 281.53 150.4 282.592 149.005 283.781C142.351 289.418 138.249 297.738 134.283 305.783C129.349 315.791 124.246 326.14 114.171 331.505C102.546 337.701 85.5765 335.127 73.5707 330.65C69.7961 329.242 66.0261 327.623 62.38 326.056C60.9075 325.424 59.4349 324.791 57.9592 324.171C55.0615 322.95 52.6899 322.015 50.4958 321.226L49.8019 320.974C49.4159 320.837 49.0295 320.7 48.6361 320.57C46.2051 319.728 43.7272 319.011 41.2135 318.423L40.6481 318.288C39.5145 318.044 38.4547 317.842 37.4148 317.671L36.9996 317.604C34.9312 317.286 32.8388 317.128 30.7431 317.13V317.13Z" fill="#E6E6E6"/>
<path d="M201.023 317.484C195.966 299.565 207.196 282.1 220.319 270.009C227.313 263.565 235.102 257.964 242.697 252.178C249.985 246.687 256.925 240.798 263.482 234.543C276.144 222.333 287.189 208.38 294.504 192.696C301.459 177.781 304.747 161.534 303.118 145.26C301.574 129.826 295.701 114.643 284.899 102.802C283.553 101.326 282.137 99.9117 280.651 98.5586C279.854 97.8296 278.633 98.9775 279.431 99.7076C291.494 110.742 298.515 125.696 300.891 141.254C303.342 157.298 300.817 173.654 294.449 188.653C287.665 204.632 276.878 218.89 264.368 231.333C258.067 237.559 251.365 243.413 244.299 248.861C236.754 254.717 228.913 260.25 221.727 266.508C208.485 278.041 196.583 293.906 198.218 311.765C198.408 313.843 198.79 315.901 199.36 317.916C199.427 318.117 199.574 318.286 199.77 318.387C199.967 318.488 200.197 318.513 200.413 318.457C200.629 318.401 200.813 318.268 200.927 318.086C201.04 317.905 201.075 317.689 201.023 317.484V317.484Z" fill="#E6E6E6"/>
<path d="M253.982 215.471C254.089 215.656 254.115 215.873 254.055 216.076C253.995 216.279 253.854 216.453 253.661 216.559C253.468 216.666 253.239 216.699 253.021 216.649C252.804 216.6 252.615 216.473 252.495 216.295C250.515 213.096 248.646 209.842 246.888 206.532C245.703 204.285 244.566 202.007 243.5 199.707C231.537 174.157 226.414 146.232 228.58 118.382C229.169 110.764 230.336 103.194 232.071 95.7324C232.429 94.2189 232.811 92.7054 233.233 91.2069C233.869 91.1095 234.489 90.9821 235.102 90.8323C231.364 103.6 229.86 117.064 229.813 130.236C229.758 145.135 231.793 159.977 235.865 174.374C239.919 188.777 246.013 202.6 253.982 215.471V215.471Z" fill="#E6E6E6"/>
<path d="M367.266 171.415C360.8 184.519 349.936 195.279 337.752 203.85C323.938 213.568 308.294 220.581 292.793 227.542C291.799 227.991 290.924 226.59 291.926 226.14C295.625 224.477 299.323 222.814 302.997 221.12C317.694 214.325 332.265 206.847 344.568 196.552C355.949 187.029 365.222 175.169 369.453 161.255C373.867 146.772 373.032 131.112 368.284 116.802C365.338 108.111 361.111 99.8535 355.726 92.2709C353.945 89.7309 352.06 87.2609 350.072 84.8608C348.624 83.115 347.129 81.4042 345.586 79.7283C340.543 74.2797 335.061 69.207 329.187 64.5559C323.077 59.5898 316.314 55.3844 309.065 52.0434C301.619 48.6307 293.477 46.7751 285.198 46.6038C277.375 46.502 269.671 48.4195 262.921 52.1483C258.307 54.7378 254.161 58.0058 250.642 61.8286C250.411 61.2816 250.157 60.7422 249.87 60.2177C255.947 53.8865 263.526 48.9114 272.346 46.5513C288.642 42.1906 305.844 47.308 319.595 55.7746C326.305 59.9925 332.571 64.8046 338.309 70.1454C340.448 72.1009 342.532 74.1164 344.536 76.1919C346.954 78.6794 349.263 81.2543 351.463 83.9167C351.463 83.9167 351.479 83.9242 351.479 83.9317C352.219 84.8233 352.945 85.7274 353.658 86.644C362.956 98.5572 369.899 112.231 372.666 126.849C375.498 141.797 374.098 157.561 367.266 171.415Z" fill="#E6E6E6"/>
<path d="M356.339 155.71C349.881 168.815 339.017 179.574 326.825 188.146C313.615 197.429 298.734 204.255 283.91 210.916C283.234 211.223 282.55 211.522 281.874 211.83C281.765 211.882 281.645 211.912 281.523 211.917C281.401 211.922 281.279 211.903 281.166 211.86C281.009 211.817 280.868 211.731 280.763 211.613C280.657 211.495 280.591 211.35 280.574 211.197C280.556 211.043 280.587 210.889 280.662 210.752C280.738 210.615 280.855 210.503 280.999 210.429C281.571 210.166 282.152 209.912 282.725 209.657C283.711 209.207 284.689 208.765 285.675 208.323C287.815 207.364 289.949 206.393 292.078 205.409C306.767 198.62 321.345 191.135 333.64 180.84C345.029 171.317 354.303 159.457 358.534 145.543C362.94 131.06 362.105 115.408 357.357 101.097C355.477 95.4809 353.037 90.0446 350.072 84.8608C348.378 81.8937 346.524 78.9941 344.536 76.1919C341.526 71.9369 338.226 67.87 334.658 64.0164C329.621 58.5684 324.14 53.4981 318.267 48.8515C312.155 43.8844 305.39 39.679 298.138 36.3389C290.695 32.924 282.555 31.0658 274.279 30.8918C266.453 30.7901 258.746 32.7075 251.994 36.4363C246.085 39.782 240.94 44.2008 236.859 49.4359C231.987 55.7229 228.239 62.7184 225.765 70.1454C223.556 76.6278 221.907 83.2679 220.834 90.0006C219.54 98.1183 218.889 106.315 218.885 114.524C218.834 129.426 220.869 144.269 224.937 158.67C228.997 173.071 235.09 186.894 243.055 199.767C243.076 199.8 243.095 199.835 243.11 199.872C243.184 200.06 243.18 200.268 243.1 200.455C243.021 200.641 242.871 200.793 242.679 200.882C242.487 200.97 242.268 200.989 242.062 200.934C241.857 200.879 241.681 200.754 241.567 200.583C239.587 197.392 237.721 194.137 235.968 190.821C221.609 163.508 215.284 133.068 217.652 102.671C218.002 98.2201 218.546 93.7845 219.283 89.3638C219.8 86.2319 220.423 83.1175 221.152 80.0206C222.839 72.4139 225.524 65.0345 229.145 58.0524C230.85 54.8583 232.843 51.8077 235.102 48.9339C241.695 40.5348 250.634 33.7315 261.426 30.8469C277.722 26.4787 294.917 31.5961 308.676 40.0627C315.382 44.2844 321.648 49.0962 327.389 54.4335C332.98 59.5229 338.111 65.0415 342.731 70.9321C345.961 75.0619 348.879 79.4008 351.463 83.9167C351.463 83.9167 351.479 83.9242 351.479 83.9317C353.03 86.6515 354.454 89.4312 355.726 92.2709C358.474 98.3275 360.491 104.656 361.739 111.137C364.578 126.092 363.178 141.849 356.339 155.71Z" fill="#E6E6E6"/>
<path d="M303.143 161.362C310.751 161.317 318.107 158.788 323.956 154.205C329.911 149.487 333.83 142.881 334.976 135.631C335.649 131.533 335.432 127.348 334.339 123.33C334.272 123.129 334.125 122.96 333.928 122.86C333.732 122.759 333.501 122.734 333.286 122.79C333.07 122.846 332.886 122.978 332.772 123.16C332.658 123.341 332.623 123.557 332.675 123.762C334.519 130.584 333.687 137.803 330.333 144.093C327.756 148.796 323.857 152.742 319.063 155.501C314.268 158.26 308.762 159.725 303.143 159.737C302.92 159.744 302.708 159.833 302.553 159.985C302.397 160.136 302.31 160.339 302.31 160.55C302.31 160.76 302.397 160.963 302.553 161.115C302.708 161.266 302.92 161.355 303.143 161.362V161.362Z" fill="#E6E6E6"/>
<path d="M238.372 253.725L232.82 244.518C232.7 244.34 232.512 244.212 232.295 244.162C232.077 244.112 231.848 244.144 231.655 244.25C231.461 244.356 231.32 244.529 231.259 244.732C231.199 244.935 231.224 245.152 231.331 245.338L236.883 254.545C237.002 254.723 237.191 254.851 237.408 254.901C237.625 254.951 237.855 254.919 238.048 254.813C238.241 254.706 238.383 254.534 238.443 254.331C238.504 254.128 238.478 253.91 238.372 253.725V253.725Z" fill="#E6E6E6"/>
<path d="M205.957 65.9012C204.296 64.7963 202.478 63.6443 200.445 63.6903C195.525 63.8018 192.872 70.5972 187.956 70.3582C184.822 70.2058 182.741 67.2059 179.822 66.1181C176.022 64.702 171.187 67.4715 170.772 71.3014L171.26 70.8806C186.031 74.273 201.359 74.9401 216.399 72.8452C212.918 70.5305 209.438 68.2158 205.957 65.9012Z" fill="#E6E6E6"/>
<path d="M185.623 342.328C188.367 342.328 190.591 340.233 190.591 337.648C190.591 335.063 188.367 332.967 185.623 332.967C182.879 332.967 180.655 335.063 180.655 337.648C180.655 340.233 182.879 342.328 185.623 342.328Z" fill="white"/>
<path d="M200.031 342.328C202.774 342.328 204.999 340.233 204.999 337.648C204.999 335.063 202.774 332.967 200.031 332.967C197.287 332.967 195.062 335.063 195.062 337.648C195.062 340.233 197.287 342.328 200.031 342.328Z" fill="white"/>
<path d="M214.438 342.328C217.182 342.328 219.406 340.233 219.406 337.648C219.406 335.063 217.182 332.967 214.438 332.967C211.694 332.967 209.47 335.063 209.47 337.648C209.47 340.233 211.694 342.328 214.438 342.328Z" fill="white"/>
<path d="M200.076 341.392C202.271 341.392 204.051 339.716 204.051 337.648C204.051 335.58 202.271 333.903 200.076 333.903C197.881 333.903 196.102 335.58 196.102 337.648C196.102 339.716 197.881 341.392 200.076 341.392Z" fill="#3F3D56"/>
<path d="M433.383 339.291H427.938L425.347 319.502H433.383V339.291Z" fill="#FFB6B6"/>
<path d="M436.258 348.179H432.353L431.656 344.706L429.87 348.179H419.513C419.016 348.179 418.533 348.03 418.133 347.753C417.733 347.475 417.438 347.085 417.29 346.639C417.142 346.192 417.15 345.713 417.312 345.271C417.474 344.828 417.781 344.447 418.19 344.181L426.461 338.799V335.288L435.161 335.777L436.258 348.179Z" fill="#2F2E41"/>
<path d="M402.084 334.904L396.957 336.633L387.437 318.826L395.004 316.274L402.084 334.904Z" fill="#FFB6B6"/>
<path d="M408.67 339.932L405.297 341.786L402.837 339.116L403.152 342.964L394.206 347.881C393.777 348.117 393.279 348.217 392.786 348.167C392.292 348.118 391.828 347.921 391.462 347.605C391.095 347.29 390.845 346.872 390.749 346.413C390.652 345.955 390.714 345.479 390.924 345.055L395.19 336.48L393.312 333.447L401.089 329.74L408.67 339.932Z" fill="#2F2E41"/>
<path d="M434.414 327.2H434.349L433.191 291.639C433.94 290.277 434.32 288.763 434.298 287.23C434.275 285.697 433.851 284.193 433.062 282.851L432.896 282.569L433.326 280.692C433.878 278.281 433.624 275.769 432.601 273.499L431.521 240.327C435.379 216.772 417.295 198.328 417.295 198.328H388.36L383.538 220.55L368.099 276.151C367.415 277.131 366.989 278.251 366.857 279.417C366.725 280.584 366.891 281.763 367.342 282.856L389.268 323.722L389.099 323.803C388.778 323.971 388.538 324.25 388.43 324.58C388.321 324.911 388.352 325.268 388.515 325.578C388.802 326.36 389.528 326.834 390.137 326.636L398.684 322.563C399.005 322.394 399.244 322.116 399.353 321.786C399.461 321.455 399.431 321.098 399.267 320.788C398.981 320.006 398.255 319.532 397.646 319.73L396.657 320.201L390.041 289.482L389.807 283.214L390.289 276.103L404.515 245.66L412.955 284.992L425.392 327.596C425.154 327.799 424.987 328.065 424.913 328.359C424.839 328.653 424.862 328.961 424.977 329.243C425.093 329.525 425.297 329.767 425.562 329.937C425.827 330.107 426.14 330.198 426.461 330.197H434.414C434.836 330.197 435.241 330.039 435.539 329.758C435.837 329.477 436.005 329.096 436.005 328.699C436.005 328.301 435.837 327.92 435.539 327.639C435.241 327.358 434.836 327.2 434.414 327.2Z" fill="#2F2E41"/>
<path d="M420.528 182.594L419.757 190.716C419.757 190.716 419.423 197.459 418.365 198.95C417.315 200.434 388.668 200.621 388.668 200.621C388.668 200.621 386.775 191.008 385.145 182.594H420.528Z" fill="#FFB6B6"/>
<path d="M406.183 131.988C414.312 131.988 420.902 125.78 420.902 118.121C420.902 110.463 414.312 104.254 406.183 104.254C398.053 104.254 391.463 110.463 391.463 118.121C391.463 125.78 398.053 131.988 406.183 131.988Z" fill="#FFB6B6"/>
<path d="M413.736 134.641L401.922 135.951C401.424 136.006 400.957 136.206 400.585 136.524C400.213 136.841 399.956 137.26 399.849 137.721L397.97 145.821L386.259 158.814C386.259 158.814 382.053 166.243 383.63 174.662C385.207 183.081 385.9 189.337 385.9 189.337C385.9 189.337 417.316 200.434 418.368 198.948C419.419 197.463 419.76 190.714 419.76 190.714L423.966 146.637C423.966 146.637 419.235 139.208 416.606 139.208C414.91 139.154 415.127 135.557 413.736 134.641Z" fill="#C360FC"/>
<path opacity="0.2" d="M408.52 163.121L403.263 199.769L397.75 200.039L408.52 163.121Z" fill="black"/>
<path d="M385.581 192.047C387.238 192.047 388.58 190.529 388.58 188.656C388.58 186.783 387.238 185.265 385.581 185.265C383.924 185.265 382.581 186.783 382.581 188.656C382.581 190.529 383.924 192.047 385.581 192.047Z" fill="#C360FC"/>
<path d="M406.132 233.943C406.758 233.357 407.239 232.649 407.542 231.868C407.845 231.088 407.963 230.255 407.888 229.427C407.812 228.599 407.545 227.797 407.105 227.077C406.665 226.357 406.062 225.737 405.34 225.26L415.188 180.36L404.563 183.518L396.64 226.955C395.87 228.151 395.593 229.571 395.86 230.947C396.128 232.323 396.922 233.559 398.092 234.421C399.262 235.282 400.726 235.709 402.208 235.621C403.69 235.533 405.087 234.936 406.132 233.943V233.943Z" fill="#FFB6B6"/>
<path d="M413.965 140.415C413.965 140.415 421.044 137.528 425.342 144.796C429.641 152.065 423.438 177.328 422.567 181.428C421.697 185.528 409.759 205.071 409.759 205.071L397.83 202.824L413.965 140.415Z" fill="#C360FC"/>
<path d="M399.488 104.865C404.592 101.558 409.086 101.054 412.778 101.992C413.257 101.295 413.928 100.733 414.72 100.368C417.599 93.5328 426.362 89.4279 433.882 91.4234C441.451 93.4318 446.673 101.33 445.249 108.616C444.367 113.132 441.35 117.042 440.136 121.49C437.787 130.099 443.517 139.96 452.481 142.736C443.994 144.341 434.652 139.457 431.607 131.823C430.128 128.115 430.039 124.067 429.851 120.109C429.663 116.152 429.325 112.076 427.421 108.544C426.145 106.122 424.026 104.185 421.417 103.056C421.651 103.737 421.709 104.46 421.588 105.167C421.466 105.873 421.168 106.542 420.718 107.118C422.708 109.467 423.792 112.007 423.792 113.528C427.926 120.648 422.014 126.763 414.457 130.658C411.443 132.22 407.962 132.791 404.565 132.283L404.249 131.011L403.82 132.156L402.39 135.996C400.741 136.748 399.105 137.572 397.484 138.468C398.1 135.744 398.598 133.024 398.941 130.365C399.416 126.746 397.761 121.358 396.568 118.082C395.828 116.062 395.448 113.942 395.444 111.805V111.712L394.282 115.229L390.051 113.528C390.838 109.275 390.051 104.446 399.488 104.865Z" fill="#2F2E41"/>
<path d="M487 349.108C486.999 349.345 486.9 349.571 486.722 349.738C486.545 349.905 486.304 349.999 486.054 350H306.878C306.627 350 306.387 349.906 306.209 349.739C306.032 349.572 305.932 349.345 305.932 349.108C305.932 348.872 306.032 348.645 306.209 348.478C306.387 348.311 306.627 348.217 306.878 348.217H486.054C486.178 348.216 486.301 348.239 486.416 348.284C486.531 348.329 486.636 348.394 486.724 348.477C486.812 348.56 486.881 348.658 486.929 348.767C486.976 348.875 487 348.991 487 349.108V349.108Z" fill="#CCCCCC"/>
</svg>
