<svg width="549" height="413" viewBox="0 0 549 413" fill="none" xmlns="http://www.w3.org/2000/svg">
<path opacity="0.4" d="M463.352 158.782C470.617 158.782 476.506 152.888 476.506 145.616C476.506 138.344 470.617 132.449 463.352 132.449C456.087 132.449 450.197 138.344 450.197 145.616C450.197 152.888 456.087 158.782 463.352 158.782Z" fill="#C360FC"/>
<path opacity="0.4" d="M185.995 86.3445C196.352 86.3445 204.748 77.9412 204.748 67.5751C204.748 57.209 196.352 48.8057 185.995 48.8057C175.639 48.8057 167.243 57.209 167.243 67.5751C167.243 77.9412 175.639 86.3445 185.995 86.3445Z" fill="#C360FC"/>
<path opacity="0.4" d="M151.289 89.7063C158.554 89.7063 164.444 83.8114 164.444 76.5397C164.444 69.2679 158.554 63.373 151.289 63.373C144.024 63.373 138.134 69.2679 138.134 76.5397C138.134 83.8114 144.024 89.7063 151.289 89.7063Z" fill="#C360FC"/>
<path d="M474.369 292.852C463.975 304.242 463.598 320.834 463.598 320.834C463.598 320.834 480.072 318.959 490.467 307.569C500.861 296.179 501.238 279.587 501.238 279.587C501.238 279.587 484.763 281.462 474.369 292.852Z" fill="#3F3D56"/>
<path d="M480.241 296.13C477.095 311.231 463.874 321.247 463.874 321.247C463.874 321.247 455.753 306.778 458.898 291.677C462.043 276.575 475.264 266.56 475.264 266.56C475.264 266.56 483.386 281.029 480.241 296.13Z" fill="#C360FC"/>
<path d="M466.741 140.303V320.326L406.787 369.898H100.068V181.178L189.564 140.303H466.741Z" fill="#3F3D56"/>
<path opacity="0.1" d="M466.741 140.303V141.025L445.218 155.444L406.787 181.178H100.068L189.564 140.303H466.741Z" fill="black"/>
<path opacity="0.1" d="M466.741 140.303V320.326L406.787 369.898L407.222 180.743L445.218 155.444L466.394 140.303H466.741Z" fill="black"/>
<path d="M385.934 165.089H199.122L213.024 157.262H392.016L385.934 165.089Z" fill="#2F2E41"/>
<path d="M547.166 379.69C547.166 379.69 550.788 394.849 547.495 395.508C544.203 396.167 528.07 395.954 524.119 396.613C520.169 397.272 511.938 396.167 511.938 393.201C511.938 390.235 520.498 388.258 520.498 388.258C520.498 388.258 532.68 381.667 533.009 381.338C533.338 381.008 547.166 379.69 547.166 379.69Z" fill="#2F2E41"/>
<path d="M544.203 290.387C544.203 290.387 543.215 301.591 543.215 302.579C543.215 303.568 544.203 319.056 543.215 319.715C542.227 320.374 543.874 324.988 543.874 326.635C543.874 328.283 549.141 355.634 547.824 366.179C546.507 376.724 549.8 375.736 548.812 376.724C547.824 377.713 547.824 377.713 547.824 379.69C547.824 381.667 537.289 383.315 537.289 383.315L525.766 310.488L531.692 288.739L544.203 290.387Z" fill="#575A89"/>
<path opacity="0.1" d="M544.203 290.387C544.203 290.387 543.215 301.591 543.215 302.579C543.215 303.568 544.203 319.056 543.215 319.715C542.227 320.374 543.874 324.988 543.874 326.635C543.874 328.283 549.141 355.634 547.824 366.179C546.507 376.724 549.8 375.736 548.812 376.724C547.824 377.713 547.824 377.713 547.824 379.69C547.824 381.667 537.289 383.315 537.289 383.315L525.766 310.488L531.692 288.739L544.203 290.387Z" fill="black"/>
<path d="M542.557 384.304C542.557 384.304 545.849 396.167 542.557 396.826C539.264 397.485 523.132 396.071 519.181 396.73C515.23 397.389 506.999 397.485 506.999 394.519C506.999 391.553 515.559 389.576 515.559 389.576C515.559 389.576 527.741 382.985 528.07 382.656C528.399 382.326 542.557 384.304 542.557 384.304Z" fill="#2F2E41"/>
<path d="M547.166 277.206C547.166 277.206 551.117 286.762 546.507 291.705C541.898 296.648 536.63 306.534 536.63 307.193C536.63 307.852 545.849 373.429 544.532 377.713C543.215 381.997 543.544 384.633 543.874 385.292C544.203 385.951 540.581 389.576 536.63 389.576C532.68 389.576 526.753 386.61 526.095 383.974C525.436 381.338 527.083 358.6 526.753 354.316C526.424 350.032 524.778 343.771 524.119 342.453C523.461 341.135 519.839 339.817 519.181 335.862C518.522 331.908 513.255 281.489 514.901 279.842C516.547 278.194 547.166 277.206 547.166 277.206Z" fill="#575A89"/>
<path d="M522.144 201.413C528.326 201.413 533.338 196.397 533.338 190.209C533.338 184.021 528.326 179.005 522.144 179.005C515.962 179.005 510.95 184.021 510.95 190.209C510.95 196.397 515.962 201.413 522.144 201.413Z" fill="#FFB9B9"/>
<path d="M529.058 195.811C529.058 195.811 526.753 208.004 528.399 209.322C530.046 210.64 515.889 212.617 515.889 212.617C515.889 212.617 514.242 196.47 513.913 194.822C513.584 193.175 529.058 195.811 529.058 195.811Z" fill="#FFB9B9"/>
<path d="M513.913 211.629C513.913 211.629 517.864 200.095 533.997 203.39C533.997 203.39 536.96 204.379 535.972 205.367C534.984 206.356 533.997 206.356 535.313 207.345C536.63 208.333 538.277 207.345 537.289 208.333C536.301 209.322 546.178 215.253 545.52 226.458C544.861 237.662 547.824 253.479 545.52 256.115C543.215 258.752 547.166 270.285 546.507 272.592C545.849 274.899 550.458 277.865 548.483 278.853C546.507 279.842 510.95 285.773 509.962 278.853C508.975 271.933 509.633 276.876 508.645 275.228C507.658 273.581 507.328 270.615 507.987 266.99C508.645 263.365 510.292 254.468 509.633 251.172C508.975 247.877 509.633 220.196 511.609 216.901C513.584 213.606 513.913 211.629 513.913 211.629Z" fill="#C360FC"/>
<path d="M520.827 292.034C520.827 292.034 525.766 310.818 519.51 310.818C513.255 310.818 513.584 291.375 513.584 291.375L520.827 292.034Z" fill="#FFB9B9"/>
<path d="M517.206 190.209C517.206 191.165 518.588 191.771 520.732 191.909H520.735C521.644 191.961 522.555 191.943 523.461 191.857C524.831 191.731 525.397 193.02 525.631 194.72C526.013 197.525 525.479 201.456 526.095 202.072C526.944 202.922 533.137 202.069 535.073 200.141C535.374 199.871 535.575 199.506 535.643 199.106C535.846 197.929 536.426 196.85 537.296 196.032C538.438 194.783 540.064 193.399 541.898 191.198C545.191 187.243 541.898 186.914 540.911 183.948C539.923 180.982 538.277 179.993 538.277 178.016C538.277 176.039 530.704 174.391 524.449 174.721C518.193 175.05 519.51 182.959 519.51 182.959C519.51 182.959 519.138 183.915 518.694 185.147C518.092 186.694 517.604 188.282 517.232 189.899C517.216 190.002 517.208 190.105 517.206 190.209Z" fill="#2F2E41"/>
<path opacity="0.1" d="M518.522 216.571C518.522 216.571 529.716 215.912 530.704 232.389C531.692 248.866 531.363 264.354 531.363 264.683C531.363 265.013 526.753 296.318 522.473 296.318C518.193 296.318 514.901 295.659 513.913 294.012C512.925 292.364 516.547 268.638 516.547 268.638C516.547 268.638 518.193 243.593 515.559 235.684C512.925 227.776 512.596 217.56 518.522 216.571Z" fill="black"/>
<path d="M516.876 214.924C516.876 214.924 528.07 214.265 529.058 230.741C530.046 247.218 529.716 262.706 529.716 263.036C529.716 263.365 525.107 294.671 520.827 294.671C516.547 294.671 513.255 294.012 512.267 292.364C511.279 290.716 514.901 266.99 514.901 266.99C514.901 266.99 516.547 241.945 513.913 234.037C511.279 226.128 510.95 215.912 516.876 214.924Z" fill="#C360FC"/>
<path d="M331.255 53.8441C331.255 53.8441 326.377 40.0094 322.853 44.3497C319.33 48.69 328.274 56.0142 328.274 56.0142L331.255 53.8441Z" fill="#A0616A"/>
<path d="M354.292 40.2808L351.357 41.3694C351.357 41.3694 349.956 47.605 350.498 48.69C351.04 49.7751 351.311 48.9613 350.498 51.1315C349.685 53.3016 347.246 58.9982 346.974 59.812C346.703 60.6258 331.255 54.6579 331.255 51.674C331.255 51.674 328.003 55.4717 326.377 56.2855C326.377 56.2855 344.264 69.3063 346.703 70.934C349.143 72.5616 350.498 71.7478 352.666 69.8489C354.834 67.95 364.049 52.2165 364.049 52.2165L354.292 40.2808Z" fill="#575A89"/>
<path d="M346.432 136.581C346.432 136.581 346.703 139.565 347.246 139.836C347.788 140.107 351.853 146.889 347.246 148.245C342.638 149.601 339.928 149.059 338.844 149.602C337.76 150.144 318.788 151.229 318.517 148.245C318.246 145.261 327.732 144.719 327.732 144.719C327.732 144.719 336.405 139.022 337.76 136.038C339.115 133.054 346.432 136.581 346.432 136.581Z" fill="#2F2E41"/>
<path d="M401.45 142.006C401.45 142.006 407.955 153.128 406.328 154.484C404.702 155.84 388.866 160.783 386.544 160.995C383.563 161.266 381.394 158.824 383.834 157.468C386.273 156.112 391.422 150.415 391.422 148.516V143.633L401.45 142.006Z" fill="#2F2E41"/>
<path d="M407.684 69.3064C407.684 69.3064 413.375 76.3594 404.431 87.7526L389.525 106.741C389.525 106.741 398.74 121.39 399.011 128.985C399.282 136.581 401.179 134.953 401.721 138.208C402.263 141.463 404.702 139.836 402.805 142.277C400.908 144.719 393.861 146.889 391.693 144.99C390.947 144.307 390.365 143.465 389.99 142.525C389.614 141.586 389.455 140.574 389.525 139.565C389.525 138.48 385.731 132.24 385.46 130.342C385.189 128.443 375.161 112.98 375.161 112.98C375.161 112.98 371.909 103.757 375.703 98.6032C379.497 93.4492 382.005 86.1392 382.005 86.1392C382.005 86.1392 370.825 99.6883 362.965 102.944C362.965 102.944 359.984 103.486 360.526 104.842C361.068 106.199 360.526 107.013 359.713 108.369C358.9 109.725 353.208 125.459 351.311 129.528C349.414 133.597 350.227 136.038 348.059 137.394C345.89 138.751 336.134 137.666 336.134 136.309C336.134 134.953 337.489 131.427 338.302 129.528C339.115 127.629 345.619 105.656 345.077 101.858C344.535 98.0607 345.348 92.9067 349.414 90.7365C353.479 88.5664 374.077 70.934 375.161 70.934C376.245 70.934 407.684 69.3064 407.684 69.3064Z" fill="#2F2E41"/>
<path d="M353.208 26.7174C359.495 26.7174 364.591 21.6164 364.591 15.3241C364.591 9.03183 359.495 3.93091 353.208 3.93091C346.921 3.93091 341.825 9.03183 341.825 15.3241C341.825 21.6164 346.921 26.7174 353.208 26.7174Z" fill="#A0616A"/>
<path d="M362.423 16.4092C362.423 16.4092 365.946 22.6483 370.282 23.4622C374.619 24.276 358.899 36.7542 358.899 36.7542C358.899 36.7542 355.105 24.8185 351.853 24.276C348.601 23.7334 362.423 16.4092 362.423 16.4092Z" fill="#A0616A"/>
<path d="M351.311 41.9083C351.311 45.4348 361.881 55.4717 361.881 55.4717L371.909 63.8809C371.909 63.8809 372.18 66.8649 373.264 67.1361C374.348 67.4074 375.703 67.4074 374.619 69.035C373.535 70.6626 370.824 74.1891 373.264 74.7316C373.999 74.8436 374.74 74.9142 375.483 74.9432C376.134 74.9812 376.898 75.0164 377.757 75.049C379.763 75.1195 382.272 75.1656 384.991 75.1467C385.763 75.1439 386.549 75.1349 387.349 75.1195C397.596 74.9161 409.467 73.7361 408.497 69.8488C406.87 63.3384 407.955 61.1683 404.431 57.6418C400.908 54.1153 395.216 41.9083 395.216 41.9083C395.216 41.9083 383.834 22.6483 374.348 22.6483L372.377 22.1302C371.462 21.8888 370.494 21.9418 369.61 22.2816C368.726 22.6214 367.972 23.2308 367.453 24.0237C365.55 26.9235 362.55 31.2801 360.797 32.6852C358.086 34.8553 357.664 33.2983 357.664 33.2983C357.664 33.2983 351.311 38.3818 351.311 41.9083Z" fill="#575A89"/>
<path d="M375.432 83.1411C375.432 83.1411 367.572 95.3481 372.451 97.5183C377.329 99.6884 380.039 84.7687 380.039 84.7687L375.432 83.1411Z" fill="#A0616A"/>
<path d="M360.65 14.0373C360.213 13.9821 360.074 13.4304 360.001 12.9958C359.607 10.6688 357.875 8.46222 355.547 8.08657C354.657 7.96809 353.752 8.04107 352.893 8.30064C351.662 8.63876 350.506 9.20808 349.487 9.97829C348.989 10.4343 348.413 10.7966 347.786 11.0478C347.359 11.1734 345.545 11.9804 345.121 12.1169C344.19 12.4171 343.419 13.3932 342.459 13.1999C341.541 13.015 341.193 11.9055 341.045 10.98C340.709 8.87152 341.915 5.72544 343.113 3.95932C344.023 2.61908 345.563 1.84776 347.102 1.34596C348.905 0.798084 350.758 0.429584 352.634 0.245806C355.166 -0.0534855 357.788 -0.212276 360.214 0.571053C362.641 1.35438 364.85 3.27058 365.303 5.78179C365.397 6.3049 365.415 6.8407 365.531 7.35951C365.813 8.62515 366.65 9.68899 367.138 10.8902C367.49 11.7724 367.653 12.7187 367.617 13.668C367.582 14.6173 367.348 15.5486 366.93 16.4018C366.255 17.7621 365.079 19.0693 365.333 20.5671L363.241 18.9165C362.939 18.7446 362.705 18.4742 362.578 18.1503C362.451 17.8265 362.439 17.4688 362.543 17.137L362.847 14.5159C362.953 14.041 362.905 13.545 362.712 13.0987C361.782 11.4735 361.378 14.1293 360.65 14.0373Z" fill="#2F2E41"/>
<path opacity="0.1" d="M380.31 64.4235L377.757 75.049C380.332 75.1412 383.739 75.1901 387.349 75.1195C388.259 72.3852 389.129 69.5341 389.796 66.8649C392.235 57.0993 388.17 42.1796 386.002 35.1266C383.834 28.0737 378.413 26.1748 378.413 26.1748C376.191 26.957 374.092 28.0532 372.18 29.43C368.656 31.8714 380.31 64.4235 380.31 64.4235Z" fill="black"/>
<path opacity="0.1" d="M378.142 63.8811L375.483 74.9433C376.134 74.9813 376.898 75.0166 377.757 75.0491C379.763 75.1197 382.272 75.1658 384.991 75.1468C385.969 72.2415 386.915 69.1762 387.628 66.3225C390.067 56.5569 386.002 41.6372 383.834 34.5842C381.665 27.5313 376.923 35.2624 376.923 35.2624C376.923 35.2624 378.82 30.6508 375.296 33.0922C371.773 35.5336 378.142 63.8811 378.142 63.8811Z" fill="black"/>
<path d="M377.329 25.6323C377.329 25.6323 382.749 27.5312 384.918 34.5841C387.086 41.6371 391.151 56.5568 388.712 66.3224C386.273 76.088 381.123 88.295 381.123 88.295C381.123 88.295 375.974 84.4973 374.077 85.3111L379.226 63.881C379.226 63.881 367.572 31.3289 371.096 28.8875C373.008 27.5107 375.107 26.4145 377.329 25.6323Z" fill="#575A89"/>
<path d="M381.369 161.698L306.386 5.30273L181.008 65.5233L227.119 161.698H381.369Z" fill="#F2F2F2"/>
<path d="M281.012 66.6913L214.419 98.6765L216.403 102.814L282.995 70.8283L281.012 66.6913Z" fill="#3F3D56"/>
<path d="M298.643 103.465L232.05 135.45L234.034 139.588L300.626 107.602L298.643 103.465Z" fill="#3F3D56"/>
<path d="M310.754 45.0537L294.221 52.9949L302.155 69.5431L318.688 61.602L310.754 45.0537Z" fill="#3F3D56"/>
<path d="M328.385 81.8276L311.852 89.7688L319.786 106.317L336.319 98.3759L328.385 81.8276Z" fill="#3F3D56"/>
<path d="M311.893 33.5913L305.084 52.9819L295.905 49.7527L294.649 53.3297L307.39 57.8112L315.466 34.8485L311.893 33.5913Z" fill="#57B894"/>
<path d="M329.524 70.3652L322.715 89.7558L313.537 86.5272L312.281 90.1036L325.021 94.5851L333.098 71.6224L329.524 70.3652Z" fill="#57B894"/>
<path d="M7.23636 341.698L41.1132 334.456L33.8768 300.548L-1.17308e-06 307.791L7.23636 341.698Z" fill="#F2F2F2"/>
<path d="M40.171 291.489C40.171 291.489 27.728 300.384 31.8756 303.943C36.0233 307.501 44.3187 293.268 44.3187 293.268L40.171 291.489Z" fill="#FFB9B9"/>
<path d="M97.6459 305.129C97.6459 305.129 95.2759 334.782 94.6833 338.933C94.0908 343.085 93.4983 380.447 92.3132 384.599C91.1282 388.75 89.9431 398.832 89.9431 398.832H82.8328C82.8328 398.832 83.4253 380.447 81.6478 373.331C79.8702 366.214 80.4627 346.643 80.4627 346.643C80.4627 346.643 76.9076 311.652 78.6852 306.908C80.4628 302.164 97.6459 305.129 97.6459 305.129Z" fill="#FFB9B9"/>
<path d="M88.1655 397.053C88.1655 397.053 91.1282 398.832 91.1282 400.019C91.1282 401.205 90.5356 404.17 91.1282 405.356C91.7207 406.542 95.8684 411.287 93.4983 412.473C91.1281 413.659 80.4627 412.473 80.4627 412.473C80.4627 412.473 81.0552 404.17 81.6477 403.577C82.2403 402.984 81.0552 397.053 81.0552 397.053H88.1655Z" fill="#2F2E41"/>
<path d="M52.3508 304.402C52.3508 304.402 51.5981 334.14 51.752 338.331C51.9058 342.522 48.5768 379.74 49.3199 383.993C50.0631 388.246 50.1843 398.397 50.1843 398.397L57.2553 399.144C57.2553 399.144 58.5941 380.799 61.1082 373.908C63.6223 367.017 65.0855 347.492 65.0855 347.492C65.0855 347.492 72.2905 313.068 71.0203 308.163C69.7501 303.258 52.3508 304.402 52.3508 304.402Z" fill="#FFB9B9"/>
<path d="M52.1387 396.815C52.1387 396.815 49.0058 398.273 48.8814 399.452C48.757 400.632 49.0353 403.643 48.3217 404.76C47.608 405.878 42.9857 410.16 45.2183 411.589C47.4509 413.017 58.1819 412.958 58.1819 412.958C58.1819 412.958 58.4633 404.639 57.9363 403.987C57.4092 403.335 59.2097 397.562 59.2097 397.562L52.1387 396.815Z" fill="#2F2E41"/>
<path d="M89.3506 260.649C89.3506 260.649 94.0908 261.242 95.8684 271.325C97.646 281.407 104.164 306.908 98.831 308.687C93.4983 310.466 77.5001 314.025 76.9076 312.839C76.3151 311.653 75.13 308.687 75.13 308.687C75.13 308.687 76.9076 314.025 74.5375 314.025C72.1674 314.025 49.0589 310.466 49.6515 308.687C50.244 306.908 51.429 293.861 51.429 293.861C51.429 293.861 54.9842 271.918 58.5393 268.359C59.5682 267.37 60.367 266.167 60.879 264.835C61.391 263.502 61.6037 262.073 61.5019 260.649H89.3506Z" fill="#2F2E41"/>
<path d="M98.2385 255.905C98.2385 255.905 90.5356 254.126 89.3506 256.498C88.1655 258.87 92.3132 262.429 94.0908 262.429C95.8684 262.429 98.831 260.649 98.831 260.649L98.2385 255.905Z" fill="#FFB9B9"/>
<path d="M82.2403 205.495C88.1306 205.495 92.9057 200.716 92.9057 194.82C92.9057 188.924 88.1306 184.145 82.2403 184.145C76.3499 184.145 71.5748 188.924 71.5748 194.82C71.5748 200.716 76.3499 205.495 82.2403 205.495Z" fill="#FFB9B9"/>
<path d="M80.4627 202.529C80.4627 202.529 78.6851 210.832 79.8702 210.832C81.0552 210.832 70.9823 216.17 70.9823 216.17L63.2795 214.984L60.9094 211.425C60.9094 211.425 73.3524 203.122 73.3524 198.378C73.3524 193.633 80.4627 202.529 80.4627 202.529Z" fill="#FFB9B9"/>
<path d="M75.13 210.832C75.13 210.832 76.9075 209.646 77.5001 209.646H82.2403C82.8328 209.646 90.5356 211.425 90.5356 211.425L95.2758 238.113C95.2758 238.113 86.9805 251.753 92.9057 262.429C92.9057 262.429 91.1282 261.242 82.8328 261.836C74.5374 262.429 59.7243 264.208 59.1318 264.208C58.5393 264.208 58.5393 259.463 59.1318 258.277C59.7243 257.091 58.5393 257.684 58.5393 254.719C58.5393 251.753 56.7617 246.416 56.7617 246.416L48.4664 216.17C48.4664 216.17 59.1318 210.239 60.9094 210.832C62.687 211.425 68.0197 213.205 69.2047 212.611C70.3898 212.018 75.13 210.832 75.13 210.832Z" fill="#C360FC"/>
<path d="M88.7581 212.019L90.5356 211.425C90.5356 211.425 94.0908 210.832 98.2384 214.391C102.386 217.949 117.792 228.624 117.792 228.624C117.792 228.624 123.717 233.369 121.939 238.706C120.162 244.044 117.199 257.091 108.311 256.498C108.311 256.498 102.979 263.615 100.016 262.429C97.0534 261.243 94.6833 256.498 96.4609 255.905C98.2385 255.312 102.979 249.381 102.979 249.381L97.0534 238.113H95.2759L88.7581 234.555L88.7581 212.019Z" fill="#C360FC"/>
<path d="M53.2066 215.577L48.4664 216.17C48.4664 216.17 44.3187 217.949 44.9112 225.659C45.5037 233.369 41.3561 268.359 43.1337 272.511C43.1337 272.511 37.2084 292.675 38.3935 293.268C39.5785 293.861 46.6888 297.419 46.0963 295.047C45.5038 292.675 52.6141 276.069 52.6141 276.069C52.6141 276.069 60.9094 267.173 57.3543 254.719V244.637L53.2066 215.577Z" fill="#C360FC"/>
<path d="M91.1168 205.141L83.5842 206.783L82.6162 203.071L82.9884 206.913L70.8368 209.563L70.3024 207.513L70.5078 209.634L62.7248 211.332L61.0599 195.335C59.3482 188.77 65.5953 181.774 72.1536 180.061L75.0631 179.301C79.8799 178.043 88.6357 179.187 89.8929 184.008C87.6925 192.414 83.9415 201.629 91.1168 205.141Z" fill="#2F2E41"/>
</svg>
