<svg width="24" height="25" viewBox="0 0 24 25" fill="none" xmlns="http://www.w3.org/2000/svg">
<path fill-rule="evenodd" clip-rule="evenodd" d="M8.25 4.23523C8.25 3.26873 9.0335 2.48523 10 2.48523H14C14.9665 2.48523 15.75 3.26873 15.75 4.23523V4.98523H19H20C20.4142 4.98523 20.75 5.32102 20.75 5.73523C20.75 6.14944 20.4142 6.48523 20 6.48523H19.75V19.7352C19.75 21.8063 18.0711 23.4852 16 23.4852H8C5.92893 23.4852 4.25 21.8063 4.25 19.7352V6.48523H4C3.58579 6.48523 3.25 6.14944 3.25 5.73523C3.25 5.32102 3.58579 4.98523 4 4.98523H5H8.25V4.23523ZM14.25 4.23523V4.98523H9.75V4.23523C9.75 4.09716 9.86193 3.98523 10 3.98523H14C14.1381 3.98523 14.25 4.09716 14.25 4.23523ZM5.75 6.48523H9H15H18.25V19.7352C18.25 20.9779 17.2426 21.9852 16 21.9852H8C6.75736 21.9852 5.75 20.9779 5.75 19.7352V6.48523ZM9.75 9.98523C9.75 9.57102 9.41421 9.23523 9 9.23523C8.58579 9.23523 8.25 9.57102 8.25 9.98523V18.4852C8.25 18.8994 8.58579 19.2352 9 19.2352C9.41421 19.2352 9.75 18.8994 9.75 18.4852V9.98523ZM15 9.23523C15.4142 9.23523 15.75 9.57102 15.75 9.98523V18.4852C15.75 18.8994 15.4142 19.2352 15 19.2352C14.5858 19.2352 14.25 18.8994 14.25 18.4852V9.98523C14.25 9.57102 14.5858 9.23523 15 9.23523ZM12.75 9.98523C12.75 9.57102 12.4142 9.23523 12 9.23523C11.5858 9.23523 11.25 9.57102 11.25 9.98523V18.4852C11.25 18.8994 11.5858 19.2352 12 19.2352C12.4142 19.2352 12.75 18.8994 12.75 18.4852V9.98523Z" fill="#F85656"/>
</svg>
